<svg id="Layer_1" data-name="Layer 1" xmlns="http://www.w3.org/2000/svg" viewBox="0 0 24 24"><defs><style>.cls-1{fill:#dc8200;}.cls-1,.cls-2{stroke:#dc8200;stroke-width:0.5px;}.cls-2{fill:#ec9922;}</style></defs><g id="Group_19480" data-name="Group 19480"><g id="medal"><path id="Path_20893" data-name="Path 20893" class="cls-1" d="M14.47,21.33a.25.25,0,0,1-.22-.15l-2.22-5a.25.25,0,0,1,.15-.32.24.24,0,0,1,.31.12l2,4.48.69-1.67a.24.24,0,0,1,.32-.14h0l1.58.71-1.85-4.16a.26.26,0,0,1,.12-.34.24.24,0,0,1,.33.12v0l2.11,4.76a.25.25,0,0,1-.13.33.23.23,0,0,1-.2,0l-1.94-.88-.8,2a.25.25,0,0,1-.23.16Z"/><path id="Path_20890" data-name="Path 20890" class="cls-1" d="M9.53,21.33h0a.25.25,0,0,1-.23-.16l-.8-2-1.94.88A.25.25,0,0,1,6.22,20a.26.26,0,0,1,0-.21L8.33,15a.24.24,0,0,1,.32-.14.25.25,0,0,1,.14.32v0L6.94,19.36l1.58-.72a.25.25,0,0,1,.33.12h0l.69,1.67,2-4.48a.25.25,0,0,1,.47.18v0l-2.22,5A.24.24,0,0,1,9.53,21.33Z"/><path id="Path_20891" data-name="Path 20891" class="cls-2" d="M10.38,16.76a1.15,1.15,0,0,1-.26,0A1.9,1.9,0,0,1,9.2,16a2.06,2.06,0,0,0-.5-.52A2.12,2.12,0,0,0,8,15.25a1.89,1.89,0,0,1-1.12-.4,1.86,1.86,0,0,1-.41-1.13A2,2,0,0,0,6.28,13a1.87,1.87,0,0,0-.52-.49A1.92,1.92,0,0,1,5,11.59a1.88,1.88,0,0,1,.21-1.16,1.82,1.82,0,0,0,.21-.72A1.86,1.86,0,0,0,5.19,9,1.87,1.87,0,0,1,5,7.83a1.9,1.9,0,0,1,.78-.92,1.91,1.91,0,0,0,.52-.5,1.91,1.91,0,0,0,.18-.71,1.83,1.83,0,0,1,.41-1.12A1.83,1.83,0,0,1,8,4.17,1.9,1.9,0,0,0,8.7,4a2.1,2.1,0,0,0,.5-.53,1.9,1.9,0,0,1,.92-.78,1.87,1.87,0,0,1,1.16.21,2.06,2.06,0,0,0,.72.21,2.22,2.22,0,0,0,.72-.21,1.81,1.81,0,0,1,1.16-.21,1.82,1.82,0,0,1,.92.79,2.24,2.24,0,0,0,.5.52,1.9,1.9,0,0,0,.71.17,1.83,1.83,0,0,1,1.12.41,1.83,1.83,0,0,1,.41,1.12,2,2,0,0,0,.17.72,2.06,2.06,0,0,0,.53.49,2,2,0,0,1,.78.92A1.87,1.87,0,0,1,18.81,9a1.82,1.82,0,0,0-.21.72,1.86,1.86,0,0,0,.21.72A1.87,1.87,0,0,1,19,11.59a1.85,1.85,0,0,1-.78.92,1.91,1.91,0,0,0-.52.5,1.91,1.91,0,0,0-.18.71,1.83,1.83,0,0,1-.41,1.12,1.83,1.83,0,0,1-1.12.41,1.9,1.9,0,0,0-.71.17,2,2,0,0,0-.49.52,1.94,1.94,0,0,1-.93.79,1.87,1.87,0,0,1-1.16-.21,1.82,1.82,0,0,0-.72-.21,2.22,2.22,0,0,0-.72.21,2.36,2.36,0,0,1-.9.24Zm0-13.55h-.12c-.23.06-.42.32-.63.59A2.55,2.55,0,0,1,9,4.47a2.46,2.46,0,0,1-.92.24A1.46,1.46,0,0,0,7.25,5,1.46,1.46,0,0,0,7,5.77a2.46,2.46,0,0,1-.24.92,2.55,2.55,0,0,1-.66.65c-.27.21-.53.4-.59.63a1.52,1.52,0,0,0,.19.81A2.52,2.52,0,0,1,6,9.71a2.52,2.52,0,0,1-.25.93,1.45,1.45,0,0,0-.19.81c.06.23.32.42.58.63a2.34,2.34,0,0,1,.67.66,2.36,2.36,0,0,1,.24.91,1.46,1.46,0,0,0,.25.81,1.46,1.46,0,0,0,.81.25A2.36,2.36,0,0,1,9,15a2.44,2.44,0,0,1,.66.66c.21.27.4.53.63.59a1.54,1.54,0,0,0,.81-.19,2.34,2.34,0,0,1,.93-.25,2.52,2.52,0,0,1,.93.25,1.54,1.54,0,0,0,.81.19c.23-.06.42-.32.63-.59A2.55,2.55,0,0,1,15,15a2.46,2.46,0,0,1,.92-.24,1.46,1.46,0,0,0,.81-.25,1.46,1.46,0,0,0,.25-.81,2.36,2.36,0,0,1,.24-.91,2.44,2.44,0,0,1,.66-.66c.27-.21.53-.4.59-.63a1.54,1.54,0,0,0-.19-.81,2.34,2.34,0,0,1-.25-.93,2.34,2.34,0,0,1,.25-.93A1.54,1.54,0,0,0,18.49,8a1.57,1.57,0,0,0-.59-.63,2.55,2.55,0,0,1-.66-.65A2.46,2.46,0,0,1,17,5.77,1.46,1.46,0,0,0,16.75,5a1.46,1.46,0,0,0-.81-.25A2.46,2.46,0,0,1,15,4.47a2.55,2.55,0,0,1-.65-.66c-.21-.27-.4-.53-.63-.59a1.54,1.54,0,0,0-.81.19,2.52,2.52,0,0,1-.93.25,2.52,2.52,0,0,1-.93-.25A2.1,2.1,0,0,0,10.38,3.21Z"/><path id="Path_20892" data-name="Path 20892" class="cls-1" d="M12,14a4.27,4.27,0,1,1,4.27-4.27A4.27,4.27,0,0,1,12,14Zm0-8a3.77,3.77,0,1,0,3.77,3.77h0A3.77,3.77,0,0,0,12,5.94Z"/><path id="Path_20894" data-name="Path 20894" class="cls-1" d="M13.37,11.94l-.12,0L12,11.25l-1.25.66a.25.25,0,0,1-.34-.11.26.26,0,0,1,0-.15l.24-1.4-1-1a.26.26,0,0,1,0-.36.27.27,0,0,1,.14-.07l1.4-.2.63-1.27a.25.25,0,0,1,.35-.09.28.28,0,0,1,.1.09l.62,1.27,1.4.2a.25.25,0,0,1,.21.28.26.26,0,0,1-.07.15l-1,1,.24,1.4a.23.23,0,0,1-.2.28ZM12,10.72l.12,0,.92.48-.18-1a.26.26,0,0,1,.07-.22l.75-.73-1-.15A.25.25,0,0,1,12.46,9L12,8,11.54,9a.25.25,0,0,1-.19.14l-1,.15.75.73a.25.25,0,0,1,.07.22l-.18,1,.92-.48Z"/></g></g></svg>