<svg id="Layer_1" data-name="Layer 1" xmlns="http://www.w3.org/2000/svg" viewBox="0 0 24 24"><defs><style>.cls-1{fill:#dc8200;}.cls-1,.cls-2{stroke:#888;stroke-width:0.5px;}.cls-2{fill:#ec9922;}</style></defs><g id="Group_19480" data-name="Group 19480"><g id="medal"><path id="Path_20893" data-name="Path 20893" class="cls-1" d="M14.47,21.4a.25.25,0,0,1-.22-.15l-2.22-5a.25.25,0,0,1,.46-.2l2,4.48.69-1.67a.23.23,0,0,1,.32-.13h0l1.58.72-1.85-4.17a.25.25,0,0,1,.12-.33.25.25,0,0,1,.33.11v0l2.11,4.77a.26.26,0,0,1-.13.33.34.34,0,0,1-.2,0l-1.94-.89-.8,2a.25.25,0,0,1-.23.15Z"/><path id="Path_20890" data-name="Path 20890" class="cls-1" d="M9.53,21.4h0a.25.25,0,0,1-.23-.15l-.8-2-1.94.89A.26.26,0,0,1,6.22,20a.23.23,0,0,1,0-.2l2.11-4.77a.24.24,0,0,1,.32-.14.25.25,0,0,1,.14.33v0L6.94,19.43l1.58-.72a.26.26,0,0,1,.33.13h0l.69,1.66,2-4.48a.24.24,0,0,1,.32-.14.25.25,0,0,1,.15.32v0l-2.22,5A.24.24,0,0,1,9.53,21.4Z"/><path id="Path_20891" data-name="Path 20891" class="cls-2" d="M10.38,16.84a1.17,1.17,0,0,1-.26,0A1.85,1.85,0,0,1,9.2,16a2.06,2.06,0,0,0-.5-.52A2.12,2.12,0,0,0,8,15.32a1.77,1.77,0,0,1-1.12-.4,1.86,1.86,0,0,1-.41-1.13,2,2,0,0,0-.18-.71,1.87,1.87,0,0,0-.52-.49A1.92,1.92,0,0,1,5,11.66a1.89,1.89,0,0,1,.21-1.16,1.82,1.82,0,0,0,.21-.72,1.86,1.86,0,0,0-.21-.72A1.87,1.87,0,0,1,5,7.9,1.9,1.9,0,0,1,5.76,7a1.77,1.77,0,0,0,.52-.5,1.91,1.91,0,0,0,.18-.71,1.83,1.83,0,0,1,.41-1.12A1.83,1.83,0,0,1,8,4.24a1.9,1.9,0,0,0,.71-.17,2.06,2.06,0,0,0,.5-.52,1.81,1.81,0,0,1,.92-.78A1.8,1.8,0,0,1,11.28,3a2,2,0,0,0,.72.2A1.82,1.82,0,0,0,12.72,3a1.88,1.88,0,0,1,1.16-.21,1.87,1.87,0,0,1,.92.79,2.06,2.06,0,0,0,.5.52,2.12,2.12,0,0,0,.71.18,1.82,1.82,0,0,1,1.12.4,1.86,1.86,0,0,1,.41,1.13,2,2,0,0,0,.17.71,2.06,2.06,0,0,0,.53.49A2,2,0,0,1,19,7.9a1.87,1.87,0,0,1-.21,1.16,1.86,1.86,0,0,0-.21.72,1.82,1.82,0,0,0,.21.72A1.88,1.88,0,0,1,19,11.66a1.92,1.92,0,0,1-.78.93,1.87,1.87,0,0,0-.52.49,2,2,0,0,0-.18.71,1.86,1.86,0,0,1-.41,1.13,1.89,1.89,0,0,1-1.12.4,2.12,2.12,0,0,0-.71.18,1.86,1.86,0,0,0-.49.52,1.92,1.92,0,0,1-.93.78,1.8,1.8,0,0,1-1.16-.21,2.22,2.22,0,0,0-.72-.21,2.22,2.22,0,0,0-.72.21,2.57,2.57,0,0,1-.9.25Zm0-13.56-.12,0c-.23.05-.42.31-.63.58A2.4,2.4,0,0,1,9,4.54a2.46,2.46,0,0,1-.92.24A1.54,1.54,0,0,0,7.25,5,1.49,1.49,0,0,0,7,5.84a2.46,2.46,0,0,1-.24.92,2.4,2.4,0,0,1-.66.65c-.27.21-.53.41-.59.63a1.49,1.49,0,0,0,.19.81A2.52,2.52,0,0,1,6,9.78a2.47,2.47,0,0,1-.25.93,1.45,1.45,0,0,0-.19.81c.06.23.32.43.58.63a2.48,2.48,0,0,1,.67.66,2.36,2.36,0,0,1,.24.91,1.46,1.46,0,0,0,.25.81,1.46,1.46,0,0,0,.81.25A2.36,2.36,0,0,1,9,15a2.44,2.44,0,0,1,.66.66c.21.27.4.53.63.59a1.54,1.54,0,0,0,.81-.19,2.52,2.52,0,0,1,.93-.25,2.52,2.52,0,0,1,.93.25,1.45,1.45,0,0,0,.81.19c.23-.06.42-.32.63-.58A2.44,2.44,0,0,1,15,15a2.46,2.46,0,0,1,.92-.24,1.46,1.46,0,0,0,.81-.25,1.46,1.46,0,0,0,.25-.81,2.36,2.36,0,0,1,.24-.91,2.59,2.59,0,0,1,.66-.66c.27-.2.53-.4.59-.63a1.54,1.54,0,0,0-.19-.81,2.3,2.3,0,0,1-.25-.93,2.34,2.34,0,0,1,.25-.93A1.49,1.49,0,0,0,18.49,8a1.63,1.63,0,0,0-.59-.63,2.4,2.4,0,0,1-.66-.65A2.46,2.46,0,0,1,17,5.84,1.49,1.49,0,0,0,16.75,5a1.45,1.45,0,0,0-.81-.24A2.68,2.68,0,0,1,15,4.54a2.4,2.4,0,0,1-.65-.66c-.21-.27-.4-.53-.63-.58a1.44,1.44,0,0,0-.81.18,2.54,2.54,0,0,1-.93.26,2.54,2.54,0,0,1-.93-.26A2.38,2.38,0,0,0,10.38,3.28Z"/><path id="Path_20892" data-name="Path 20892" class="cls-1" d="M12,14.05a4.27,4.27,0,1,1,4.27-4.27A4.27,4.27,0,0,1,12,14.05Zm0-8a3.77,3.77,0,1,0,3.77,3.77h0A3.76,3.76,0,0,0,12,6Z"/><path id="Path_20894" data-name="Path 20894" class="cls-1" d="M13.37,12l-.12,0L12,11.32,10.75,12a.25.25,0,0,1-.34-.1.3.3,0,0,1,0-.16l.24-1.39-1-1a.26.26,0,0,1,0-.36.37.37,0,0,1,.14-.07l1.4-.2.63-1.27a.26.26,0,0,1,.35-.09.28.28,0,0,1,.1.09l.62,1.27,1.4.2a.25.25,0,0,1,.21.29.27.27,0,0,1-.07.14l-1,1,.24,1.39a.25.25,0,0,1-.2.29ZM12,10.79l.12,0,.92.48-.18-1a.26.26,0,0,1,.07-.22l.75-.73-1-.15a.26.26,0,0,1-.19-.13L12,8.11l-.46.94a.26.26,0,0,1-.19.13l-1,.15.75.73a.26.26,0,0,1,.07.22l-.18,1,.92-.48Z"/></g></g></svg>