<svg id="Layer_1" data-name="Layer 1" xmlns="http://www.w3.org/2000/svg" viewBox="0 0 24 24"><defs><style>.cls-1{fill:#888;}</style></defs><path id="check_circle_FILL0_wght400_GRAD0_opsz48" data-name="check circle FILL0 wght400 GRAD0 opsz48" class="cls-1" d="M10.82,13.82l-2-2a.6.6,0,0,0-.44-.18.68.68,0,0,0-.66.66.57.57,0,0,0,.2.44l2.44,2.44a.58.58,0,0,0,.82,0l0,0,4.8-4.8a.56.56,0,0,0,.17-.44A.61.61,0,0,0,16,9.54a.59.59,0,0,0-.45-.2.63.63,0,0,0-.47.2ZM12,20a8.16,8.16,0,0,1-3.16-.61,7.76,7.76,0,0,1-4.23-4.23,8.47,8.47,0,0,1,0-6.3A7.9,7.9,0,0,1,6.3,6.32,8,8,0,0,1,17.68,17.7a7.9,7.9,0,0,1-2.54,1.69A8.06,8.06,0,0,1,12,20Zm0-1.2a6.66,6.66,0,1,0-4.85-1.95A6.58,6.58,0,0,0,12,18.8Z"/></svg>