<svg id="Layer_1" data-name="Layer 1" xmlns="http://www.w3.org/2000/svg" viewBox="0 0 24 24"><defs><style>.cls-1{fill:#888;}</style></defs><path id="running_with_errors_FILL0_wght400_GRAD0_opsz48" data-name="running with errors FILL0 wght400 GRAD0 opsz48" class="cls-1" d="M12,20.4a8,8,0,0,1-7.32-4.85A8,8,0,0,1,8.85,5.12a8,8,0,0,1,6.43.1,8.14,8.14,0,0,1,2.67,2l-6,6V5.69a6.76,6.76,0,0,0-.29,13.52,6.83,6.83,0,0,0,3.4-.84A8.11,8.11,0,0,0,17.5,16.5v1.65A7.89,7.89,0,0,1,12,20.4Zm7.33-2.92a.56.56,0,0,1-.42-.18.52.52,0,0,1-.17-.42V11.57a.55.55,0,0,1,.17-.42.57.57,0,0,1,.43-.17.52.52,0,0,1,.42.17.59.59,0,0,1,.17.42v5.31a.63.63,0,0,1-.17.43.61.61,0,0,1-.43.17Zm.06,2.78a.65.65,0,1,1,.66-.63.63.63,0,0,1-.19.44.67.67,0,0,1-.47.19Z"/></svg>