<svg xmlns="http://www.w3.org/2000/svg" width="24" height="24" viewBox="0 0 24 24">
  <g id="Group_19641" data-name="Group 19641" transform="translate(-834 -362)">
    <rect id="icon_placeholder" width="24" height="24" transform="translate(834 362)" fill="none" opacity="0"/>
    <path id="inventory_FILL0_wght400_GRAD0_opsz48" d="M128.749,162h-7.061A1.731,1.731,0,0,1,120,160.312V143.939a1.755,1.755,0,0,1,.436-1.182q.436-.506.746-.506h5.683a2.812,2.812,0,0,1,5.514,0h5.683a1.731,1.731,0,0,1,1.688,1.688v5.711h-1.688v-5.711h-2.982v1.969a1.693,1.693,0,0,1-1.688,1.688h-7.033a1.693,1.693,0,0,1-1.688-1.688v-1.969h-2.982v16.373h7.061Zm5.317-3.123,6.133-6.133a.762.762,0,0,1,.591-.239.863.863,0,0,1,.591.267.849.849,0,0,1,0,1.21l-6.724,6.724a.816.816,0,0,1-1.182,0l-3.32-3.32a.778.778,0,0,1-.239-.6.878.878,0,0,1,.267-.6.849.849,0,0,1,1.21,0Zm-3.939-15.051a1.105,1.105,0,1,0-.8-.324A1.089,1.089,0,0,0,130.128,143.826Z" transform="translate(715 223)" fill="#b66dff"/>
  </g>
</svg>
