<svg xmlns="http://www.w3.org/2000/svg" width="24" height="24" viewBox="0 0 24 24">
  <g id="Group_19639" data-name="Group 19639" transform="translate(-212 -362)">
    <rect id="icon_placeholder" width="24" height="24" transform="translate(212 362)" fill="none" opacity="0"/>
    <path id="insert_chart_FILL0_wght400_GRAD0_opsz48" d="M125.933,233.2a.877.877,0,0,0,.652-.264.894.894,0,0,0,.26-.653v-6.569a.884.884,0,0,0-.265-.653.9.9,0,0,0-.657-.264.877.877,0,0,0-.652.264.894.894,0,0,0-.26.653v6.569a.884.884,0,0,0,.265.653A.9.9,0,0,0,125.933,233.2Zm5.072,0a.877.877,0,0,0,.652-.264.894.894,0,0,0,.26-.653V221.714a.884.884,0,0,0-.265-.653.9.9,0,0,0-.657-.264.877.877,0,0,0-.652.264.894.894,0,0,0-.26.653v10.572a.884.884,0,0,0,.265.653A.9.9,0,0,0,131.005,233.2Zm5.072,0a.877.877,0,0,0,.652-.264.894.894,0,0,0,.26-.653V229.6a.884.884,0,0,0-.265-.653.9.9,0,0,0-.657-.264.877.877,0,0,0-.652.264.894.894,0,0,0-.26.653v2.689a.884.884,0,0,0,.265.653A.9.9,0,0,0,136.078,233.2ZM121.833,238A1.88,1.88,0,0,1,120,236.167V217.833A1.88,1.88,0,0,1,121.833,216h18.333A1.88,1.88,0,0,1,142,217.833v18.333A1.88,1.88,0,0,1,140.167,238Zm0-1.833h18.333V217.833H121.833Zm0,0v0Z" transform="translate(93 147)" fill="#b66dff"/>
  </g>
</svg>
