<svg xmlns="http://www.w3.org/2000/svg" width="24" height="24" viewBox="0 0 24 24">
  <g id="Group_16728" data-name="Group 16728" transform="translate(15216 23399)">
    <g id="Group_16923" data-name="Group 16923" transform="translate(-4052 -8866)">
      <g id="Rectangle_10123" data-name="Rectangle 10123" transform="translate(-11164 -14533)" fill="#fff" stroke="#707070" stroke-width="1" opacity="0">
        <rect width="24" height="24" stroke="none"/>
        <rect x="0.5" y="0.5" width="23" height="23" fill="none"/>
      </g>
      <path id="edit_FILL0_wght400_GRAD0_opsz48" d="M7.638,23.736h1.2l12.1-12.1-1.2-1.2-12.1,12.1ZM24.4,10.467,20.908,6.972l1.147-1.147a1.529,1.529,0,0,1,1.16-.451,1.622,1.622,0,0,1,1.16.478l1.174,1.174a1.649,1.649,0,0,1,0,2.293ZM6.819,25.374A.794.794,0,0,1,6,24.555V22.207a.8.8,0,0,1,.055-.3.832.832,0,0,1,.191-.273L19.761,8.119l3.495,3.495L9.741,25.129a.832.832,0,0,1-.273.191.8.8,0,0,1-.3.055ZM20.334,11.04l-.6-.6,1.2,1.2Z" transform="translate(-11168 -14536.374)" fill="#174fa3"/>
    </g>
  </g>
</svg>
