<svg width="55" height="56" viewBox="0 0 55 56" fill="none" xmlns="http://www.w3.org/2000/svg">
<rect y="0.5" width="55" height="55" rx="27.5" fill="#FFF2CF"/>
<path d="M17.5 41.3334C16.9667 41.3334 16.5 41.1334 16.1 40.7334C15.7 40.3334 15.5 39.8667 15.5 39.3334V18.6667C15.5 18.1334 15.7 17.6667 16.1 17.2667C16.5 16.8667 16.9667 16.6667 17.5 16.6667H19.6667V14.6667H21.8333V16.6667H33.1667V14.6667H35.3333V16.6667H37.5C38.0333 16.6667 38.5 16.8667 38.9 17.2667C39.3 17.6667 39.5 18.1334 39.5 18.6667V39.3334C39.5 39.8667 39.3 40.3334 38.9 40.7334C38.5 41.1334 38.0333 41.3334 37.5 41.3334H17.5ZM17.5 39.3334H37.5V25.0001H17.5V39.3334ZM17.5 23.0001H37.5V18.6667H17.5V23.0001ZM27.5 30.6667C27.1222 30.6667 26.8056 30.539 26.55 30.2834C26.2944 30.0279 26.1667 29.7112 26.1667 29.3334C26.1667 28.9556 26.2944 28.639 26.55 28.3834C26.8056 28.1279 27.1222 28.0001 27.5 28.0001C27.8778 28.0001 28.1944 28.1279 28.45 28.3834C28.7056 28.639 28.8333 28.9556 28.8333 29.3334C28.8333 29.7112 28.7056 30.0279 28.45 30.2834C28.1944 30.539 27.8778 30.6667 27.5 30.6667ZM22.1667 30.6667C21.7889 30.6667 21.4722 30.539 21.2167 30.2834C20.9611 30.0279 20.8333 29.7112 20.8333 29.3334C20.8333 28.9556 20.9611 28.639 21.2167 28.3834C21.4722 28.1279 21.7889 28.0001 22.1667 28.0001C22.5444 28.0001 22.8611 28.1279 23.1167 28.3834C23.3722 28.639 23.5 28.9556 23.5 29.3334C23.5 29.7112 23.3722 30.0279 23.1167 30.2834C22.8611 30.539 22.5444 30.6667 22.1667 30.6667ZM32.8333 30.6667C32.4556 30.6667 32.1389 30.539 31.8833 30.2834C31.6278 30.0279 31.5 29.7112 31.5 29.3334C31.5 28.9556 31.6278 28.639 31.8833 28.3834C32.1389 28.1279 32.4556 28.0001 32.8333 28.0001C33.2111 28.0001 33.5278 28.1279 33.7833 28.3834C34.0389 28.639 34.1667 28.9556 34.1667 29.3334C34.1667 29.7112 34.0389 30.0279 33.7833 30.2834C33.5278 30.539 33.2111 30.6667 32.8333 30.6667ZM27.5 36.0001C27.1222 36.0001 26.8056 35.8723 26.55 35.6167C26.2944 35.3612 26.1667 35.0445 26.1667 34.6667C26.1667 34.289 26.2944 33.9723 26.55 33.7167C26.8056 33.4612 27.1222 33.3334 27.5 33.3334C27.8778 33.3334 28.1944 33.4612 28.45 33.7167C28.7056 33.9723 28.8333 34.289 28.8333 34.6667C28.8333 35.0445 28.7056 35.3612 28.45 35.6167C28.1944 35.8723 27.8778 36.0001 27.5 36.0001ZM22.1667 36.0001C21.7889 36.0001 21.4722 35.8723 21.2167 35.6167C20.9611 35.3612 20.8333 35.0445 20.8333 34.6667C20.8333 34.289 20.9611 33.9723 21.2167 33.7167C21.4722 33.4612 21.7889 33.3334 22.1667 33.3334C22.5444 33.3334 22.8611 33.4612 23.1167 33.7167C23.3722 33.9723 23.5 34.289 23.5 34.6667C23.5 35.0445 23.3722 35.3612 23.1167 35.6167C22.8611 35.8723 22.5444 36.0001 22.1667 36.0001ZM32.8333 36.0001C32.4556 36.0001 32.1389 35.8723 31.8833 35.6167C31.6278 35.3612 31.5 35.0445 31.5 34.6667C31.5 34.289 31.6278 33.9723 31.8833 33.7167C32.1389 33.4612 32.4556 33.3334 32.8333 33.3334C33.2111 33.3334 33.5278 33.4612 33.7833 33.7167C34.0389 33.9723 34.1667 34.289 34.1667 34.6667C34.1667 35.0445 34.0389 35.3612 33.7833 35.6167C33.5278 35.8723 33.2111 36.0001 32.8333 36.0001Z" fill="#F2A100"/>
</svg>
