<svg width="256" height="56" viewBox="0 0 256 56" fill="none" xmlns="http://www.w3.org/2000/svg">
<rect y="1" width="55" height="55" rx="27.5" fill="#D2E4FF"/>
<path d="M27.5 41.8333C25.6555 41.8333 23.9222 41.4833 22.3 40.7833C20.6777 40.0833 19.2666 39.1333 18.0666 37.9333C16.8666 36.7333 15.9166 35.3222 15.2166 33.7C14.5166 32.0777 14.1666 30.3444 14.1666 28.5C14.1666 26.6555 14.5166 24.9222 15.2166 23.3C15.9166 21.6777 16.8666 20.2666 18.0666 19.0666C19.2666 17.8666 20.6777 16.9166 22.3 16.2166C23.9222 15.5166 25.6555 15.1666 27.5 15.1666C29.3444 15.1666 31.0777 15.5166 32.7 16.2166C34.3222 16.9166 35.7333 17.8666 36.9333 19.0666C38.1333 20.2666 39.0833 21.6777 39.7833 23.3C40.4833 24.9222 40.8333 26.6555 40.8333 28.5C40.8333 30.3444 40.4833 32.0777 39.7833 33.7C39.0833 35.3222 38.1333 36.7333 36.9333 37.9333C35.7333 39.1333 34.3222 40.0833 32.7 40.7833C31.0777 41.4833 29.3444 41.8333 27.5 41.8333ZM27.5 39.8333C29.0111 39.8333 30.4624 39.5466 31.854 38.9731C33.2455 38.3996 34.4719 37.5752 35.5333 36.5L27.5 28.5V17.1666C24.3444 17.1666 21.6666 18.2645 19.4666 20.4604C17.2666 22.6562 16.1666 25.3361 16.1666 28.5C16.1666 31.6638 17.2645 34.3437 19.4604 36.5396C21.6562 38.7354 24.3361 39.8333 27.5 39.8333Z" fill="#5095FD"/>
<path d="M68.54 15.5C68.4467 15.5 68.3673 15.472 68.302 15.416C68.246 15.3507 68.218 15.2713 68.218 15.178V6.036C68.218 5.93333 68.246 5.854 68.302 5.798C68.3673 5.73267 68.4467 5.7 68.54 5.7H71.956C73.0293 5.7 73.8693 5.952 74.476 6.456C75.0827 6.96 75.386 7.688 75.386 8.64C75.386 9.34933 75.2087 9.93267 74.854 10.39C74.5087 10.8473 74.0187 11.1647 73.384 11.342L75.54 15.066C75.568 15.122 75.582 15.1733 75.582 15.22C75.582 15.2947 75.5493 15.36 75.484 15.416C75.428 15.472 75.3627 15.5 75.288 15.5H74.616C74.476 15.5 74.364 15.4673 74.28 15.402C74.2053 15.3367 74.1353 15.2433 74.07 15.122L72.04 11.566H69.59V15.178C69.59 15.2713 69.5573 15.3507 69.492 15.416C69.4267 15.472 69.3473 15.5 69.254 15.5H68.54ZM71.9 10.376C73.2907 10.376 73.986 9.79267 73.986 8.626C73.986 7.45933 73.2907 6.876 71.9 6.876H69.59V10.376H71.9ZM80.0398 15.64C79.0785 15.64 78.3085 15.346 77.7298 14.758C77.1605 14.1607 76.8478 13.3487 76.7918 12.322L76.7778 11.846L76.7918 11.384C76.8571 10.376 77.1745 9.57333 77.7438 8.976C78.3225 8.37867 79.0831 8.08 80.0258 8.08C81.0618 8.08 81.8645 8.41133 82.4338 9.074C83.0031 9.72733 83.2878 10.614 83.2878 11.734V11.972C83.2878 12.0653 83.2551 12.1447 83.1898 12.21C83.1338 12.266 83.0591 12.294 82.9658 12.294H78.1218V12.42C78.1498 13.0267 78.3318 13.5447 78.6678 13.974C79.0131 14.394 79.4658 14.604 80.0258 14.604C80.4551 14.604 80.8051 14.52 81.0758 14.352C81.3558 14.1747 81.5611 13.9927 81.6918 13.806C81.7758 13.694 81.8365 13.6287 81.8738 13.61C81.9205 13.582 81.9998 13.568 82.1118 13.568H82.7978C82.8818 13.568 82.9518 13.5913 83.0078 13.638C83.0638 13.6847 83.0918 13.75 83.0918 13.834C83.0918 14.0393 82.9611 14.2867 82.6998 14.576C82.4478 14.8653 82.0885 15.1173 81.6218 15.332C81.1645 15.5373 80.6371 15.64 80.0398 15.64ZM81.9578 11.328V11.286C81.9578 10.642 81.7805 10.1193 81.4258 9.718C81.0805 9.30733 80.6138 9.102 80.0258 9.102C79.4378 9.102 78.9711 9.30733 78.6258 9.718C78.2898 10.1193 78.1218 10.642 78.1218 11.286V11.328H81.9578ZM85.2838 15.5C85.1904 15.5 85.1111 15.472 85.0458 15.416C84.9898 15.3507 84.9618 15.2713 84.9618 15.178V8.542C84.9618 8.44867 84.9898 8.374 85.0458 8.318C85.1111 8.25267 85.1904 8.22 85.2838 8.22H85.9138C86.0071 8.22 86.0818 8.25267 86.1378 8.318C86.2031 8.374 86.2358 8.44867 86.2358 8.542V9.032C86.7211 8.39733 87.3978 8.08 88.2658 8.08C89.3018 8.08 90.0344 8.50933 90.4638 9.368C90.6878 8.976 91.0051 8.66333 91.4158 8.43C91.8264 8.19667 92.2884 8.08 92.8018 8.08C93.5671 8.08 94.1924 8.34133 94.6778 8.864C95.1631 9.38667 95.4058 10.1427 95.4058 11.132V15.178C95.4058 15.2713 95.3731 15.3507 95.3078 15.416C95.2518 15.472 95.1771 15.5 95.0838 15.5H94.4258C94.3324 15.5 94.2531 15.472 94.1878 15.416C94.1318 15.3507 94.1038 15.2713 94.1038 15.178V11.258C94.1038 10.53 93.9498 10.0073 93.6418 9.69C93.3431 9.37267 92.9464 9.214 92.4518 9.214C92.0131 9.214 91.6351 9.37733 91.3178 9.704C91.0004 10.0213 90.8418 10.5393 90.8418 11.258V15.178C90.8418 15.2713 90.8091 15.3507 90.7438 15.416C90.6878 15.472 90.6131 15.5 90.5198 15.5H89.8618C89.7684 15.5 89.6891 15.472 89.6238 15.416C89.5678 15.3507 89.5398 15.2713 89.5398 15.178V11.258C89.5398 10.53 89.3811 10.0073 89.0638 9.69C88.7558 9.37267 88.3638 9.214 87.8878 9.214C87.4491 9.214 87.0711 9.37733 86.7538 9.704C86.4364 10.0213 86.2778 10.5347 86.2778 11.244V15.178C86.2778 15.2713 86.2451 15.3507 86.1798 15.416C86.1238 15.472 86.0491 15.5 85.9558 15.5H85.2838ZM97.6132 6.862C97.5199 6.862 97.4405 6.834 97.3752 6.778C97.3192 6.71267 97.2912 6.63333 97.2912 6.54V5.784C97.2912 5.69067 97.3192 5.61133 97.3752 5.546C97.4405 5.48067 97.5199 5.448 97.6132 5.448H98.4952C98.5885 5.448 98.6679 5.48067 98.7332 5.546C98.7985 5.61133 98.8312 5.69067 98.8312 5.784V6.54C98.8312 6.63333 98.7985 6.71267 98.7332 6.778C98.6679 6.834 98.5885 6.862 98.4952 6.862H97.6132ZM97.7252 15.5C97.6319 15.5 97.5525 15.472 97.4872 15.416C97.4312 15.3507 97.4032 15.2713 97.4032 15.178V8.542C97.4032 8.44867 97.4312 8.374 97.4872 8.318C97.5525 8.25267 97.6319 8.22 97.7252 8.22H98.3972C98.4905 8.22 98.5652 8.25267 98.6212 8.318C98.6865 8.374 98.7192 8.44867 98.7192 8.542V15.178C98.7192 15.2713 98.6865 15.3507 98.6212 15.416C98.5652 15.472 98.4905 15.5 98.3972 15.5H97.7252ZM101.116 15.5C101.022 15.5 100.943 15.472 100.878 15.416C100.822 15.3507 100.794 15.2713 100.794 15.178V8.542C100.794 8.44867 100.822 8.374 100.878 8.318C100.943 8.25267 101.022 8.22 101.116 8.22H101.774C101.867 8.22 101.942 8.25267 101.998 8.318C102.063 8.374 102.096 8.44867 102.096 8.542V9.158C102.366 8.81267 102.684 8.54667 103.048 8.36C103.421 8.17333 103.883 8.08 104.434 8.08C105.33 8.08 106.025 8.36933 106.52 8.948C107.024 9.51733 107.276 10.278 107.276 11.23V15.178C107.276 15.2713 107.243 15.3507 107.178 15.416C107.122 15.472 107.047 15.5 106.954 15.5H106.254C106.16 15.5 106.081 15.472 106.016 15.416C105.96 15.3507 105.932 15.2713 105.932 15.178V11.3C105.932 10.6373 105.768 10.124 105.442 9.76C105.124 9.396 104.662 9.214 104.056 9.214C103.468 9.214 103.001 9.40067 102.656 9.774C102.31 10.138 102.138 10.6467 102.138 11.3V15.178C102.138 15.2713 102.105 15.3507 102.04 15.416C101.984 15.472 101.909 15.5 101.816 15.5H101.116ZM111.944 15.64C110.973 15.64 110.241 15.3227 109.746 14.688C109.251 14.0533 108.99 13.2507 108.962 12.28L108.948 11.86L108.962 11.44C108.99 10.4787 109.251 9.68067 109.746 9.046C110.241 8.402 110.973 8.08 111.944 8.08C112.905 8.08 113.661 8.42067 114.212 9.102V5.882C114.212 5.78867 114.24 5.714 114.296 5.658C114.361 5.59267 114.441 5.56 114.534 5.56H115.206C115.299 5.56 115.374 5.59267 115.43 5.658C115.495 5.714 115.528 5.78867 115.528 5.882V15.178C115.528 15.2713 115.495 15.3507 115.43 15.416C115.374 15.472 115.299 15.5 115.206 15.5H114.576C114.483 15.5 114.403 15.472 114.338 15.416C114.282 15.3507 114.254 15.2713 114.254 15.178V14.59C113.713 15.29 112.943 15.64 111.944 15.64ZM112.238 14.506C112.882 14.506 113.363 14.296 113.68 13.876C114.007 13.4467 114.184 12.938 114.212 12.35C114.221 12.2473 114.226 12.07 114.226 11.818C114.226 11.5567 114.221 11.3747 114.212 11.272C114.193 10.7213 114.016 10.2407 113.68 9.83C113.344 9.41933 112.863 9.214 112.238 9.214C111.575 9.214 111.09 9.41933 110.782 9.83C110.483 10.2407 110.32 10.782 110.292 11.454L110.278 11.86C110.278 13.624 110.931 14.506 112.238 14.506ZM120.522 15.64C119.561 15.64 118.791 15.346 118.212 14.758C117.643 14.1607 117.33 13.3487 117.274 12.322L117.26 11.846L117.274 11.384C117.34 10.376 117.657 9.57333 118.226 8.976C118.805 8.37867 119.566 8.08 120.508 8.08C121.544 8.08 122.347 8.41133 122.916 9.074C123.486 9.72733 123.77 10.614 123.77 11.734V11.972C123.77 12.0653 123.738 12.1447 123.672 12.21C123.616 12.266 123.542 12.294 123.448 12.294H118.604V12.42C118.632 13.0267 118.814 13.5447 119.15 13.974C119.496 14.394 119.948 14.604 120.508 14.604C120.938 14.604 121.288 14.52 121.558 14.352C121.838 14.1747 122.044 13.9927 122.174 13.806C122.258 13.694 122.319 13.6287 122.356 13.61C122.403 13.582 122.482 13.568 122.594 13.568H123.28C123.364 13.568 123.434 13.5913 123.49 13.638C123.546 13.6847 123.574 13.75 123.574 13.834C123.574 14.0393 123.444 14.2867 123.182 14.576C122.93 14.8653 122.571 15.1173 122.104 15.332C121.647 15.5373 121.12 15.64 120.522 15.64ZM122.44 11.328V11.286C122.44 10.642 122.263 10.1193 121.908 9.718C121.563 9.30733 121.096 9.102 120.508 9.102C119.92 9.102 119.454 9.30733 119.108 9.718C118.772 10.1193 118.604 10.642 118.604 11.286V11.328H122.44ZM125.766 15.5C125.673 15.5 125.594 15.472 125.528 15.416C125.472 15.3507 125.444 15.2713 125.444 15.178V8.556C125.444 8.46267 125.472 8.38333 125.528 8.318C125.594 8.25267 125.673 8.22 125.766 8.22H126.41C126.504 8.22 126.583 8.25267 126.648 8.318C126.714 8.38333 126.746 8.46267 126.746 8.556V9.172C127.129 8.53733 127.782 8.22 128.706 8.22H129.252C129.346 8.22 129.42 8.25267 129.476 8.318C129.542 8.374 129.574 8.44867 129.574 8.542V9.116C129.574 9.20933 129.542 9.284 129.476 9.34C129.42 9.396 129.346 9.424 129.252 9.424H128.412C127.908 9.424 127.512 9.57333 127.222 9.872C126.933 10.1613 126.788 10.558 126.788 11.062V15.178C126.788 15.2713 126.756 15.3507 126.69 15.416C126.625 15.472 126.546 15.5 126.452 15.5H125.766ZM134.656 15.5C134.563 15.5 134.484 15.472 134.418 15.416C134.362 15.3507 134.334 15.2713 134.334 15.178V9.34H133.144C133.051 9.34 132.972 9.312 132.906 9.256C132.85 9.19067 132.822 9.11133 132.822 9.018V8.542C132.822 8.44867 132.85 8.374 132.906 8.318C132.972 8.25267 133.051 8.22 133.144 8.22H134.334V7.52C134.334 5.93333 135.137 5.14 136.742 5.14H137.582C137.676 5.14 137.75 5.17267 137.806 5.238C137.872 5.294 137.904 5.36867 137.904 5.462V5.938C137.904 6.03133 137.872 6.11067 137.806 6.176C137.75 6.232 137.676 6.26 137.582 6.26H136.77C136.35 6.26 136.056 6.372 135.888 6.596C135.72 6.81067 135.636 7.142 135.636 7.59V8.22H137.442C137.536 8.22 137.61 8.25267 137.666 8.318C137.732 8.374 137.764 8.44867 137.764 8.542V9.018C137.764 9.11133 137.732 9.19067 137.666 9.256C137.61 9.312 137.536 9.34 137.442 9.34H135.636V15.178C135.636 15.2713 135.604 15.3507 135.538 15.416C135.482 15.472 135.408 15.5 135.314 15.5H134.656ZM141.838 15.64C140.812 15.64 140.014 15.3507 139.444 14.772C138.884 14.1933 138.586 13.4233 138.548 12.462L138.534 11.86L138.548 11.258C138.586 10.306 138.889 9.54067 139.458 8.962C140.028 8.374 140.821 8.08 141.838 8.08C142.856 8.08 143.649 8.374 144.218 8.962C144.788 9.54067 145.091 10.306 145.128 11.258C145.138 11.3607 145.142 11.5613 145.142 11.86C145.142 12.1587 145.138 12.3593 145.128 12.462C145.091 13.4233 144.788 14.1933 144.218 14.772C143.658 15.3507 142.865 15.64 141.838 15.64ZM141.838 14.562C142.426 14.562 142.888 14.3753 143.224 14.002C143.57 13.6287 143.756 13.092 143.784 12.392C143.794 12.2987 143.798 12.1213 143.798 11.86C143.798 11.5987 143.794 11.4213 143.784 11.328C143.756 10.628 143.57 10.0913 143.224 9.718C142.888 9.34467 142.426 9.158 141.838 9.158C141.25 9.158 140.784 9.34467 140.438 9.718C140.093 10.0913 139.911 10.628 139.892 11.328L139.878 11.86L139.892 12.392C139.911 13.092 140.093 13.6287 140.438 14.002C140.784 14.3753 141.25 14.562 141.838 14.562ZM147.217 15.5C147.124 15.5 147.045 15.472 146.979 15.416C146.923 15.3507 146.895 15.2713 146.895 15.178V8.556C146.895 8.46267 146.923 8.38333 146.979 8.318C147.045 8.25267 147.124 8.22 147.217 8.22H147.861C147.955 8.22 148.034 8.25267 148.099 8.318C148.165 8.38333 148.197 8.46267 148.197 8.556V9.172C148.58 8.53733 149.233 8.22 150.157 8.22H150.703C150.797 8.22 150.871 8.25267 150.927 8.318C150.993 8.374 151.025 8.44867 151.025 8.542V9.116C151.025 9.20933 150.993 9.284 150.927 9.34C150.871 9.396 150.797 9.424 150.703 9.424H149.863C149.359 9.424 148.963 9.57333 148.673 9.872C148.384 10.1613 148.239 10.558 148.239 11.062V15.178C148.239 15.2713 148.207 15.3507 148.141 15.416C148.076 15.472 147.997 15.5 147.903 15.5H147.217ZM156.921 15.5C156.8 15.5 156.706 15.472 156.641 15.416C156.576 15.36 156.52 15.2713 156.473 15.15L154.485 8.654L154.457 8.514C154.457 8.43 154.485 8.36 154.541 8.304C154.606 8.248 154.676 8.22 154.751 8.22H155.367C155.46 8.22 155.535 8.248 155.591 8.304C155.656 8.35067 155.698 8.402 155.717 8.458L157.271 13.736L158.937 8.514C158.956 8.43933 158.998 8.374 159.063 8.318C159.128 8.25267 159.217 8.22 159.329 8.22H159.805C159.917 8.22 160.006 8.25267 160.071 8.318C160.136 8.374 160.178 8.43933 160.197 8.514L161.863 13.736L163.417 8.458C163.426 8.41133 163.459 8.36 163.515 8.304C163.58 8.248 163.66 8.22 163.753 8.22H164.383C164.458 8.22 164.523 8.248 164.579 8.304C164.635 8.36 164.663 8.43 164.663 8.514L164.635 8.654L162.661 15.15C162.614 15.2713 162.558 15.36 162.493 15.416C162.428 15.472 162.33 15.5 162.199 15.5H161.653C161.401 15.5 161.247 15.3833 161.191 15.15L159.567 10.138L157.943 15.15C157.868 15.3833 157.71 15.5 157.467 15.5H156.921ZM168.934 15.64C167.973 15.64 167.203 15.346 166.624 14.758C166.055 14.1607 165.742 13.3487 165.686 12.322L165.672 11.846L165.686 11.384C165.752 10.376 166.069 9.57333 166.638 8.976C167.217 8.37867 167.978 8.08 168.92 8.08C169.956 8.08 170.759 8.41133 171.328 9.074C171.898 9.72733 172.182 10.614 172.182 11.734V11.972C172.182 12.0653 172.15 12.1447 172.084 12.21C172.028 12.266 171.954 12.294 171.86 12.294H167.016V12.42C167.044 13.0267 167.226 13.5447 167.562 13.974C167.908 14.394 168.36 14.604 168.92 14.604C169.35 14.604 169.7 14.52 169.97 14.352C170.25 14.1747 170.456 13.9927 170.586 13.806C170.67 13.694 170.731 13.6287 170.768 13.61C170.815 13.582 170.894 13.568 171.006 13.568H171.692C171.776 13.568 171.846 13.5913 171.902 13.638C171.958 13.6847 171.986 13.75 171.986 13.834C171.986 14.0393 171.856 14.2867 171.594 14.576C171.342 14.8653 170.983 15.1173 170.516 15.332C170.059 15.5373 169.532 15.64 168.934 15.64ZM170.852 11.328V11.286C170.852 10.642 170.675 10.1193 170.32 9.718C169.975 9.30733 169.508 9.102 168.92 9.102C168.332 9.102 167.866 9.30733 167.52 9.718C167.184 10.1193 167.016 10.642 167.016 11.286V11.328H170.852ZM176.768 15.64C175.807 15.64 175.037 15.346 174.458 14.758C173.889 14.1607 173.576 13.3487 173.52 12.322L173.506 11.846L173.52 11.384C173.586 10.376 173.903 9.57333 174.472 8.976C175.051 8.37867 175.812 8.08 176.754 8.08C177.79 8.08 178.593 8.41133 179.162 9.074C179.732 9.72733 180.016 10.614 180.016 11.734V11.972C180.016 12.0653 179.984 12.1447 179.918 12.21C179.862 12.266 179.788 12.294 179.694 12.294H174.85V12.42C174.878 13.0267 175.06 13.5447 175.396 13.974C175.742 14.394 176.194 14.604 176.754 14.604C177.184 14.604 177.534 14.52 177.804 14.352C178.084 14.1747 178.29 13.9927 178.42 13.806C178.504 13.694 178.565 13.6287 178.602 13.61C178.649 13.582 178.728 13.568 178.84 13.568H179.526C179.61 13.568 179.68 13.5913 179.736 13.638C179.792 13.6847 179.82 13.75 179.82 13.834C179.82 14.0393 179.69 14.2867 179.428 14.576C179.176 14.8653 178.817 15.1173 178.35 15.332C177.893 15.5373 177.366 15.64 176.768 15.64ZM178.686 11.328V11.286C178.686 10.642 178.509 10.1193 178.154 9.718C177.809 9.30733 177.342 9.102 176.754 9.102C176.166 9.102 175.7 9.30733 175.354 9.718C175.018 10.1193 174.85 10.642 174.85 11.286V11.328H178.686ZM182.026 15.5C181.933 15.5 181.854 15.472 181.788 15.416C181.732 15.3507 181.704 15.2713 181.704 15.178V5.882C181.704 5.78867 181.732 5.714 181.788 5.658C181.854 5.59267 181.933 5.56 182.026 5.56H182.684C182.778 5.56 182.852 5.59267 182.908 5.658C182.974 5.714 183.006 5.78867 183.006 5.882V10.754L185.764 8.458C185.792 8.43933 185.839 8.402 185.904 8.346C185.97 8.29933 186.03 8.26667 186.086 8.248C186.152 8.22933 186.231 8.22 186.324 8.22H187.066C187.15 8.22 187.22 8.248 187.276 8.304C187.332 8.36 187.36 8.43 187.36 8.514C187.36 8.61667 187.304 8.70533 187.192 8.78L183.958 11.468L187.542 14.954C187.654 15.0473 187.71 15.1313 187.71 15.206C187.71 15.29 187.682 15.36 187.626 15.416C187.57 15.472 187.5 15.5 187.416 15.5H186.688C186.548 15.5 186.446 15.486 186.38 15.458C186.324 15.43 186.24 15.3647 186.128 15.262L183.006 12.28V15.178C183.006 15.2713 182.974 15.3507 182.908 15.416C182.852 15.472 182.778 15.5 182.684 15.5H182.026ZM189.245 15.5C189.152 15.5 189.072 15.472 189.007 15.416C188.951 15.3507 188.923 15.2713 188.923 15.178V5.882C188.923 5.78867 188.951 5.714 189.007 5.658C189.072 5.59267 189.152 5.56 189.245 5.56H189.903C189.996 5.56 190.071 5.59267 190.127 5.658C190.192 5.714 190.225 5.78867 190.225 5.882V15.178C190.225 15.2713 190.192 15.3507 190.127 15.416C190.071 15.472 189.996 15.5 189.903 15.5H189.245ZM193.587 18.16C193.513 18.16 193.447 18.132 193.391 18.076C193.335 18.02 193.307 17.9547 193.307 17.88C193.307 17.8147 193.331 17.7307 193.377 17.628L194.455 15.066L191.781 8.752C191.735 8.63067 191.711 8.55133 191.711 8.514C191.711 8.43 191.739 8.36 191.795 8.304C191.851 8.248 191.921 8.22 192.005 8.22H192.691C192.841 8.22 192.953 8.29933 193.027 8.458L195.155 13.554L197.339 8.458C197.414 8.29933 197.531 8.22 197.689 8.22H198.347C198.431 8.22 198.501 8.248 198.557 8.304C198.613 8.36 198.641 8.42533 198.641 8.5C198.641 8.528 198.618 8.612 198.571 8.752L194.595 17.922C194.521 18.0807 194.404 18.16 194.245 18.16H193.587ZM204.716 15.5C204.473 15.5 204.328 15.374 204.282 15.122L202.476 6.134C202.466 6.08733 202.462 6.036 202.462 5.98C202.462 5.90533 202.49 5.84 202.546 5.784C202.602 5.728 202.667 5.7 202.742 5.7H203.47C203.666 5.7 203.778 5.77933 203.806 5.938L205.234 13.162L206.746 8.206C206.83 7.982 206.979 7.87 207.194 7.87H207.712C207.833 7.87 207.926 7.90267 207.992 7.968C208.066 8.03333 208.118 8.11267 208.146 8.206L209.672 13.162L211.086 5.938C211.114 5.77933 211.23 5.7 211.436 5.7H212.164C212.238 5.7 212.304 5.728 212.36 5.784C212.416 5.84 212.444 5.90533 212.444 5.98L212.43 6.134L210.624 15.122C210.568 15.374 210.423 15.5 210.19 15.5H209.644C209.401 15.5 209.247 15.3833 209.182 15.15L207.446 9.816L205.724 15.15C205.649 15.3833 205.495 15.5 205.262 15.5H204.716ZM213.234 15.5C213.159 15.5 213.094 15.472 213.038 15.416C212.982 15.36 212.954 15.2947 212.954 15.22C212.954 15.1453 212.958 15.094 212.968 15.066L216.44 6.008C216.514 5.80267 216.664 5.7 216.888 5.7H217.84C218.064 5.7 218.213 5.80267 218.288 6.008L221.746 15.066L221.774 15.22C221.774 15.2947 221.746 15.36 221.69 15.416C221.634 15.472 221.568 15.5 221.494 15.5H220.78C220.677 15.5 220.598 15.4767 220.542 15.43C220.486 15.374 220.448 15.318 220.43 15.262L219.66 13.274H215.068L214.298 15.262C214.279 15.318 214.237 15.374 214.172 15.43C214.116 15.4767 214.041 15.5 213.948 15.5H213.234ZM219.254 12.07L217.364 7.1L215.474 12.07H219.254ZM223.593 15.5C223.499 15.5 223.42 15.472 223.355 15.416C223.299 15.3507 223.271 15.2713 223.271 15.178V6.036C223.271 5.93333 223.299 5.854 223.355 5.798C223.42 5.73267 223.499 5.7 223.593 5.7H227.009C228.082 5.7 228.922 5.952 229.529 6.456C230.135 6.96 230.439 7.688 230.439 8.64C230.439 9.34933 230.261 9.93267 229.907 10.39C229.561 10.8473 229.071 11.1647 228.437 11.342L230.593 15.066C230.621 15.122 230.635 15.1733 230.635 15.22C230.635 15.2947 230.602 15.36 230.537 15.416C230.481 15.472 230.415 15.5 230.341 15.5H229.669C229.529 15.5 229.417 15.4673 229.333 15.402C229.258 15.3367 229.188 15.2433 229.123 15.122L227.093 11.566H224.643V15.178C224.643 15.2713 224.61 15.3507 224.545 15.416C224.479 15.472 224.4 15.5 224.307 15.5H223.593ZM226.953 10.376C228.343 10.376 229.039 9.79267 229.039 8.626C229.039 7.45933 228.343 6.876 226.953 6.876H224.643V10.376H226.953ZM70.976 32.64C69.9773 32.64 69.1933 32.36 68.624 31.8C68.064 31.2307 67.7653 30.4373 67.728 29.42L67.714 28.86L67.728 28.3C67.7653 27.2827 68.064 26.494 68.624 25.934C69.1933 25.3647 69.9773 25.08 70.976 25.08C71.648 25.08 72.2173 25.2013 72.684 25.444C73.1507 25.6867 73.496 25.9853 73.72 26.34C73.9533 26.6947 74.0793 27.0493 74.098 27.404C74.1073 27.4973 74.0793 27.572 74.014 27.628C73.9487 27.684 73.8693 27.712 73.776 27.712H73.104C73.0107 27.712 72.9407 27.6933 72.894 27.656C72.8473 27.6187 72.8007 27.544 72.754 27.432C72.5953 26.984 72.3713 26.6667 72.082 26.48C71.7927 26.284 71.4287 26.186 70.99 26.186C70.4113 26.186 69.9493 26.368 69.604 26.732C69.268 27.0867 69.086 27.6327 69.058 28.37L69.044 28.874L69.058 29.35C69.086 30.0967 69.268 30.6473 69.604 31.002C69.94 31.3567 70.402 31.534 70.99 31.534C71.4287 31.534 71.7927 31.4407 72.082 31.254C72.3713 31.058 72.5953 30.736 72.754 30.288C72.8007 30.176 72.8473 30.1013 72.894 30.064C72.9407 30.0173 73.0107 29.994 73.104 29.994H73.776C73.8693 29.994 73.9487 30.0267 74.014 30.092C74.0793 30.148 74.1073 30.2227 74.098 30.316C74.0793 30.6613 73.9533 31.016 73.72 31.38C73.496 31.7347 73.1507 32.0333 72.684 32.276C72.2267 32.5187 71.6573 32.64 70.976 32.64ZM76.0966 32.5C76.0033 32.5 75.9239 32.472 75.8586 32.416C75.8026 32.3507 75.7746 32.2713 75.7746 32.178V22.882C75.7746 22.7887 75.8026 22.714 75.8586 22.658C75.9239 22.5927 76.0033 22.56 76.0966 22.56H76.7966C76.8899 22.56 76.9646 22.5927 77.0206 22.658C77.0859 22.714 77.1186 22.7887 77.1186 22.882V26.144C77.3893 25.7987 77.7066 25.5373 78.0706 25.36C78.4346 25.1733 78.8873 25.08 79.4286 25.08C80.3246 25.08 81.0199 25.3693 81.5146 25.948C82.0186 26.5173 82.2706 27.278 82.2706 28.23V32.178C82.2706 32.2713 82.2379 32.3507 82.1726 32.416C82.1166 32.472 82.0419 32.5 81.9486 32.5H81.2486C81.1553 32.5 81.0759 32.472 81.0106 32.416C80.9546 32.3507 80.9266 32.2713 80.9266 32.178V28.3C80.9266 27.6373 80.7633 27.124 80.4366 26.76C80.1193 26.396 79.6573 26.214 79.0506 26.214C78.4626 26.214 77.9913 26.4007 77.6366 26.774C77.2913 27.138 77.1186 27.6467 77.1186 28.3V32.178C77.1186 32.2713 77.0859 32.3507 77.0206 32.416C76.9646 32.472 76.8899 32.5 76.7966 32.5H76.0966ZM87.2039 32.64C86.2425 32.64 85.4725 32.346 84.8939 31.758C84.3245 31.1607 84.0119 30.3487 83.9559 29.322L83.9419 28.846L83.9559 28.384C84.0212 27.376 84.3385 26.5733 84.9079 25.976C85.4865 25.3787 86.2472 25.08 87.1899 25.08C88.2259 25.08 89.0285 25.4113 89.5979 26.074C90.1672 26.7273 90.4519 27.614 90.4519 28.734V28.972C90.4519 29.0653 90.4192 29.1447 90.3539 29.21C90.2979 29.266 90.2232 29.294 90.1299 29.294H85.2859V29.42C85.3139 30.0267 85.4959 30.5447 85.8319 30.974C86.1772 31.394 86.6299 31.604 87.1899 31.604C87.6192 31.604 87.9692 31.52 88.2399 31.352C88.5199 31.1747 88.7252 30.9927 88.8559 30.806C88.9399 30.694 89.0005 30.6287 89.0379 30.61C89.0845 30.582 89.1639 30.568 89.2759 30.568H89.9619C90.0459 30.568 90.1159 30.5913 90.1719 30.638C90.2279 30.6847 90.2559 30.75 90.2559 30.834C90.2559 31.0393 90.1252 31.2867 89.8639 31.576C89.6119 31.8653 89.2525 32.1173 88.7859 32.332C88.3285 32.5373 87.8012 32.64 87.2039 32.64ZM89.1219 28.328V28.286C89.1219 27.642 88.9445 27.1193 88.5899 26.718C88.2445 26.3073 87.7779 26.102 87.1899 26.102C86.6019 26.102 86.1352 26.3073 85.7899 26.718C85.4539 27.1193 85.2859 27.642 85.2859 28.286V28.328H89.1219ZM95.0658 32.64C94.0672 32.64 93.2832 32.36 92.7138 31.8C92.1538 31.2307 91.8552 30.4373 91.8178 29.42L91.8038 28.86L91.8178 28.3C91.8552 27.2827 92.1538 26.494 92.7138 25.934C93.2832 25.3647 94.0672 25.08 95.0658 25.08C95.7378 25.08 96.3072 25.2013 96.7738 25.444C97.2405 25.6867 97.5858 25.9853 97.8098 26.34C98.0432 26.6947 98.1692 27.0493 98.1878 27.404C98.1972 27.4973 98.1692 27.572 98.1038 27.628C98.0385 27.684 97.9592 27.712 97.8658 27.712H97.1938C97.1005 27.712 97.0305 27.6933 96.9838 27.656C96.9372 27.6187 96.8905 27.544 96.8438 27.432C96.6852 26.984 96.4612 26.6667 96.1718 26.48C95.8825 26.284 95.5185 26.186 95.0798 26.186C94.5012 26.186 94.0392 26.368 93.6938 26.732C93.3578 27.0867 93.1758 27.6327 93.1478 28.37L93.1338 28.874L93.1478 29.35C93.1758 30.0967 93.3578 30.6473 93.6938 31.002C94.0298 31.3567 94.4918 31.534 95.0798 31.534C95.5185 31.534 95.8825 31.4407 96.1718 31.254C96.4612 31.058 96.6852 30.736 96.8438 30.288C96.8905 30.176 96.9372 30.1013 96.9838 30.064C97.0305 30.0173 97.1005 29.994 97.1938 29.994H97.8658C97.9592 29.994 98.0385 30.0267 98.1038 30.092C98.1692 30.148 98.1972 30.2227 98.1878 30.316C98.1692 30.6613 98.0432 31.016 97.8098 31.38C97.5858 31.7347 97.2405 32.0333 96.7738 32.276C96.3165 32.5187 95.7472 32.64 95.0658 32.64ZM100.186 32.5C100.093 32.5 100.014 32.472 99.9485 32.416C99.8925 32.3507 99.8645 32.2713 99.8645 32.178V22.882C99.8645 22.7887 99.8925 22.714 99.9485 22.658C100.014 22.5927 100.093 22.56 100.186 22.56H100.844C100.938 22.56 101.012 22.5927 101.068 22.658C101.134 22.714 101.166 22.7887 101.166 22.882V27.754L103.924 25.458C103.952 25.4393 103.999 25.402 104.064 25.346C104.13 25.2993 104.19 25.2667 104.246 25.248C104.312 25.2293 104.391 25.22 104.484 25.22H105.226C105.31 25.22 105.38 25.248 105.436 25.304C105.492 25.36 105.52 25.43 105.52 25.514C105.52 25.6167 105.464 25.7053 105.352 25.78L102.118 28.468L105.702 31.954C105.814 32.0473 105.87 32.1313 105.87 32.206C105.87 32.29 105.842 32.36 105.786 32.416C105.73 32.472 105.66 32.5 105.576 32.5H104.848C104.708 32.5 104.606 32.486 104.54 32.458C104.484 32.43 104.4 32.3647 104.288 32.262L101.166 29.28V32.178C101.166 32.2713 101.134 32.3507 101.068 32.416C101.012 32.472 100.938 32.5 100.844 32.5H100.186Z" fill="#484848"/>
</svg>
