<svg xmlns="http://www.w3.org/2000/svg" width="34" height="34" viewBox="0 0 34 34">
  <g id="Group_19701" data-name="Group 19701" transform="translate(-125 -335)">
    <rect id="Rectangle_11025" data-name="Rectangle 11025" width="34" height="34" transform="translate(125 335)" fill="#282828" opacity="0"/>
    <path id="person_add_FILL0_wght500_GRAD0_opsz48" d="M58.049,273.022V268.69H53.717v-2.119h4.332v-4.332h2.119v4.332H64.5v2.119H60.168v4.332H58.049Zm-12.566-2.576a5.045,5.045,0,1,1,3.79-1.47A5.122,5.122,0,0,1,45.483,270.446ZM34.5,281.674v-3.385a4.159,4.159,0,0,1,.623-2.241A3.844,3.844,0,0,1,36.9,274.54a26,26,0,0,1,4.529-1.579,18.064,18.064,0,0,1,8.092,0,25.872,25.872,0,0,1,4.514,1.579,4.134,4.134,0,0,1,1.8,1.515,4.008,4.008,0,0,1,.64,2.232v3.387Zm2.3-2.3H54.173v-1.057a1.888,1.888,0,0,0-.3-1.019,1.86,1.86,0,0,0-.81-.718,19.506,19.506,0,0,0-3.985-1.433,17.39,17.39,0,0,0-3.593-.346,17.609,17.609,0,0,0-3.6.346,19.323,19.323,0,0,0-4,1.432,1.754,1.754,0,0,0-.8.718,1.973,1.973,0,0,0-.286,1.019Zm8.688-11.228a2.868,2.868,0,1,0-2.122-.839A2.874,2.874,0,0,0,45.484,268.15ZM45.485,265.19ZM45.485,279.378Z" transform="translate(92.5 82.167)" fill="#282828"/>
  </g>
</svg>
