<svg xmlns="http://www.w3.org/2000/svg" width="34" height="34" viewBox="0 0 34 34">
  <g id="Group_19772" data-name="Group 19772" transform="translate(-125 -335)">
    <rect id="Rectangle_11025" data-name="Rectangle 11025" width="34" height="34" transform="translate(125 335)" fill="#282828" opacity="0"/>
    <path id="assignment_ind_FILL0_wght400_GRAD0_opsz48" d="M120,150V123.529h9.816a3.194,3.194,0,0,1,.956-2.445,3.34,3.34,0,0,1,4.926,0,3.194,3.194,0,0,1,.956,2.445h9.816V150Zm13.235-25.809a1.069,1.069,0,1,0-.79-.312A1.071,1.071,0,0,0,133.235,124.191Zm-11.029,22.243a18.472,18.472,0,0,1,5-3.327,14.974,14.974,0,0,1,12.063,0,18.453,18.453,0,0,1,5,3.327v-20.7H122.206Zm11.1-7.5a5.022,5.022,0,1,0-3.6-1.471A4.9,4.9,0,0,0,133.309,138.934Zm-9.081,8.86h18.015v-.331a14.461,14.461,0,0,0-4.265-2.555,13.449,13.449,0,0,0-9.485,0,14.461,14.461,0,0,0-4.265,2.555Zm9.081-11.066a2.856,2.856,0,1,1,2.031-.836A2.765,2.765,0,0,1,133.309,136.728ZM133.235,133.86Z" transform="translate(8.765 217)" fill="#282828"/>
  </g>
</svg>
