<svg id="Group_19700" data-name="Group 19700" xmlns="http://www.w3.org/2000/svg" width="34" height="34" viewBox="0 0 34 34">
  <rect id="Rectangle_11025" data-name="Rectangle 11025" width="34" height="34" fill="#282828" opacity="0"/>
  <path id="event_available_FILL0_wght400_GRAD0_opsz48" d="M122.245-850.06a2.154,2.154,0,0,1-1.572-.674,2.155,2.155,0,0,1-.674-1.572v-23.2a2.154,2.154,0,0,1,.674-1.572,2.154,2.154,0,0,1,1.572-.674h2.433V-878.8a1.159,1.159,0,0,1,.344-.853,1.159,1.159,0,0,1,.853-.344,1.215,1.215,0,0,1,.88.344,1.141,1.141,0,0,1,.355.853v1.048h12.724V-878.8a1.159,1.159,0,0,1,.344-.853,1.158,1.158,0,0,1,.853-.344,1.214,1.214,0,0,1,.88.344,1.141,1.141,0,0,1,.355.853v1.048H144.7a2.154,2.154,0,0,1,1.572.674,2.154,2.154,0,0,1,.674,1.572v23.2a2.155,2.155,0,0,1-.674,1.572,2.154,2.154,0,0,1-1.572.674Zm0-2.245H144.7V-868.4H122.245Zm0-18.338H144.7v-4.865H122.245Zm0,0v0Z" transform="translate(-116.971 882.03)" fill="#282828"/>
  <path id="checklist_rtl_FILL0_wght400_GRAD0_opsz48" d="M80,267.666v-1.142h6.85v1.142Zm0-6.089v-1.142h6.85v1.142Zm11.017,7.535-2.7-2.7.8-.8,1.9,1.884,3.406-3.406.8.818Zm0-6.089-2.7-2.7.8-.8,1.9,1.884L94.423,258l.8.818Z" transform="translate(-70.611 -242.556)" fill="#282828"/>
</svg>
