<svg id="Layer_1" enable-background="new 0 0 66 66" height="512" viewBox="0 0 66 66" width="512" xmlns="http://www.w3.org/2000/svg"><g><g><path d="m62.5.7h-59c-1.6 0-3 1.3-3 3v51.6c0 1.6 1.3 3 3 3h6.7v6c0 .6.4 1 1 1s1-.4 1-1v-8.3h13.7v8.3c0 .6.4 1 1 1s1-.4 1-1v-6h34.6c1.6 0 3-1.3 3-3v-51.6c0-1.6-1.3-3-3-3zm-50.3 53.3v-1.8c0-.4-.2-.7-.5-.9l-3.9-2.2v-5.1l2.4-1.4v2.4c0 .6.4 1 1 1s1-.4 1-1v-15.7-2.8c0-.4.4-1 1-1 .5 0 1 .4 1 1v2.8 10.1c0 .6.4 1 1 1 .3 0 .5-.1.7-.3s.3-.4.3-.7v-4.5c0-.5.4-1 1-1 .5 0 1 .4 1 1v4.5c0 .6.4 1 1 1s1-.4 1-1v-4.5c0-.5.4-1 1-1 .5 0 1 .4 1 1v4.5c0 .6.4 1 1 1s1-.4 1-1v-4.5c0-.5.4-1 1-1 .5 0 1 .4 1 1v19.1zm-4.6-46.3h11.2v4h-11.2zm0 6h11.2v14.6h-2.6v-1.8c0-1.7-1.4-3-3-3-1.7 0-3 1.5-3 3v1.8h-2.6zm55.9 41.6c0 .5-.4 1-1 1h-34.6v-21.4c0-1.6-1.3-3-3-3-.8 0-1.4.3-2 .8-.5-.5-1.2-.8-2-.8s-1.4.3-2 .8c-.5-.5-1.2-.8-2-.8-.3 0-.7.1-1 .2v-1.8h3.6c.6 0 1-.4 1-1v-22.6c0-.6-.4-1-1-1h-12.9c-.4 0-.8.3-.9.6-.1.2-.1.3-.1.4v22.5c0 .6.4 1 1 1h3.6v9.9l-3.9 2.4c-.3.2-.5.5-.5.9v6.2c0 .4.2.7.5.9l3.9 2.2v3.6h-6.7c-.5 0-1-.4-1-1v-51.6c0-.5.4-1 1-1h59c.5 0 1 .4 1 1z"/></g><g><path d="m59.5 5.7h-28.8c-.6 0-1 .4-1 1v14.2c0 .6.4 1 1 1h28.8c.6 0 1-.4 1-1v-14.2c0-.5-.4-1-1-1zm-1 14.2h-26.8v-12.2h26.8z"/></g><g><path d="m38.3 28.3h-5.4c-.6 0-1 .4-1 1s.4 1 1 1h5.4c.6 0 1-.4 1-1s-.5-1-1-1z"/></g><g><path d="m57.3 28.3h-5.4c-.6 0-1 .4-1 1s.4 1 1 1h5.4c.6 0 1-.4 1-1s-.4-1-1-1z"/></g><g><path d="m47.8 28.3h-5.4c-.6 0-1 .4-1 1s.4 1 1 1h5.4c.6 0 1-.4 1-1s-.4-1-1-1z"/></g><g><path d="m38.3 38.7h-5.4c-.6 0-1 .4-1 1s.4 1 1 1h5.4c.6 0 1-.4 1-1 0-.5-.5-1-1-1z"/></g><g><path d="m57.3 38.7h-5.4c-.6 0-1 .4-1 1s.4 1 1 1h5.4c.6 0 1-.4 1-1 0-.5-.4-1-1-1z"/></g><g><path d="m47.8 38.7h-5.4c-.6 0-1 .4-1 1s.4 1 1 1h5.4c.6 0 1-.4 1-1 0-.5-.4-1-1-1z"/></g><g><path d="m38.3 49.2h-5.4c-.6 0-1 .4-1 1s.4 1 1 1h5.4c.6 0 1-.4 1-1 0-.5-.5-1-1-1z"/></g><g><path d="m57.3 49.2h-5.4c-.6 0-1 .4-1 1s.4 1 1 1h5.4c.6 0 1-.4 1-1 0-.5-.4-1-1-1z"/></g><g><path d="m47.8 49.2h-5.4c-.6 0-1 .4-1 1s.4 1 1 1h5.4c.6 0 1-.4 1-1 0-.5-.4-1-1-1z"/></g><g><path d="m34.1 17.2h4.8c.6 0 1-.4 1-1v-4.8c0-.6-.4-1-1-1h-4.8c-.6 0-1 .4-1 1v4.8c0 .5.4 1 1 1zm1-4.8h2.8v2.8h-2.8z"/></g><g><path d="m42.7 17.2h4.8c.6 0 1-.4 1-1v-4.8c0-.6-.4-1-1-1h-4.8c-.6 0-1 .4-1 1v4.8c0 .5.5 1 1 1zm1-4.8h2.8v2.8h-2.8z"/></g><g><path d="m51.4 17.2h4.8c.6 0 1-.4 1-1v-4.8c0-.6-.4-1-1-1h-4.8c-.6 0-1 .4-1 1v4.8c0 .5.4 1 1 1zm1-4.8h2.8v2.8h-2.8z"/></g></g></svg>