<svg id="Layer_1" enable-background="new 0 0 512 512" viewBox="0 0 512 512" xmlns="http://www.w3.org/2000/svg"><path d="m505.155 271.061c-5.826-10.094-15.271-17.325-26.596-20.36-11.326-3.035-23.12-1.497-33.214 4.331l-119.467 68.972c-1.401-19.604-14.949-37.12-34.961-42.568l-133.347-36.294c-.345-.094-.696-.165-1.051-.211-19.85-2.628-37.969 2.21-53.855 14.378l-36.842 28.214-1.882-7.022c-1.096-4.09-3.726-7.512-7.403-9.636-3.68-2.124-7.956-2.689-12.046-1.595l-31.729 8.501c-8.458 2.267-13.495 10.992-11.229 19.451l45.999 171.669c1.096 4.09 3.725 7.513 7.404 9.637 2.453 1.417 5.173 2.14 7.926 2.14 1.375 0 2.758-.181 4.12-.545l31.728-8.501c8.458-2.267 13.495-10.992 11.229-19.451l-1.944-7.255c19.389-14.719 37.162-18.89 58.765-13.936l76.379 17.51c6.697 1.535 13.136 2.305 19.356 2.305 12.686 0 24.459-3.204 35.627-9.651l191.007-110.275c20.905-12.069 28.094-38.899 16.026-59.808zm-442.199 193.577-45.938-171.442 31.498-8.44 45.938 171.442zm418.173-147.626-191.007 110.276c-12.979 7.494-27.18 9.33-43.407 5.607l-76.379-17.51c-24.394-5.591-45.362-1.583-66.769 13.007l-33.265-124.147 42.09-32.234c12.432-9.523 26.014-13.219 41.509-11.286l132.814 36.149c16.805 4.575 26.755 21.968 22.182 38.772-4.575 16.803-21.962 26.753-38.771 22.18l-71.23-19.387c-4.261-1.158-8.659 1.356-9.819 5.618-1.161 4.263 1.354 8.66 5.618 9.82l71.23 19.387c4.167 1.134 8.358 1.675 12.483 1.675 19.467 0 37.456-12.06 44.513-30.754l130.424-75.298c6.392-3.69 13.872-4.662 21.072-2.733 7.195 1.929 13.19 6.511 16.88 12.903 7.659 13.271 3.098 30.297-10.168 37.955zm-370.782-111.944h111.906c-1.334 5.928-2.062 12.084-2.062 18.409 0 4.418 3.582 8 8 8h151.602c4.418 0 8-3.582 8-8 0-6.326-.728-12.481-2.062-18.409h111.906c4.418 0 8-3.582 8-8 0-35.6-22.324-66.066-53.701-78.187 11.472-8.97 18.868-22.924 18.868-38.581 0-27.001-21.968-48.968-48.969-48.968s-48.968 21.967-48.968 48.968c0 15.677 7.414 29.646 18.909 38.615-17.079 6.622-31.795 18.76-41.531 34.729-5.03-3.343-10.443-6.147-16.153-8.353 11.471-8.97 18.867-22.924 18.867-38.581 0-27.001-21.967-48.968-48.968-48.968s-48.969 21.967-48.969 48.968c0 15.657 7.396 29.611 18.868 38.581-5.71 2.206-11.123 5.011-16.153 8.353-9.736-15.97-24.452-28.107-41.531-34.73 11.496-8.969 18.909-22.938 18.909-38.614 0-27.001-21.967-48.968-48.968-48.968s-48.967 21.966-48.967 48.967c0 15.658 7.396 29.611 18.867 38.581-31.376 12.121-53.7 42.587-53.7 78.187 0 4.419 3.582 8.001 8 8.001zm278.519-124.769c0-18.179 14.789-32.968 32.968-32.968s32.969 14.79 32.969 32.968-14.79 32.968-32.969 32.968-32.968-14.789-32.968-32.968zm32.968 48.968c34.68 0 63.362 26.171 67.333 59.801h-108.795c-4.283-9.469-10.262-18.01-17.57-25.218 11.995-21.179 34.573-34.583 59.032-34.583zm-150.811-22.559c0-18.179 14.79-32.968 32.969-32.968s32.968 14.79 32.968 32.968-14.789 32.968-32.968 32.968-32.969-14.789-32.969-32.968zm100.3 108.769h-134.664c3.971-33.629 32.652-59.801 67.332-59.801s63.362 26.172 67.332 59.801zm-185.175-168.146c18.179 0 32.968 14.79 32.968 32.968s-14.789 32.968-32.968 32.968-32.968-14.789-32.968-32.968 14.789-32.968 32.968-32.968zm.001 81.936c24.459 0 47.037 13.404 59.032 34.583-7.307 7.208-13.287 15.748-17.57 25.218h-108.795c3.97-33.63 32.653-59.801 67.333-59.801z"/></svg>