<svg id="Group_19773" data-name="Group 19773" xmlns="http://www.w3.org/2000/svg" width="34" height="34" viewBox="0 0 34 34">
  <rect id="Rectangle_11025" data-name="Rectangle 11025" width="34" height="34" fill="#282828" opacity="0"/>
  <path id="badge_FILL0_wght400_GRAD0_opsz48" d="M85.735-856.119h9.017v-.528a2.184,2.184,0,0,0-.34-1.207,1.7,1.7,0,0,0-.868-.717,15.152,15.152,0,0,0-1.886-.547,6.909,6.909,0,0,0-1.32-.132,7.471,7.471,0,0,0-1.528.17,16.662,16.662,0,0,0-1.83.509,1.69,1.69,0,0,0-.905.717,2.183,2.183,0,0,0-.34,1.207Zm13.619-2.528h4.527a.914.914,0,0,0,.676-.268.923.923,0,0,0,.267-.679.908.908,0,0,0-.267-.675.922.922,0,0,0-.676-.264H99.354a.914.914,0,0,0-.676.268.922.922,0,0,0-.267.679.908.908,0,0,0,.267.675A.922.922,0,0,0,99.354-858.646Zm-9.017-1.886a1.965,1.965,0,0,0,1.443-.594,1.965,1.965,0,0,0,.594-1.443,1.965,1.965,0,0,0-.594-1.443,1.965,1.965,0,0,0-1.443-.594,1.965,1.965,0,0,0-1.443.594,1.965,1.965,0,0,0-.594,1.443,1.965,1.965,0,0,0,.594,1.443A1.965,1.965,0,0,0,90.337-860.533Zm9.017-2.377h4.527a.914.914,0,0,0,.676-.268.923.923,0,0,0,.267-.679.908.908,0,0,0-.267-.675.922.922,0,0,0-.676-.264H99.354a.914.914,0,0,0-.676.268.923.923,0,0,0-.267.679.908.908,0,0,0,.267.675A.922.922,0,0,0,99.354-862.91Zm-17.09,13.091a2.172,2.172,0,0,1-1.585-.679A2.172,2.172,0,0,1,80-852.082v-18.109a2.172,2.172,0,0,1,.679-1.584,2.172,2.172,0,0,1,1.585-.679H91.7v-5.282a2.172,2.172,0,0,1,.679-1.584,2.189,2.189,0,0,1,1.6-.679h2.233a2.189,2.189,0,0,1,1.6.679,2.172,2.172,0,0,1,.679,1.584v5.282h9.432a2.172,2.172,0,0,1,1.585.679,2.172,2.172,0,0,1,.679,1.584v18.109a2.172,2.172,0,0,1-.679,1.585,2.172,2.172,0,0,1-1.585.679Zm0-2.264h25.654v-18.109H98.486v1.132a2.107,2.107,0,0,1-.679,1.66,2.33,2.33,0,0,1-1.6.6H93.975a2.33,2.33,0,0,1-1.6-.6,2.107,2.107,0,0,1-.679-1.66v-1.132H82.264Zm11.7-16.977h2.264v-8.677H93.959ZM95.091-861.136Z" transform="translate(-78.091 881.909)" fill="#282828"/>
</svg>
