<svg width="24" height="24" viewBox="0 0 24 24" fill="none" xmlns="http://www.w3.org/2000/svg">
<path d="M8 21V19H4C3.45 19 2.97917 18.8042 2.5875 18.4125C2.19583 18.0208 2 17.55 2 17V5C2 4.45 2.19583 3.97917 2.5875 3.5875C2.97917 3.19583 3.45 3 4 3H20C20.55 3 21.0208 3.19583 21.4125 3.5875C21.8042 3.97917 22 4.45 22 5V7H20V5H4V17H11V21H8ZM15.15 16.5C15.15 15.85 15.3792 15.2958 15.8375 14.8375C16.2958 14.3792 16.85 14.15 17.5 14.15C18.15 14.15 18.7042 14.3792 19.1625 14.8375C19.6208 15.2958 19.85 15.85 19.85 16.5C19.85 17.15 19.6208 17.7042 19.1625 18.1625C18.7042 18.6208 18.15 18.85 17.5 18.85C16.85 18.85 16.2958 18.6208 15.8375 18.1625C15.3792 17.7042 15.15 17.15 15.15 16.5ZM21 8C21.2833 8 21.5208 8.09583 21.7125 8.2875C21.9042 8.47917 22 8.71667 22 9V20C22 20.2833 21.9042 20.5208 21.7125 20.7125C21.5208 20.9042 21.2833 21 21 21H14C13.7167 21 13.4792 20.9042 13.2875 20.7125C13.0958 20.5208 13 20.2833 13 20V9C13 8.71667 13.0958 8.47917 13.2875 8.2875C13.4792 8.09583 13.7167 8 14 8H21ZM17.5 9C17.0667 9 16.7083 9.14167 16.425 9.425C16.1417 9.70833 16 10.0667 16 10.5C16 10.9333 16.1417 11.2917 16.425 11.575C16.7083 11.8583 17.0667 12 17.5 12C17.9333 12 18.2917 11.8583 18.575 11.575C18.8583 11.2917 19 10.9333 19 10.5C19 10.0667 18.8583 9.70833 18.575 9.425C18.2917 9.14167 17.9333 9 17.5 9ZM17.5 20C18.4833 20 19.3125 19.6625 19.9875 18.9875C20.6625 18.3125 21 17.4833 21 16.5C21 15.5167 20.6625 14.6875 19.9875 14.0125C19.3125 13.3375 18.4833 13 17.5 13C16.5167 13 15.6875 13.3375 15.0125 14.0125C14.3375 14.6875 14 15.5167 14 16.5C14 17.4833 14.3375 18.3125 15.0125 18.9875C15.6875 19.6625 16.5167 20 17.5 20Z" fill="black"/>
</svg>
