<?xml version="1.0" encoding="utf-8"?>
<!-- Generator: Adobe Illustrator 24.3.0, SVG Export Plug-In . SVG Version: 6.00 Build 0)  -->
<svg version="1.1" id="Capa_1" xmlns="http://www.w3.org/2000/svg" xmlns:xlink="http://www.w3.org/1999/xlink" x="0px" y="0px"
	 viewBox="0 0 512 512" style="enable-background:new 0 0 512 512;" xml:space="preserve">
<style type="text/css">
	.st0{fill:#AAAAAA;}
</style>
<g>
	<g id="Manual_1_">
		<path class="st0" d="M256,0c-74.6,0-135,60.4-135,135s60.4,135,135,135s135-60.4,135-135S330.6,0,256,0z M271,210h-30v-90h30V210z
			 M271,90h-30V60h30V90z"/>
		<g>
			<path class="st0" d="M241,298.6C162.1,291.3,98.9,229,91.8,150H61v272h122.7c21,0,41.5,8.1,57.3,22V298.6z"/>
			<path class="st0" d="M420.2,150c-7.2,79-70.3,141.3-149.2,148.6V444c15.8-13.9,36.3-22,57.3-22H451V150L420.2,150z"/>
		</g>
	</g>
	<path class="st0" d="M481,180v272H328.4c-15.2,0-29.8,6-40.6,16.8L256,500.6l-31.8-31.8C213.4,458,198.8,452,183.6,452H31V180H0
		v302l147.6,0.1c27.1,0,53,10.8,72.2,29.9h72.4c3-2.1,25-30,66.1-30H512V180H481z"/>
</g>
</svg>
