<?xml version="1.0" encoding="utf-8"?>
<!-- Generator: Adobe Illustrator 24.3.0, SVG Export Plug-In . SVG Version: 6.00 Build 0)  -->
<svg version="1.1" id="Layer_1" xmlns="http://www.w3.org/2000/svg" xmlns:xlink="http://www.w3.org/1999/xlink" x="0px" y="0px"
	 viewBox="0 0 512 512" style="enable-background:new 0 0 512 512;" xml:space="preserve">
<style type="text/css">
	.st0{fill:#AAAAAA;}
</style>
<g id="_x30_32---Employee-Details">
	<circle id="Oval" class="st0" cx="137.1" cy="73.1" r="36.6"/>
	<path id="Shape" class="st0" d="M164.6,342.9c-0.1-59.9,40-112.3,97.8-128s118.9,9.4,149,61.1V18.3c0-10.1-8.2-18.3-18.3-18.3H64
		C53.9,0,45.7,8.2,45.7,18.3v420.6c0,10.1,8.2,18.3,18.3,18.3h166.3C189.6,433.4,164.6,389.9,164.6,342.9z M310.9,36.6h64
		c5,0,9.1,4.1,9.1,9.1s-4.1,9.1-9.1,9.1h-64c-5,0-9.1-4.1-9.1-9.1S305.8,36.6,310.9,36.6z M237.7,36.6h36.6c5,0,9.1,4.1,9.1,9.1
		s-4.1,9.1-9.1,9.1h-36.6c-5,0-9.1-4.1-9.1-9.1S232.7,36.6,237.7,36.6z M237.7,82.3h137.1c5,0,9.1,4.1,9.1,9.1s-4.1,9.1-9.1,9.1
		H237.7c-5,0-9.1-4.1-9.1-9.1S232.7,82.3,237.7,82.3z M384,137.1c0,5-4.1,9.1-9.1,9.1h-36.6c-5,0-9.1-4.1-9.1-9.1s4.1-9.1,9.1-9.1
		h36.6C379.9,128,384,132.1,384,137.1z M237.7,128h64c5,0,9.1,4.1,9.1,9.1s-4.1,9.1-9.1,9.1h-64c-5,0-9.1-4.1-9.1-9.1
		S232.7,128,237.7,128z M237.7,173.7h137.1c5,0,9.1,4.1,9.1,9.1c0,5-4.1,9.1-9.1,9.1H237.7c-5,0-9.1-4.1-9.1-9.1
		C228.6,177.8,232.7,173.7,237.7,173.7z M69,203c-0.1-0.3-0.3-0.5-0.4-0.8c-11.6-33.9-1.4-71.5,25.6-95
		c-17.8-22.5-15.4-54.9,5.7-74.4s53.5-19.5,74.6,0s23.5,51.9,5.7,74.4c27,23.5,37.1,60.9,25.7,94.8c0,0.1-0.5,1-0.5,1
		c-0.8,1.8-2.2,3.2-4,4.1c-0.2,0.1-0.3,0.3-0.5,0.4s-0.5,0.2-0.8,0.3l-0.2,0.1c-40.3,15.5-85,15.5-125.4,0l-0.2-0.1
		c-0.2-0.1-0.5-0.2-0.8-0.3s-0.3-0.3-0.5-0.4C71.3,206.2,69.9,204.7,69,203L69,203z M137.1,320H82.3c-5,0-9.1-4.1-9.1-9.1
		c0-5,4.1-9.1,9.1-9.1h54.9c5,0,9.1,4.1,9.1,9.1C146.3,315.9,142.2,320,137.1,320z M146.3,356.6c0,5-4.1,9.1-9.1,9.1H82.3
		c-5,0-9.1-4.1-9.1-9.1c0-5,4.1-9.1,9.1-9.1h54.9C142.2,347.4,146.3,351.5,146.3,356.6z M146.3,411.4h-64c-5,0-9.1-4.1-9.1-9.1
		c0-5,4.1-9.1,9.1-9.1h64c5,0,9.1,4.1,9.1,9.1C155.4,407.3,151.3,411.4,146.3,411.4z M155.4,274.3H82.3c-5,0-9.1-4.1-9.1-9.1
		c0-5,4.1-9.1,9.1-9.1h73.1c5,0,9.1,4.1,9.1,9.1C164.6,270.2,160.5,274.3,155.4,274.3z"/>
	<path id="Shape_1_" class="st0" d="M189.4,192.1c7.6-26.6-1.5-55.3-23.1-72.6c-17.8,11.3-40.5,11.3-58.3,0
		c-4.5,3.3-8.5,7.2-11.8,11.7c-13,17.5-17.2,39.9-11.3,60.9C118.7,204.2,155.6,204.2,189.4,192.1z"/>
	<path id="Shape_2_" class="st0" d="M297.1,228.6c-63.1,0-114.3,51.2-114.3,114.3S234,457.1,297.1,457.1S411.4,406,411.4,342.9
		C411.4,279.8,360.2,228.6,297.1,228.6z M297.1,438.9c-53,0-96-43-96-96s43-96,96-96s96,43,96,96
		C393.1,395.9,350.1,438.8,297.1,438.9z"/>
	<path id="Shape_3_" class="st0" d="M463.6,496.5L397,429.8c-4,4.6-8.3,8.9-12.9,12.9l66.7,66.6c3.6,3.5,9.2,3.5,12.8,0
		c1.7-1.7,2.7-4,2.7-6.4C466.3,500.5,465.3,498.1,463.6,496.5L463.6,496.5z"/>
	<circle id="Oval_1_" class="st0" cx="297.1" cy="342.9" r="77.7"/>
</g>
</svg>
