<svg id="Layer_1" enable-background="new 0 0 512 512" height="512" viewBox="0 0 512 512" width="512" xmlns="http://www.w3.org/2000/svg"><path d="m235.613 217.199h40.651c3.866 0 7-3.134 7-7v-40.65c0-3.866-3.134-7-7-7h-40.651c-3.866 0-7 3.134-7 7v40.65c0 3.866 3.134 7 7 7zm7-40.65h26.651v26.65h-26.651zm72.879 40.65h40.65c3.866 0 7-3.134 7-7v-40.65c0-3.866-3.134-7-7-7h-40.65c-3.866 0-7 3.134-7 7v40.65c0 3.866 3.134 7 7 7zm7-40.65h26.65v26.65h-26.65zm-86.879 120.529h40.651c3.866 0 7-3.134 7-7v-40.651c0-3.866-3.134-7-7-7h-40.651c-3.866 0-7 3.134-7 7v40.651c0 3.866 3.134 7 7 7zm7-40.651h26.651v26.651h-26.651zm-46.227-14h-40.65c-3.866 0-7 3.134-7 7v40.651c0 3.866 3.134 7 7 7h40.65c3.866 0 7-3.134 7-7v-40.651c0-3.866-3.134-7-7-7zm-7 40.651h-26.65v-26.651h26.65zm7-120.529h-40.65c-3.866 0-7 3.134-7 7v40.65c0 3.866 3.134 7 7 7h40.65c3.866 0 7-3.134 7-7v-40.65c0-3.866-3.134-7-7-7zm-7 40.65h-26.65v-26.65h26.65zm7 119.106h-40.65c-3.866 0-7 3.134-7 7v40.651c0 3.866 3.134 7 7 7h40.65c3.866 0 7-3.134 7-7v-40.651c0-3.867-3.134-7-7-7zm-7 40.651h-26.65v-26.651h26.65zm-72.878-200.407h-40.65c-3.866 0-7 3.134-7 7v40.65c0 3.866 3.134 7 7 7h40.65c3.866 0 7-3.134 7-7v-40.65c0-3.866-3.134-7-7-7zm-7 40.65h-26.65v-26.65h26.65zm7 39.228h-40.65c-3.866 0-7 3.134-7 7v40.651c0 3.866 3.134 7 7 7h40.65c3.866 0 7-3.134 7-7v-40.651c0-3.866-3.134-7-7-7zm-7 40.651h-26.65v-26.651h26.65zm7 39.227h-40.65c-3.866 0-7 3.134-7 7v40.651c0 3.866 3.134 7 7 7h40.65c3.866 0 7-3.134 7-7v-40.651c0-3.867-3.134-7-7-7zm-7 40.651h-26.65v-26.651h26.65zm348.318-77.3c-1.933-3.348-.785-7.629 2.563-9.563l22.438-12.954c3.349-1.932 7.629-.786 9.563 2.563 1.933 3.348.785 7.629-2.563 9.563l-22.438 12.954c-1.103.636-2.306.938-3.493.938-2.42 0-4.773-1.255-6.07-3.501zm-31.488-32.431 13.665-23.669c1.934-3.347 6.215-4.496 9.563-2.562 3.348 1.933 4.495 6.214 2.563 9.562l-13.665 23.669c-1.297 2.245-3.65 3.501-6.069 3.501-1.188 0-2.391-.303-3.493-.938-3.349-1.934-4.497-6.215-2.564-9.563zm76.662 71.516c0 3.866-3.134 7-7 7h-27.33c-3.866 0-7-3.134-7-7s3.134-7 7-7h27.33c3.866 0 7 3.134 7 7zm-66.332 5.25c5.379-3.756 9.233-9.227 10.951-15.639 1.931-7.206.939-14.732-2.791-21.192-3.729-6.46-9.752-11.081-16.957-13.012-1.613-.432-3.242-.71-4.871-.852v-191.191c0-22.301-18.175-40.482-40.516-40.53l-27.371-.058v-31.517c0-3.866-3.134-7-7-7h-43.089c-3.866 0-7 3.134-7 7v31.398l-53.48-.113v-31.285c0-3.866-3.134-7-7-7h-43.089c-3.866 0-7 3.134-7 7v31.165l-53.479-.112v-31.053c0-3.866-3.134-7-7-7h-43.09c-3.866 0-7 3.134-7 7v31.038h-27.357c-22.347 0-40.529 18.423-40.529 41.067v289.001c0 22.349 18.182 40.53 40.529 40.53h167.976c.751 1.796 1.608 3.558 2.597 5.27 6.091 10.55 15.964 18.106 27.801 21.278 3.97 1.063 7.993 1.59 11.987 1.59 7.917 0 15.716-2.068 22.729-6.116l.616-.356 43.251 57.875c2.491 3.334 6.177 5.379 10.38 5.759.478.043.949.064 1.417.064 3.646 0 6.999-1.303 9.766-3.813l9.228-8.374c5.618-5.097 6.42-13.563 1.865-19.69l-15.843-21.326 4.166-3.042c2.873-2.099 4.756-5.242 5.304-8.853.596-3.933-.448-8.054-2.864-11.307l-6.657-8.96h39.224c14.695 0 28.091-8.173 35.195-20.524 4.812 6.799 12.548 10.576 20.485 10.576 4.25 0 8.556-1.08 12.493-3.354 11.971-6.911 16.087-22.273 9.176-34.244zm-3.964-29.831c1.86 3.222 2.354 6.976 1.392 10.568-.748 2.792-2.314 5.219-4.484 7.04l-13.7-23.73c6.223-2.251 13.371.195 16.792 6.122zm-120.68-277.16h29.089v62.423h-29.089zm-110.569 0h29.089v62.423h-29.089zm-110.569 0h29.09v62.423h-29.09zm-41.357 38.038h27.356v31.385c0 3.866 3.134 7 7 7h43.09c3.866 0 7-3.134 7-7v-31.37l53.479.112v31.258c0 3.866 3.134 7 7 7h43.089c3.866 0 7-3.134 7-7v-31.138l53.48.113v31.025c0 3.866 3.134 7 7 7h43.089c3.866 0 7-3.134 7-7v-30.905l27.342.057c14.638.031 26.546 11.933 26.546 26.53v33.762h-386v-33.762c0-14.671 12.149-27.067 26.529-27.067zm166.045 327.153c-1.371 5.118-1.845 10.327-1.453 15.445h-164.592c-14.628 0-26.529-11.901-26.529-26.53v-241.238h386v145.873c-.05.023-.099.048-.148.072l-23.151-40.099c-6.913-11.972-22.274-16.087-34.245-9.176-4.201 2.426-7.43 5.894-9.559 9.889h-26.405c-3.866 0-7 3.134-7 7v40.651c0 3.866 3.134 7 7 7h6.584c-10.833 13.155-23.933 26.044-38.812 38.129v-5.902c0-3.866-3.134-7-7-7h-40.651c-3.866 0-7 3.134-7 7v37.173c-6.247 5.792-10.77 13.245-13.039 21.713zm94.981 15.678-28.74-49.779c29.479-22.111 53.407-47.52 68.767-72.929l57.514 99.618c-29.685.595-63.653 8.615-97.541 23.09zm-41.29-61.802c-.694.15-1.376.405-2.024.779l-24.627 14.218v-20.759h26.651zm53.227-58.989v-26.651h16.531c.304 3.544 1.364 7.077 3.257 10.355l.2.346c-2.856 5.306-6.134 10.633-9.805 15.949h-10.183zm-90.266 132.828c-4.222-7.311-5.332-15.867-3.128-24.092s7.443-15.079 14.755-19.3l24.325-14.044 31.766 55.019-24.325 14.044c-15.169 8.756-34.637 3.542-43.393-11.627zm115.642 64.54-9.228 8.374c-.199.181-.249.198-.516.173-.298-.027-.322-.059-.424-.195l-42.257-56.545 12.161-7.021 40.298 54.242c.209.28.279.688-.034.972zm-29.773-64.571c1.637-.687 3.273-1.353 4.909-2.007l15.66 21.079c.18.241.251.52.265.706l-3.98 2.908zm64.375-12.238h-29.544c17.058-4.823 33.614-7.744 49.019-8.617-4.923 5.319-11.934 8.617-19.475 8.617zm61.174-11.427c-2.543 1.47-5.522 1.855-8.394 1.085-2.87-.769-5.259-2.593-6.727-5.136l-74.118-128.377c-3.052-5.286-1.234-12.068 4.051-15.12 2.543-1.468 5.521-1.855 8.394-1.084 2.87.769 5.259 2.593 6.727 5.136l74.118 128.377c3.051 5.285 1.234 12.068-4.051 15.119z"/></svg>