<svg id="Group_19770" data-name="Group 19770" xmlns="http://www.w3.org/2000/svg" width="34" height="34" viewBox="0 0 34 34">
  <rect id="Rectangle_11025" data-name="Rectangle 11025" width="34" height="34" fill="#282828" opacity="0"/>
  <path id="event_upcoming_FILL0_wght400_GRAD0_opsz48" d="M68.289-852.286v-2.079h7.585v-14.9H54.608v7.621H52.481v-14.2a1.973,1.973,0,0,1,.638-1.455,2.064,2.064,0,0,1,1.489-.623h2.3V-880h2.3v2.078H71.266V-880h2.3v2.078h2.3a2.064,2.064,0,0,1,1.489.623A1.973,1.973,0,0,1,78-875.843v21.478a1.973,1.973,0,0,1-.638,1.455,2.064,2.064,0,0,1-1.489.624ZM59.57-850l-1.489-1.455,4.005-3.949H50v-2.079H62.086l-4.005-3.949,1.489-1.455,6.592,6.443Zm-4.962-21.34H75.873v-4.5H54.608Zm0,0v0Z" transform="translate(-46.999 882)" fill="#282828"/>
</svg>
