<svg xmlns="http://www.w3.org/2000/svg" width="34" height="34" viewBox="0 0 34 34">
  <g id="Group_19771" data-name="Group 19771" transform="translate(-125 -335)">
    <rect id="Rectangle_11025" data-name="Rectangle 11025" width="34" height="34" transform="translate(125 335)" fill="#282828" opacity="0"/>
    <path id="pending_actions_FILL0_wght400_GRAD0_opsz48" d="M140.49,170a6.773,6.773,0,1,1,4.8-1.984A6.537,6.537,0,0,1,140.49,170Zm2.09-3.158,1-1-2.691-2.691v-4.019h-1.4v4.522ZM120,168.062V142.871h8.756a3.587,3.587,0,0,1,7.033,0h9.4V155.61a9.935,9.935,0,0,0-1.059-.556,10.251,10.251,0,0,0-1.094-.413v-9.617h-3.8v4.665H125.957v-4.665h-3.8v20.885h9.8a8.927,8.927,0,0,0,.431,1.059,11.563,11.563,0,0,0,.61,1.094Zm12.919-23.182a1.41,1.41,0,1,0-1.023-.413A1.389,1.389,0,0,0,132.919,144.88Z" transform="translate(8.364 197)" fill="#282828"/>
  </g>
</svg>
