<svg xmlns="http://www.w3.org/2000/svg" width="34" height="34" viewBox="0 0 34 34">
  <g id="Group_19770" data-name="Group 19770" transform="translate(-125 -335)">
    <rect id="Rectangle_11025" data-name="Rectangle 11025" width="34" height="34" transform="translate(125 335)" fill="#282828" opacity="0"/>
    <path id="dvr_FILL0_wght400_GRAD0_opsz48" d="M90.5,226.125H104v-2.25H90.5Zm0,6H104v-2.25H90.5Zm-3-5.888a1.216,1.216,0,1,0-.881-.356A1.2,1.2,0,0,0,87.5,226.237Zm0,6a1.216,1.216,0,1,0-.881-.356A1.2,1.2,0,0,0,87.5,232.237ZM89.375,243v-3H80V216h30v24h-9.375v3Zm-7.125-5.25h25.5v-19.5H82.25Zm0,0v0Z" transform="translate(48 123)" fill="#282828"/>
  </g>
</svg>
