<svg xmlns="http://www.w3.org/2000/svg" width="34" height="34" viewBox="0 0 34 34">
  <g id="Group_19700" data-name="Group 19700" transform="translate(-125 -335)">
    <rect id="Rectangle_11025" data-name="Rectangle 11025" width="34" height="34" transform="translate(125 335)" fill="#282828" opacity="0"/>
    <path id="pin_drop_FILL0_wght400_GRAD0_opsz48" d="M220.125,197.825a29.511,29.511,0,0,0,5.887-6.054A9.775,9.775,0,0,0,228,186.35a7.743,7.743,0,0,0-2.794-6.258,7.639,7.639,0,0,0-2.56-1.406,7.509,7.509,0,0,0-5.042,0,7.639,7.639,0,0,0-2.56,1.406,7.743,7.743,0,0,0-2.794,6.258,9.775,9.775,0,0,0,1.988,5.421A29.511,29.511,0,0,0,220.125,197.825Zm0,2.85a35.078,35.078,0,0,1-7.631-7.395A12.016,12.016,0,0,1,210,186.359a10.344,10.344,0,0,1,.919-4.491,10.16,10.16,0,0,1,2.381-3.244,9.954,9.954,0,0,1,3.262-1.969,10,10,0,0,1,7.126,0,9.952,9.952,0,0,1,3.262,1.969,10.156,10.156,0,0,1,2.381,3.245,10.366,10.366,0,0,1,.919,4.5,11.992,11.992,0,0,1-2.494,6.92A35.181,35.181,0,0,1,220.125,200.675Zm0-11.925a2.63,2.63,0,1,0-1.856-.769A2.52,2.52,0,0,0,220.128,188.75ZM210,206v-2.25h20.25V206ZM220.125,186.35Z" transform="translate(-78.125 161.5)" fill="#282828"/>
  </g>
</svg>
