<svg xmlns="http://www.w3.org/2000/svg" width="34" height="34" viewBox="0 0 34 34">
  <g id="Group_19770" data-name="Group 19770" transform="translate(-125 -335)">
    <rect id="Rectangle_11025" data-name="Rectangle 11025" width="34" height="34" transform="translate(125 335)" fill="#282828" opacity="0"/>
    <path id="supervisor_account_FILL0_wght400_GRAD0_opsz48" d="M102.65,290a3.491,3.491,0,1,1,2.5-1.022A3.4,3.4,0,0,1,102.65,290Zm-6.225,8.288a1.1,1.1,0,0,1-1.125-1.125v-.788a3.208,3.208,0,0,1,.413-1.669,2.75,2.75,0,0,1,1.162-1.069,12.408,12.408,0,0,1,2.813-1.05,12.814,12.814,0,0,1,2.962-.338,13.535,13.535,0,0,1,2.963.319,10.919,10.919,0,0,1,2.813,1.069,2.5,2.5,0,0,1,1.162,1.05,3.31,3.31,0,0,1,.413,1.688v.788a1.1,1.1,0,0,1-1.125,1.125ZM92,286.25a5.395,5.395,0,1,1,4.05-1.575A5.482,5.482,0,0,1,92,286.25ZM81.125,298.288A1.1,1.1,0,0,1,80,297.163v-2.4a4.491,4.491,0,0,1,.637-2.344,4.051,4.051,0,0,1,1.913-1.631,28.185,28.185,0,0,1,4.819-1.688A19.483,19.483,0,0,1,92,288.537q.937,0,1.8.075a11.742,11.742,0,0,1,1.387.187v1.455a4.053,4.053,0,0,0-.5.28,2.914,2.914,0,0,0-.435.365,8.859,8.859,0,0,0-1.05-.094q-.562-.019-1.2-.019a19.961,19.961,0,0,0-4.156.431,19.013,19.013,0,0,0-4.394,1.594,2.1,2.1,0,0,0-.862.825,2.171,2.171,0,0,0-.338,1.125v1.275h10.8v2.25ZM93.05,296.037ZM92,284a3.271,3.271,0,1,0-2.419-.956A3.278,3.278,0,0,0,92,284ZM92,280.625Z" transform="translate(47 65)" fill="#282828"/>
  </g>
</svg>
