<svg xmlns="http://www.w3.org/2000/svg" width="34" height="34" viewBox="0 0 34 34">
  <g id="Group_19700" data-name="Group 19700" transform="translate(-125 -335)">
    <rect id="Rectangle_11025" data-name="Rectangle 11025" width="34" height="34" transform="translate(125 335)" fill="#282828" opacity="0"/>
    <path id="admin_panel_settings_FILL0_wght400_GRAD0_opsz48" d="M179.883,197.884a2.192,2.192,0,0,0,1.648-.712,2.355,2.355,0,0,0,.679-1.681,2.317,2.317,0,0,0-2.327-2.327,2.355,2.355,0,0,0-1.681.679,2.192,2.192,0,0,0-.712,1.648,2.431,2.431,0,0,0,2.393,2.393Zm-.052,4.682a4.849,4.849,0,0,0,2.266-.524,4.931,4.931,0,0,0,1.723-1.5,9.108,9.108,0,0,0-1.946-.787,7.735,7.735,0,0,0-2.022-.262,7.964,7.964,0,0,0-2.043.262,8.25,8.25,0,0,0-1.929.787,4.985,4.985,0,0,0,1.7,1.5A4.737,4.737,0,0,0,179.831,202.566ZM171.985,205a14.477,14.477,0,0,1-8.577-5.861A17.651,17.651,0,0,1,160,188.446v-8.951L171.985,175l11.985,4.494v10.112a9.19,9.19,0,0,0-1.124-.468,6.154,6.154,0,0,0-1.124-.281v-7.79l-9.738-3.6-9.738,3.6v7.378a14.55,14.55,0,0,0,.918,5.243,16.126,16.126,0,0,0,2.341,4.213,14.6,14.6,0,0,0,3.146,3.015,12.893,12.893,0,0,0,3.333,1.723,5.893,5.893,0,0,0,.674,1.011,10.872,10.872,0,0,0,.749.861,2.914,2.914,0,0,1-.712.281Q172.322,204.888,171.985,205Zm7.959,0a7.066,7.066,0,0,1-7.022-7,6.841,6.841,0,0,1,2.06-5.008A7.028,7.028,0,1,1,179.944,205ZM171.985,190.056Z" transform="translate(-32 162)" fill="#282828"/>
  </g>
</svg>
