<?xml version="1.0" encoding="utf-8"?>
<!-- Generator: Adobe Illustrator 24.3.0, SVG Export Plug-In . SVG Version: 6.00 Build 0)  -->
<svg version="1.1" id="Layer_1" xmlns="http://www.w3.org/2000/svg" xmlns:xlink="http://www.w3.org/1999/xlink" x="0px" y="0px"
	 viewBox="0 0 512 512" style="enable-background:new 0 0 512 512;" xml:space="preserve">
<style type="text/css">
	.st0{fill-rule:evenodd;clip-rule:evenodd;fill:#AAAAAA;}
</style>
<g id="Icon">
	<circle class="st0" cx="245.3" cy="143.9" r="117.3"/>
	<path class="st0" d="M275.7,464.1c-22.2-23.8-35.7-55.7-35.7-90.8c0-35.9,14.2-68.5,37.4-92.5c-10.5-0.8-21.1-1.2-32-1.2
		c-70.9,0-133.6,17.7-172.6,44.3c-29.7,20.3-46.1,46-46.1,73v30.9c0,9.6,3.8,18.9,10.6,25.6c6.8,6.8,16,10.6,25.6,10.6H275.7z"/>
	<path class="st0" d="M373.3,261.3c-61.8,0-112,50.2-112,112s50.2,112,112,112s112-50.2,112-112S435.2,261.3,373.3,261.3z
		 M357.3,373.3v53.3c0,8.8,7.2,16,16,16s16-7.2,16-16v-53.3c0-8.8-7.2-16-16-16S357.3,364.5,357.3,373.3z M373.3,304
		c11.8,0,21.3,9.6,21.3,21.3s-9.6,21.3-21.3,21.3s-21.3-9.6-21.3-21.3S361.6,304,373.3,304z"/>
</g>
</svg>
