<svg xmlns="http://www.w3.org/2000/svg" width="34" height="34" viewBox="0 0 34 34">
  <g id="Group_19703" data-name="Group 19703" transform="translate(-125 -335)">
    <rect id="Rectangle_11025" data-name="Rectangle 11025" width="34" height="34" transform="translate(125 335)" fill="#282828" opacity="0"/>
    <path id="badge_FILL0_wght400_GRAD0_opsz48" d="M98.3,192.987h6.375v-1.875H98.3Zm0,4.238h6.375V195.35H98.3Zm.6-13.725H110V206H80V183.5H91.137V176H98.9Zm-5.513,2.25H96.65v-7.5H93.387ZM95,195.012Zm-4.725.337a2.017,2.017,0,1,0-1.434-.591A1.953,1.953,0,0,0,90.275,195.35ZM85.7,199.737h8.963v-.525a2.17,2.17,0,0,0-.338-1.2,1.694,1.694,0,0,0-.862-.713,15.058,15.058,0,0,0-1.875-.544,6.871,6.871,0,0,0-1.312-.131,7.429,7.429,0,0,0-1.519.169,16.561,16.561,0,0,0-1.819.506,1.68,1.68,0,0,0-.9.713,2.17,2.17,0,0,0-.338,1.2Zm5.438-13.987H82.25v18h25.5v-18H98.9V188H91.137Z" transform="translate(47 161)" fill="#282828"/>
  </g>
</svg>
