<svg xmlns="http://www.w3.org/2000/svg" width="34" height="34" viewBox="0 0 34 34">
  <g id="Group_19768" data-name="Group 19768" transform="translate(-125 -335)">
    <rect id="Rectangle_11025" data-name="Rectangle 11025" width="34" height="34" transform="translate(125 335)" fill="#282828" opacity="0"/>
    <path id="how_to_reg_FILL0_wght400_GRAD0_opsz48" d="M80,297.325V293.8a4.491,4.491,0,0,1,.637-2.344,4.051,4.051,0,0,1,1.913-1.631A28.031,28.031,0,0,1,87.5,288.1a19.745,19.745,0,0,1,4.5-.525,21.579,21.579,0,0,1,2.306.131,16.757,16.757,0,0,1,2.494.469l-1.838,1.837q-.75-.075-1.481-.131T92,289.825a18.365,18.365,0,0,0-3.956.394,26.024,26.024,0,0,0-4.594,1.631,1.877,1.877,0,0,0-.919.862,2.427,2.427,0,0,0-.281,1.088v1.275H94.213l2.25,2.25Zm20.438.6-5.287-5.288,1.575-1.575,3.713,3.712,7.988-7.987L110,288.363ZM92,285.25a5.395,5.395,0,1,1,4.05-1.575A5.482,5.482,0,0,1,92,285.25ZM94.213,295.075ZM92,283a3.271,3.271,0,1,0-2.419-.956A3.278,3.278,0,0,0,92,283ZM92,279.625Z" transform="translate(47.5 66.038)" fill="#282828"/>
  </g>
</svg>
