<svg id="Group_19700" data-name="Group 19700" xmlns="http://www.w3.org/2000/svg" width="34" height="34" viewBox="0 0 34 34">
  <rect id="Rectangle_11025" data-name="Rectangle 11025" width="34" height="34" fill="#282828" opacity="0"/>
  <path id="dashboard_FILL0_wght400_GRAD0_opsz48" d="M136.25,227.25V216H150v11.25ZM120,230.293V216h13.75v14.293ZM120,246V232.306h13.75V246Zm2.5-18.207h8.75V218.5H122.5Zm16.25-3.043h8.75V218.5h-8.75ZM122.5,243.5h8.75v-8.694H122.5ZM138.75,224.75Zm-7.5,10.056" transform="translate(-118 -214)" fill="#282828"/>
  <path id="supervisor_account_FILL0_wght400_GRAD0_opsz48" d="M102.65,290a6.21,6.21,0,0,1-2.5-1.022,3.525,3.525,0,1,1,5.006,0A6.21,6.21,0,0,1,102.65,290Zm-6.225,8.288a1.1,1.1,0,0,1-1.125-1.125v-.788a3.208,3.208,0,0,1,.413-1.669,2.75,2.75,0,0,1,1.162-1.069,12.408,12.408,0,0,1,2.813-1.05,12.814,12.814,0,0,1,2.962-.338,13.535,13.535,0,0,1,2.963.319,10.919,10.919,0,0,1,2.813,1.069,2.5,2.5,0,0,1,1.162,1.05,3.31,3.31,0,0,1,.413,1.688v.788a1.1,1.1,0,0,1-1.125,1.125Z" transform="translate(-78 -266.288)" fill="#282828"/>
</svg>
