<svg xmlns="http://www.w3.org/2000/svg" width="34" height="34" viewBox="0 0 34 34">
  <g id="Group_19702" data-name="Group 19702" transform="translate(-125 -335)">
    <rect id="Rectangle_11025" data-name="Rectangle 11025" width="34" height="34" transform="translate(125 335)" fill="#282828" opacity="0"/>
    <path id="person_pin_circle_FILL0_wght400_GRAD0_opsz48" d="M172,195.125a6.791,6.791,0,0,0,3.476-.9,7.08,7.08,0,0,0,2.486-2.4,9.22,9.22,0,0,0-2.783-1.463,10.638,10.638,0,0,0-6.367,0,9.242,9.242,0,0,0-2.775,1.463,7.08,7.08,0,0,0,2.486,2.4A6.791,6.791,0,0,0,172,195.125Zm0-7.5a2.63,2.63,0,1,0-1.856-.769A2.52,2.52,0,0,0,172,187.625Zm0,15.412a43.921,43.921,0,0,0,7.369-8.231,12.488,12.488,0,0,0,2.381-6.506,9.779,9.779,0,0,0-2.823-7.234,9.926,9.926,0,0,0-13.853,0,9.779,9.779,0,0,0-2.823,7.234,12.306,12.306,0,0,0,2.438,6.506A47.693,47.693,0,0,0,172,203.037ZM172,206a49.866,49.866,0,0,1-9.019-9.544Q160,192.05,160,188.3a11.6,11.6,0,0,1,3.619-8.962,12.192,12.192,0,0,1,16.763,0A11.6,11.6,0,0,1,184,188.3q0,3.75-2.981,8.156A49.866,49.866,0,0,1,172,206ZM172,188.3Z" transform="translate(-30 161)" fill="#282828"/>
  </g>
</svg>
