<svg xmlns="http://www.w3.org/2000/svg" width="34" height="34" viewBox="0 0 34 34">
  <g id="Group_19704" data-name="Group 19704" transform="translate(-125 -335)">
    <rect id="Rectangle_11025" data-name="Rectangle 11025" width="34" height="34" transform="translate(125 335)" fill="#282828" opacity="0"/>
    <path id="manage_accounts_FILL0_wght400_GRAD0_opsz48" d="M92.075,282.321a5.429,5.429,0,1,1,4.075-1.585A5.517,5.517,0,0,1,92.075,282.321ZM80,294.434v-3.547a4.393,4.393,0,0,1,.66-2.377,4.253,4.253,0,0,1,1.906-1.623,27.643,27.643,0,0,1,5.038-1.736,20.135,20.135,0,0,1,4.472-.528h.868a5.869,5.869,0,0,0-.34,1.038,11.118,11.118,0,0,0-.189,1.226h-.34a18.749,18.749,0,0,0-8.6,2.038,2.047,2.047,0,0,0-.906.849,2.28,2.28,0,0,0-.3,1.113v1.283H92.415a7.337,7.337,0,0,0,.453,1.226,5.918,5.918,0,0,0,.642,1.038Zm12.075-14.377a3.291,3.291,0,1,0-2.434-.962A3.3,3.3,0,0,0,92.075,280.057ZM92.075,276.66ZM92.415,292.17Z" transform="translate(47 68.453)" fill="#282828"/>
    <path id="disabled_visible_FILL0_wght500_GRAD0_opsz48" d="M94.469,194.961a8.147,8.147,0,0,0,4.075-1.089,9.013,9.013,0,0,0,3.146-2.961,9.013,9.013,0,0,0-3.146-2.961,8.171,8.171,0,0,0-8.15,0,9.013,9.013,0,0,0-3.146,2.961,9.013,9.013,0,0,0,3.146,2.961A8.147,8.147,0,0,0,94.469,194.961Zm0,2.113a10.284,10.284,0,0,1-5.827-1.716,9.829,9.829,0,0,1-3.726-4.446,9.829,9.829,0,0,1,3.726-4.446,10.752,10.752,0,0,1,11.654,0,9.829,9.829,0,0,1,3.726,4.446,9.829,9.829,0,0,1-3.726,4.446A10.284,10.284,0,0,1,94.469,197.075Zm0-4.089a2.058,2.058,0,1,1,1.47-.6A2,2,0,0,1,94.469,192.985Z" transform="translate(53.978 167.106)" fill="#282828"/>
  </g>
</svg>
