<svg xmlns="http://www.w3.org/2000/svg" width="34" height="34" viewBox="0 0 34 34">
  <g id="Group_19764" data-name="Group 19764" transform="translate(-125 -335)">
    <rect id="Rectangle_11025" data-name="Rectangle 11025" width="34" height="34" transform="translate(125 335)" fill="#282828" opacity="0"/>
    <path id="insights_FILL0_wght400_GRAD0_opsz48" d="M42.383,242.42a2.386,2.386,0,0,1,0-4.773q.178,0,.349.017a3.274,3.274,0,0,1,.443.085l6.818-6.818a3.255,3.255,0,0,1-.085-.443q-.017-.171-.017-.349a2.383,2.383,0,0,1,4.074-1.675,2.313,2.313,0,0,1,.7,1.691q0,.06-.1.776l3.75,3.75a3.242,3.242,0,0,1,.443-.085q.17-.017.341-.017t.341.017a3.243,3.243,0,0,1,.443.085l5.455-5.455a3.251,3.251,0,0,1-.085-.443q-.017-.171-.017-.349a2.387,2.387,0,1,1,2.394,2.395q-.178,0-.349-.017a3.238,3.238,0,0,1-.443-.085l-5.455,5.454a3.256,3.256,0,0,1,.085.443q.017.171.017.349a2.386,2.386,0,0,1-4.773,0q0-.178.017-.349a3.252,3.252,0,0,1,.085-.443l-3.75-3.75a3.243,3.243,0,0,1-.443.085q-.17.017-.349.017-.06,0-.776-.1L44.67,239.25a3.255,3.255,0,0,1,.085.443q.017.171.017.349a2.391,2.391,0,0,1-2.389,2.378Zm1.708-15.068-.69-1.491-1.491-.69,1.491-.69.69-1.491.69,1.491,1.491.69-1.491.69Zm15-1.739-1.047-2.26-2.26-1.047,2.26-1.047L59.091,219l1.047,2.26,2.26,1.047-2.26,1.047Z" transform="translate(87 121.29)" fill="#282828"/>
  </g>
</svg>
