<svg id="Component_91_9" data-name="Component 91 – 9" xmlns="http://www.w3.org/2000/svg" width="24" height="24" viewBox="0 0 24 24">
  <g id="Icon_ionic-ios-notifications" data-name="Icon ionic-ios-notifications" transform="translate(52.239 21.07)">
    <g id="Group_19830" data-name="Group 19830" transform="translate(-55 -23)">
      <path id="Path_20901" data-name="Path 20901" d="M17.073,31.051a2.415,2.415,0,0,0,2.464-2.715H14.6A2.416,2.416,0,0,0,17.073,31.051Z" transform="translate(-2.13 -6.627)" fill="none" stroke="#474747" stroke-width="1.5"/>
      <path id="Path_20902" data-name="Path 20902" d="M22.939,19.107C22.15,18.067,20.6,17.458,20.6,12.8c0-4.779-2.11-6.7-4.077-7.161-.184-.046-.318-.108-.318-.3V5.19a1.25,1.25,0,1,0-2.5,0v.149c0,.19-.133.256-.318.3-1.972.466-4.077,2.382-4.077,7.161,0,4.656-1.552,5.26-2.341,6.305a1.017,1.017,0,0,0,.814,1.629H22.129A1.017,1.017,0,0,0,22.939,19.107Z" transform="translate(0 0)" fill="none" stroke="#474747" stroke-width="1.5"/>
    </g>
  </g>
  <rect id="Rectangle_11035" data-name="Rectangle 11035" width="24" height="24" fill="none"/>
</svg>
