<svg id="layer_1" enable-background="new 0 0 32 32" height="512" viewBox="0 0 32 32" width="512" xmlns="http://www.w3.org/2000/svg"><path d="m25 3.9599609h-1.5v-.9599609c0-.5522461-.4472656-1-1-1s-1 .4477539-1 1v.9599609h-11v-.9599609c0-.5522461-.4472656-1-1-1s-1 .4477539-1 1v.9599609h-1.5c-2.7568359 0-5 2.2431641-5 5v16.0400391c0 2.7568359 2.2431641 5 5 5h18c2.7568359 0 5-2.2431641 5-5v-16.0400391c0-2.7568359-2.2431641-5-5-5zm-21 5c0-1.6542969 1.3457031-3 3-3h1.5v.9594727c0 .5522461.4472656 1 1 1s1-.4477539 1-1v-.9594727h11v.9594727c0 .5522461.4472656 1 1 1s1-.4477539 1-1v-.9594727h1.5c1.6542969 0 3 1.3457031 3 3v1.0097656h-24zm21 19.0400391h-18c-1.6542969 0-3-1.3457031-3-3v-13.0302734h24v13.0302734c0 1.6542969-1.3457031 3-3 3z"/><path d="m20.4228516 21.8513184v-3.5979004c0-2.0908813-1.4647827-3.8377686-3.4276733-4.2924194-.0134278-.5405274-.4509278-.9761353-.9951783-.9761353-.5432129 0-.9796143.434082-.9946289.9732666-1.9589844.4511108-3.4282227 2.2009888-3.4282227 4.2952881v3.5979004c-.4595337.0904541-.8125.4763794-.8125.9621582 0 .5522461.4472656 1 1 1h8.4707031c.5527344 0 1-.4477539 1-1 .0000001-.4857788-.3529662-.8717041-.8124999-.9621582zm-6.8457032-.0378418v-3.5600586c0-1.3320312 1.0839844-2.4160156 2.4296875-2.4160156 1.3320312 0 2.4160156 1.0839844 2.4160156 2.4160156v3.5600586z"/><path d="m17.2978516 24.9848633h-2.609375c-.5527344 0-1 .4477539-1 1s.4472656 1 1 1h2.609375c.5527344 0 1-.4477539 1-1s-.4472657-1-1-1z"/></svg>