<svg width="83" height="41" viewBox="0 0 83 41" fill="none" xmlns="http://www.w3.org/2000/svg">
<rect width="83" height="41" fill="black"/>
<g clip-path="url(#clip0_3970_24632)">
<rect width="63" height="21" transform="translate(10 10)" fill="black"/>
<path d="M16.9055 29.4005C14.7501 29.4005 13.0626 28.7198 11.8432 27.3586C10.6099 26.0129 10 24.1255 10 21.7433C10 19.3751 10.6239 17.5035 11.8432 16.1433C13.0769 14.7821 14.7644 14.1015 16.9055 14.1015C19.0609 14.1015 20.7484 14.7821 21.9678 16.1433C23.2016 17.5044 23.811 19.3765 23.811 21.7433C23.811 24.1255 23.2011 26.0116 21.9678 27.3586C20.7484 28.7198 19.0609 29.4005 16.9055 29.4005ZM16.9055 27.4155C17.487 27.4388 18.0649 27.3147 18.5856 27.0546C19.1062 26.7945 19.5525 26.407 19.8831 25.928C20.6063 24.9218 20.9607 23.5318 20.9607 21.7451C20.9607 19.9728 20.6063 18.5951 19.8831 17.5888C19.5525 17.1099 19.1062 16.7223 18.5856 16.4623C18.0649 16.2022 17.487 16.078 16.9055 16.1013C16.324 16.078 15.7461 16.2022 15.2254 16.4623C14.7048 16.7223 14.2585 17.1099 13.9279 17.5888C13.2047 18.5951 12.8503 19.971 12.8503 21.7451C12.8503 23.5318 13.2047 24.9213 13.9279 25.928C14.2585 26.4069 14.7049 26.7943 15.2255 27.0543C15.7461 27.3143 16.324 27.4389 16.9055 27.4155ZM28.8304 29.0754V14.441H31.4812V17.1754C32.8283 15.1336 34.6435 14.0985 36.9264 14.0985C37.8435 14.1134 38.7563 14.2275 39.6489 14.4388V18.6078H37.6644V16.5515C37.3106 16.4719 36.9495 16.4291 36.5869 16.4238C35.6406 16.4069 34.7081 16.6524 33.8927 17.133C32.9422 17.7747 32.1239 18.5931 31.4821 19.5436V29.0754H28.8304ZM55.0769 29.0614C53.8032 29.2835 52.5129 29.3974 51.2199 29.4018C49.0648 29.4018 47.5887 29.019 46.8099 28.2389C46.0312 27.4588 45.6331 25.9985 45.6331 23.8289V16.7523H41.9887V14.7691H45.6331V11.6191H48.2848V14.7691H54.779V16.7541H48.2848V24.2673C48.2525 24.8438 48.3051 25.4219 48.4409 25.9831C48.5587 26.3275 48.7948 26.6189 49.1073 26.8056C49.9222 27.2655 50.8537 27.4775 51.7874 27.4155C52.8941 27.4128 53.9971 27.2891 55.0769 27.0467V29.0614Z" fill="white"/>
<path d="M57.9413 29.4009V27.416H73V29.4009H57.9413Z" fill="#174fa3"/>
</g>
<defs>
<clipPath id="clip0_3970_24632">
<rect width="63" height="21" fill="white" transform="translate(10 10)"/>
</clipPath>
</defs>
</svg>
