<svg xmlns="http://www.w3.org/2000/svg" width="24" height="24" viewBox="0 0 24 24">
  <g id="upload_icon-24px" transform="translate(17590 -2182)">
    <rect id="Rectangle_5949" data-name="Rectangle 5949" width="24" height="24" transform="translate(-17590 2182)" fill="none"/>
    <path id="file_upload_FILL0_wght400_GRAD0_opsz24" d="M14,18.894a1.23,1.23,0,0,1-1.25-1.25V8.706L10.406,11.05a1.2,1.2,0,0,1-.875.375,1.255,1.255,0,0,1-.906-.406,1.162,1.162,0,0,1-.359-.891,1.218,1.218,0,0,1,.359-.859l4.5-4.5a1.1,1.1,0,0,1,.406-.266,1.456,1.456,0,0,1,.938,0,1.1,1.1,0,0,1,.406.266l4.5,4.5a1.161,1.161,0,0,1,.359.89,1.22,1.22,0,0,1-.359.86,1.271,1.271,0,0,1-.89.39,1.162,1.162,0,0,1-.891-.359L15.25,8.706v8.937A1.228,1.228,0,0,1,14,18.894Zm-7.5,5a2.507,2.507,0,0,1-2.5-2.5v-2.5a1.226,1.226,0,0,1,1.25-1.25,1.226,1.226,0,0,1,1.25,1.25v2.5h15v-2.5a1.25,1.25,0,1,1,2.5,0v2.5a2.505,2.505,0,0,1-2.5,2.5Z" transform="translate(-17592 2179.825)" fill="#174fa3"/>
  </g>
</svg>
