<svg xmlns="http://www.w3.org/2000/svg" width="32" height="32" viewBox="0 0 32 32">
  <g id="menu_icon_thin" transform="translate(136 -191)">
    <rect id="icon_frame" width="32" height="32" transform="translate(-136 191)" fill="none" opacity="0"/>
    <path id="power_rounded_FILL0_wght300_GRAD0_opsz48" d="M18.86,20.235a.776.776,0,0,1-.8-.8V7.5a.8.8,0,1,1,1.6,0v11.93a.776.776,0,0,1-.8.8Zm0,10.465a11.37,11.37,0,0,1-4.622-.942,12.024,12.024,0,0,1-6.3-6.314A11.407,11.407,0,0,1,7,18.84a11.1,11.1,0,0,1,.977-4.587,12.647,12.647,0,0,1,2.721-3.89.842.842,0,0,1,1.186,0,.705.705,0,0,1,.174.558.918.918,0,0,1-.279.558,10.48,10.48,0,0,0-2.372,3.349A9.766,9.766,0,0,0,8.57,18.84a9.868,9.868,0,0,0,3,7.273A9.954,9.954,0,0,0,18.86,29.1a9.955,9.955,0,0,0,7.291-2.983,9.868,9.868,0,0,0,3-7.273,9.944,9.944,0,0,0-.82-4.012,10.64,10.64,0,0,0-2.355-3.384A.8.8,0,0,1,25.7,10.9a.59.59,0,0,1,.209-.541.684.684,0,0,1,.61-.244,1.031,1.031,0,0,1,.645.314A11.843,11.843,0,0,1,29.8,14.27a11.742,11.742,0,0,1-.017,9.174,12.024,12.024,0,0,1-6.3,6.314A11.37,11.37,0,0,1,18.86,30.7Z" transform="translate(-138.9 188.3)" fill="#f24b59"/>
  </g>
</svg>
