<svg xmlns="http://www.w3.org/2000/svg" width="165" height="32" viewBox="0 0 165 32">
  <g id="zentro_trackpro_logo" transform="translate(0 1.667)">
    <rect id="logo_frame" width="165" height="32" transform="translate(0 -1.667)" fill="none"/>
    <g id="zentro_logo" transform="translate(0 1.333)">
      <path id="Path_11570" data-name="Path 11570" d="M10.194,26a9.565,9.565,0,0,1-7.473-2.985C.9,21.045,0,18.286,0,14.8A11.772,11.772,0,0,1,2.721,6.615a9.626,9.626,0,0,1,7.473-2.985,9.565,9.565,0,0,1,7.473,2.985c1.821,1.99,2.721,4.727,2.721,8.188,0,3.483-.9,6.241-2.721,8.21A9.565,9.565,0,0,1,10.194,26Zm0-2.9a5.109,5.109,0,0,0,4.4-2.175,10.234,10.234,0,0,0,1.591-6.116,10.149,10.149,0,0,0-1.591-6.077,5.109,5.109,0,0,0-4.4-2.175A5.109,5.109,0,0,0,5.8,8.728a10.143,10.143,0,0,0-1.591,6.077A10.236,10.236,0,0,0,5.8,20.921a5.109,5.109,0,0,0,4.4,2.174Zm17.6,2.427V4.126H31.71v4a9.235,9.235,0,0,1,8.038-4.5,18.941,18.941,0,0,1,4.019.5v6.1H40.838V7.212a7.839,7.839,0,0,0-1.591-.187A7.624,7.624,0,0,0,35.27,8.062a13.156,13.156,0,0,0-3.559,3.525V25.523Zm38.745-.02a34.121,34.121,0,0,1-5.694.5c-3.181,0-5.36-.56-6.51-1.7S52.6,21.024,52.6,17.852V7.505h-5.38v-2.9H52.6V0h3.914V4.606H66.1v2.9H56.515V18.493A8.535,8.535,0,0,0,56.746,21a2.254,2.254,0,0,0,.984,1.2,7.15,7.15,0,0,0,3.956.892,22.634,22.634,0,0,0,4.856-.539Z"/>
      <path id="Path_11571" data-name="Path 11571" d="M3381,1116.9V1114h22.23v2.9Z" transform="translate(-3310.229 -1090.905)" fill="#174fa3"/>
    </g>
    <path id="trackpro_logo" d="M6.47,31.9a1.157,1.157,0,0,1-.808-.274,1.2,1.2,0,0,1-.37-.754l-4-21.977L1.254,8.62a.677.677,0,0,1,.219-.514A.7.7,0,0,1,1.961,7.9H4.922q.841,0,.942.686L8.658,24.117l3.029-10.046a1.155,1.155,0,0,1,1.111-.857h1.817a1.035,1.035,0,0,1,1.077.857l3.063,10.011,2.793-15.5a.784.784,0,0,1,.286-.531A1.141,1.141,0,0,1,22.49,7.9h2.962a.64.64,0,0,1,.471.206.7.7,0,0,1,.2.514.908.908,0,0,1-.034.274l-4,21.977A1.086,1.086,0,0,1,20.908,31.9H18.653a1.208,1.208,0,0,1-.774-.24,1.145,1.145,0,0,1-.4-.617L13.706,19.591,9.937,31.043a1.216,1.216,0,0,1-1.212.857Zm21.2,0a.7.7,0,0,1-.488-.206.677.677,0,0,1-.219-.514l.067-.309L35.143,8.757A1.1,1.1,0,0,1,36.321,7.9H39.99a1.159,1.159,0,0,1,1.178.857l8.111,22.114a1.059,1.059,0,0,1,.034.309.7.7,0,0,1-.2.514.64.64,0,0,1-.471.206H45.711a.992.992,0,0,1-.673-.206.933.933,0,0,1-.3-.446l-1.582-4.183h-10l-1.582,4.183a.975.975,0,0,1-.976.651Zm14.3-8.777L38.139,12.529l-3.8,10.594ZM53.249,31.9a.772.772,0,0,1-.572-.24.8.8,0,0,1-.236-.583V8.757a.881.881,0,0,1,.219-.617.758.758,0,0,1,.589-.24h8.716A9.752,9.752,0,0,1,68.41,9.854a6.833,6.833,0,0,1,2.339,5.554,7.115,7.115,0,0,1-1.195,4.2A6.656,6.656,0,0,1,66.24,22.06L71.153,30.8a.866.866,0,0,1,.1.377.677.677,0,0,1-.219.514.7.7,0,0,1-.488.206H67.485a1.251,1.251,0,0,1-.825-.24,2.261,2.261,0,0,1-.522-.686L61.8,22.849H57.119v8.229a.834.834,0,0,1-.219.583.758.758,0,0,1-.589.24Zm8.615-12.926a4.415,4.415,0,0,0,3.046-.926,3.416,3.416,0,0,0,1.026-2.674,3.527,3.527,0,0,0-1.026-2.709,4.31,4.31,0,0,0-3.046-.96H57.119v7.269Z" transform="translate(93.746 -4.567)" fill="#174fa3"/>
  </g>
</svg>
