<svg xmlns="http://www.w3.org/2000/svg" width="32" height="32" viewBox="0 0 32 32">
  <g id="blue_payslip" data-name="blue payslip" transform="translate(-2346 -50)">
    <rect id="icon_frame" width="32" height="32" transform="translate(2346 50)" fill="#b66dff" opacity="0"/>
    <path id="receipt_long_FILL0_wght300_GRAD0_opsz48_1_" data-name="receipt_long_FILL0_wght300_GRAD0_opsz48 (1)" d="M9.74,29.4A2.833,2.833,0,0,1,6.9,26.56V23.24h3.989V5.4l1.755,1.5,1.787-1.5,1.787,1.5,1.787-1.5,1.787,1.5,1.787-1.5L23.4,6.9l1.787-1.5,1.787,1.5L28.73,5.4V26.56a2.833,2.833,0,0,1-2.84,2.84Zm16.149-1.436a1.364,1.364,0,0,0,1.4-1.4V7.857H12.326V23.24H24.517V26.56a1.393,1.393,0,0,0,.383,1.005,1.31,1.31,0,0,0,.989.4ZM14.145,12.613V11.145h7.245v1.468Zm0,4.149V15.326h7.245v1.436Zm10.213-3.989a.928.928,0,1,1,.622-.271A.856.856,0,0,1,24.357,12.772Zm0,4.053a.928.928,0,1,1,.622-.271A.856.856,0,0,1,24.357,16.826ZM9.709,27.964h13.34V24.709H8.336V26.56a1.363,1.363,0,0,0,.4,1.005A1.324,1.324,0,0,0,9.709,27.964Zm-1.372,0v0Z" transform="translate(2343.9 48.6)" fill="#b66dff"/>
  </g>
</svg>
