<svg id="Layer_1" data-name="Layer 1" xmlns="http://www.w3.org/2000/svg" viewBox="0 0 800 800"><defs><style>.cls-1{fill:#f24b59;}.cls-2{fill:none;}</style></defs><path class="cls-1" d="M416.67,73.33h0C214.11,73.33,52.52,248.75,75.52,456c17.6,158.53,143.32,284.26,301.86,301.85C584.59,780.82,760,619.23,760,416.67h0C760,227.05,606.28,73.33,416.67,73.33Zm0,653.34h0C230.76,726.67,83.08,563,109.8,371.93c19-135.79,126.34-243.14,262.13-262.13C563,83.08,726.67,230.76,726.67,416.67,726.48,587.8,587.8,726.48,416.67,726.67Z"/><path class="cls-2" d="M0,0H800V800H0Z"/><rect class="cls-1" x="306.01" y="306.01" width="221.32" height="221.32"/></svg>