<svg xmlns="http://www.w3.org/2000/svg" width="38" height="38" viewBox="0 0 38 38">
  <path id="play_circle_FILL0_wght300_GRAD0_opsz48" d="M19.6,31.7,31.7,24,19.6,16.3ZM24,43a18.41,18.41,0,0,1-7.375-1.5A19.05,19.05,0,0,1,6.5,31.375a19,19,0,0,1,0-14.8,18.952,18.952,0,0,1,4.075-6.025,19.469,19.469,0,0,1,6.05-4.05,19,19,0,0,1,14.8,0A18.869,18.869,0,0,1,41.5,16.575a19,19,0,0,1,0,14.8,19.469,19.469,0,0,1-4.05,6.05A18.952,18.952,0,0,1,31.425,41.5,18.533,18.533,0,0,1,24,43Zm0-2.25a16.119,16.119,0,0,0,11.875-4.9A16.185,16.185,0,0,0,40.75,24a16.161,16.161,0,0,0-4.875-11.875A16.161,16.161,0,0,0,24,7.25a16.185,16.185,0,0,0-11.85,4.875A16.119,16.119,0,0,0,7.25,24a16.143,16.143,0,0,0,4.9,11.85A16.143,16.143,0,0,0,24,40.75ZM24,24Z" transform="translate(-5 -5)" fill="#3dab45"/>
</svg>
