<svg xmlns="http://www.w3.org/2000/svg" width="80" height="80" viewBox="0 0 80 80">
  <path id="task_alt_FILL0_wght400_GRAD0_opsz48_1_" data-name="task_alt_FILL0_wght400_GRAD0_opsz48 (1)" d="M43.95,84a40.476,40.476,0,0,1-15.78-3.05A38.691,38.691,0,0,1,7.046,59.8,40.615,40.615,0,0,1,4,44,40.355,40.355,0,0,1,7.046,28.3a39.043,39.043,0,0,1,8.439-12.7A39.8,39.8,0,0,1,43.95,4,40.009,40.009,0,0,1,57.933,6.4,41.1,41.1,0,0,1,69.618,13l-4.295,4.3a33.409,33.409,0,0,0-9.788-5.4A34.622,34.622,0,0,0,43.95,10q-14.482,0-24.22,9.75T9.993,44q0,14.5,9.738,24.25T43.95,78q14.482,0,24.22-9.75T77.908,44a37.5,37.5,0,0,0-.449-5.85A34.6,34.6,0,0,0,76.11,32.6L80.7,28a38.269,38.269,0,0,1,2.4,7.7,42.281,42.281,0,0,1,.8,8.3A39.9,39.9,0,0,1,72.315,72.5,38.987,38.987,0,0,1,59.63,80.95,40.217,40.217,0,0,1,43.95,84ZM38.057,62.2,21.578,45.6l4.494-4.5,11.985,12L79.406,11.7,84,16.2Z" transform="translate(-4 -4)" fill="#3dab45"/>
</svg>
