<svg xmlns="http://www.w3.org/2000/svg" xmlns:xlink="http://www.w3.org/1999/xlink" width="64.888" height="65" viewBox="0 0 64.888 65">
  <defs>
    <clipPath id="clip-path">
      <ellipse id="Ellipse_187" data-name="Ellipse 187" cx="31.944" cy="32" rx="31.944" ry="32" fill="none" stroke="#282828" stroke-width="1"/>
    </clipPath>
  </defs>
  <g id="Layer_2" data-name="Layer 2" transform="translate(0.5 0.5)">
    <g id="OBEJCTS">
      <g id="Group_17017" data-name="Group 17017" transform="translate(0.112)" clip-path="url(#clip-path)">
        <path id="Path_14995" data-name="Path 14995" d="M145.74,115.8a5.964,5.964,0,0,1-.966-2.179c-.371-1.748.224-3.129,1.793-6.924.3-.725.946-2.28,1.824-4.416a7.975,7.975,0,0,1-1.078-1.909c-.9-2.279-.363-4.086,1.2-9.923,1.478-5.53,1.737-6.687,3.063-8.159a7.543,7.543,0,0,1,3.737-2.457,7.279,7.279,0,0,1,4.563.337,7.423,7.423,0,0,1,4.254-.421c2.939.634,4.511,3.125,5.753,5.09.936,1.481,1.613,4.721,2.968,11.2.377,1.808.81,4.03-.427,5.34a2.975,2.975,0,0,1-1.167.743,28.393,28.393,0,0,0,1.764,4.871c1.093,2.321,2.074,3.564,2.22,5.7a8.17,8.17,0,0,1-.307,2.807Z" transform="translate(-127.564 -69.662)" fill="#174fa3"/>
        <path id="Path_14996" data-name="Path 14996" d="M197.744,248.93l-1.36,2.081c-.179.273-.392.6-.285.9.045.126.163.289.841.542a7.134,7.134,0,0,0,1.44.374Z" transform="translate(-174.206 -220.98)" fill="rgba(0,0,0,0.5)" opacity="0.8"/>
        <path id="Path_14997" data-name="Path 14997" d="M343.918,248.93c.494.755.92,1.409,1.361,2.081.179.273.392.6.284.9-.034.093-.139.3-.841.542a5.244,5.244,0,0,1-1.681.272Q343.476,250.826,343.918,248.93Z" transform="translate(-304.703 -220.98)" fill="rgba(0,0,0,0.5)" opacity="0.8"/>
        <path id="Path_15167" data-name="Path 15167" d="M145.74,115.8a5.964,5.964,0,0,1-.966-2.179c-.371-1.748.224-3.129,1.793-6.924.3-.725.946-2.28,1.824-4.416a7.975,7.975,0,0,1-1.078-1.909c-.9-2.279-.363-4.086,1.2-9.923,1.478-5.53,1.737-6.687,3.063-8.159a7.543,7.543,0,0,1,3.737-2.457,7.279,7.279,0,0,1,4.563.337,7.423,7.423,0,0,1,4.254-.421c2.939.634,4.511,3.125,5.753,5.09.936,1.481,1.613,4.721,2.968,11.2.377,1.808.81,4.03-.427,5.34a2.975,2.975,0,0,1-1.167.743,28.393,28.393,0,0,0,1.764,4.871c1.093,2.321,2.074,3.564,2.22,5.7a8.17,8.17,0,0,1-.307,2.807Z" transform="translate(-128.564 -70.662)" fill="none" stroke="#282828" stroke-width="1"/>
        <path id="Path_14998" data-name="Path 14998" d="M222.33,398.94a51.963,51.963,0,0,0,4.427,19.686h4.379a38.828,38.828,0,0,0,4.062-14.091,37.889,37.889,0,0,0,.085-5.446,12.5,12.5,0,0,1-12.954-.149Z" transform="translate(-196.522 -352.147)" fill="#174fa3"/>
        <path id="Path_14999" data-name="Path 14999" d="M237.565,379.1l-12.665.356.084,2.021a10.192,10.192,0,0,0,12.58,0Z" transform="translate(-199.804 -336.534)" fill="#174fa3" stroke="#282828" stroke-width="1"/>
        <path id="Path_15000" data-name="Path 15000" d="M113.834,389.21c-2.717.929-4.85,1.8-6.365,2.458-.842.367-2.158.962-2.354,2.021a4.312,4.312,0,0,0,.168,1.347,10.185,10.185,0,0,1-.045,2.635,41.375,41.375,0,0,1-.908,5.277,25.775,25.775,0,0,0,10.237,5.465l2.914-3.069.823-6.312Z" transform="translate(-92.748 -345.509)" fill="#f0f1f2" stroke="#282828" stroke-width="1"/>
        <path id="Path_15001" data-name="Path 15001" d="M177.62,379.1a67.81,67.81,0,0,0,4.147,21.914,25.688,25.688,0,0,1-7.417-1.572l-2.242-5.24,4.83-2.47-5.278-.972,1.957-10.524Z" transform="translate(-152.532 -336.534)" fill="#f0f1f2" stroke="#282828" stroke-width="1"/>
        <path id="Path_15002" data-name="Path 15002" d="M148,486.438a68.81,68.81,0,0,1,.673-7,26.106,26.106,0,0,1-.019,3.032c-.039,1.75-.087,3.2-.126,4.218Z" transform="translate(-131.524 -425.608)" fill="#bab9a8"/>
        <path id="Path_15003" data-name="Path 15003" d="M112.4,423.8q3.19,4.042,3.243,4t-3.094-4.255C112.5,423.625,112.449,423.711,112.4,423.8Z" transform="translate(-99.914 -375.985)" fill="#bab9a8"/>
        <path id="Path_15004" data-name="Path 15004" d="M338.2,389.21c2.717.929,4.849,1.8,6.365,2.458.841.367,2.158.962,2.354,2.021a4.347,4.347,0,0,1-.168,1.347,10.185,10.185,0,0,0,.045,2.635,40.963,40.963,0,0,0,.908,5.277,25.765,25.765,0,0,1-10.238,5.465l-2.914-3.069-.822-6.316Z" transform="translate(-296.436 -345.509)" fill="#f0f1f2" stroke="#282828" stroke-width="1"/>
        <path id="Path_15005" data-name="Path 15005" d="M305.047,379.1a68.159,68.159,0,0,1-4.147,21.914,25.689,25.689,0,0,0,7.415-1.572q1.121-2.618,2.242-5.24l-4.826-2.47,5.277-.972q-.979-5.261-1.956-10.524Z" transform="translate(-267.286 -336.534)" fill="#f0f1f2" stroke="#282828" stroke-width="1"/>
        <path id="Path_15006" data-name="Path 15006" d="M409.163,486.438a69.327,69.327,0,0,0-.673-7,26.114,26.114,0,0,0,.019,3.032c.039,1.747.087,3.207.123,4.217Z" transform="translate(-362.79 -425.608)" fill="rgba(80,80,80,0.12)"/>
        <path id="Path_15007" data-name="Path 15007" d="M424.635,423.8q-3.189,4.042-3.243,4t3.094-4.255Z" transform="translate(-374.273 -375.985)" fill="rgba(80,80,80,0.12)"/>
        <path id="Path_15008" data-name="Path 15008" d="M237.515,333.187a8.238,8.238,0,0,1-12.685,0,5.738,5.738,0,0,0,2.41-2.807,5.669,5.669,0,0,0,.306-3h7.325a5.163,5.163,0,0,0,.605,4.106,4.651,4.651,0,0,0,.568.692A4.931,4.931,0,0,0,237.515,333.187Z" transform="translate(-199.742 -290.622)" fill="#f0f1f2" stroke="#707070" stroke-width="1"/>
        <path id="Path_15009" data-name="Path 15009" d="M257.558,332.178a13.526,13.526,0,0,1-8.5-4.8h7.325a5.163,5.163,0,0,0,.605,4.106A4.652,4.652,0,0,0,257.558,332.178Z" transform="translate(-221.256 -290.622)" fill="rgba(0,0,0,0.12)" opacity="0.8"/>
        <path id="Path_15010" data-name="Path 15010" d="M226.718,145.327l-.141.692c-.112.551-.253,1.235-.419,2-.448,2.105-.673,3.158-.785,3.421-.91,2.146-3.836,3.615-6.573,3.578a7.464,7.464,0,0,1-6.415-3.663,11.284,11.284,0,0,1-.72-2.133,19.536,19.536,0,0,1-.593-3.313q-.028-.312-.044-.579a21.152,21.152,0,0,0,1.419-3.293,22.329,22.329,0,0,0,.6-2.166c.09-.4.166-.777.234-1.144.482-2.576.576-4.44,2.086-5.7a2.343,2.343,0,0,1,1.787-.68c1.1.173,1.652,1.488,1.731,1.684a2.5,2.5,0,0,1,2.006-1.805,2.332,2.332,0,0,1,1.681.832,5.777,5.777,0,0,1,1.494,3.556,18.6,18.6,0,0,0,.4,2.3c.092.392.2.811.331,1.254a41.166,41.166,0,0,0,1.917,5.159Z" transform="translate(-187.489 -117.377)" fill="#f0f1f2" stroke="#282828" stroke-width="1"/>
        <path id="Path_15012" data-name="Path 15012" d="M270.92,232.679l-.934,3.27a.45.45,0,0,0,.081.4,1.473,1.473,0,0,0,1.208.561,1.5,1.5,0,0,0,1.088-.561.443.443,0,0,0,.083-.411l-.966-3.256a.294.294,0,0,0-.224-.281.3.3,0,0,0-.336.276Z" transform="translate(-239.822 -206.307)" fill="rgba(0,0,0,0.12)"/>
        <path id="Path_15013" data-name="Path 15013" d="M233.087,188.027a.387.387,0,0,1-.458.165,3.323,3.323,0,0,0-2.12-.449,3.283,3.283,0,0,0-1.509.6c.09-.4.166-.777.234-1.144a3.508,3.508,0,0,1,1.2-.35,3.67,3.67,0,0,1,2.494.658A.392.392,0,0,1,233.087,188.027Z" transform="translate(-203.445 -165.855)" fill="#613125" opacity="0"/>
        <path id="Path_15014" data-name="Path 15014" d="M299.327,189.523a3.287,3.287,0,0,0-3.858-.337.385.385,0,0,1-.458-.165.391.391,0,0,1,.155-.521,3.67,3.67,0,0,1,2.495-.653,3.528,3.528,0,0,1,1.337.426C299.088,188.66,299.2,189.082,299.327,189.523Z" transform="translate(-262.017 -166.738)" fill="#613125" opacity="0"/>
        <path id="Path_15015" data-name="Path 15015" d="M224.83,211.434a2.226,2.226,0,0,1,2.6-1.386,2.2,2.2,0,0,1,1.55,1.947,2.533,2.533,0,0,0-1.569-1.423A2.508,2.508,0,0,0,224.83,211.434Z" transform="translate(-199.742 -186.403)" fill="#40211f" opacity="0"/>
        <path id="Path_15016" data-name="Path 15016" d="M305.147,211.434a2.227,2.227,0,0,0-2.6-1.386A2.2,2.2,0,0,0,301,212a2.4,2.4,0,0,1,4.147-.561Z" transform="translate(-267.375 -186.403)" fill="#40211f" opacity="0"/>
        <ellipse id="Ellipse_185" data-name="Ellipse 185" cx="0.855" cy="1.258" rx="0.855" ry="1.258" transform="translate(26.488 24.697)" fill="#2c1515" opacity="0"/>
        <path id="Path_15017" data-name="Path 15017" d="M246.29,224.944a.175.175,0,1,1-.174-.174A.175.175,0,0,1,246.29,224.944Z" transform="translate(-218.486 -199.533)" fill="#fff" opacity="0"/>
        <ellipse id="Ellipse_186" data-name="Ellipse 186" cx="0.855" cy="1.258" rx="0.855" ry="1.258" transform="translate(34.591 24.697)" fill="#2c1515" opacity="0"/>
        <path id="Path_15018" data-name="Path 15018" d="M318.59,224.944a.175.175,0,1,1-.174-.174A.175.175,0,0,1,318.59,224.944Z" transform="translate(-282.682 -199.533)" fill="#fff" opacity="0"/>
        <path id="Path_15019" data-name="Path 15019" d="M253.151,280.42a4.183,4.183,0,0,0,3.326,1.7,4.076,4.076,0,0,0,3.007-1.684,5.388,5.388,0,0,1-2.858,1.291A5.723,5.723,0,0,1,253.151,280.42Z" transform="translate(-224.888 -248.932)" fill="#c97b5c" opacity="0"/>
      </g>
      <ellipse id="Ellipse_184" data-name="Ellipse 184" cx="31.944" cy="32" rx="31.944" ry="32" fill="none" stroke="#282828" stroke-width="1"/>
    </g>
  </g>
</svg>
