<svg xmlns="http://www.w3.org/2000/svg" width="48" height="48" viewBox="0 0 48 48">
  <g id="Group_17038" data-name="Group 17038" transform="translate(-1616 -172)">
    <rect id="icon_placeholder" width="48" height="48" transform="translate(1616 172)" fill="none" opacity="0"/>
    <path id="event_busy_FILL0_wght300_GRAD0_opsz48" d="M17.165,31.1l-1.38-1.38,4.1-4.058-4.1-4.058,1.38-1.38,4.058,4.1,4.058-4.1,1.38,1.38-4.1,4.058,4.1,4.058L25.28,31.1,21.222,27ZM7,36.75V7.678h5.522V4.75h2.092V7.678h13.3V4.75h2.05V7.678h5.48V36.75Zm1.882-1.882h24.68V17.717H8.882Zm0-19.033h24.68V9.6H8.882Zm0,0v0Z" transform="translate(1618.778 175.25)" fill="#f24b59"/>
  </g>
</svg>
