<svg xmlns="http://www.w3.org/2000/svg" width="48" height="48" viewBox="0 0 48 48">
  <g id="Group_17047" data-name="Group 17047" transform="translate(-1616 -172)">
    <rect id="icon_placeholder" width="48" height="48" transform="translate(1616 172)" fill="none" opacity="0"/>
    <path id="add_home_work_FILL0_wght300_GRAD0_opsz40" d="M8.367,26.5V19.224h7.771v0H8.367ZM24.633,13.053ZM2.5,28.4V14.5l9.753-6.971L21.967,14.5v2.438a8.795,8.795,0,0,0-1.943,1.943V15.453L12.253,9.929,4.4,15.49V26.5H8.367V19.224h7.771V26.5h1.98a6.422,6.422,0,0,0,.229.971,6.568,6.568,0,0,0,.381.933H14.2V21.167H10.271V28.4Zm32-25.9V17.586a8.764,8.764,0,0,0-.9-.781,9.233,9.233,0,0,0-1.009-.667V4.4H17.776V8.176L15.833,6.843V2.5Zm-7.886,7.771h2.324V7.947H26.614Zm1.257,21.181a6.633,6.633,0,0,1-6.629-6.629A6.633,6.633,0,0,1,27.871,18.2,6.633,6.633,0,0,1,34.5,24.824a6.633,6.633,0,0,1-6.629,6.629Zm-.571-2.02h1.219V25.471h4V24.253h-4v-4H27.3v4h-4v1.219h4Z" transform="translate(1621.5 179.024)" fill="#f90"/>
  </g>
</svg>
