<svg xmlns="http://www.w3.org/2000/svg" width="38" height="38" viewBox="0 0 38 38">
  <path id="pause_circle_FILL0_wght400_GRAD0_opsz48_1_" data-name="pause_circle_FILL0_wght400_GRAD0_opsz48 (1)" d="M17.775,30.6h2.85V15.4h-2.85Zm7.6,0h2.85V15.4h-2.85ZM23,42a18.384,18.384,0,0,1-7.363-1.5A19.143,19.143,0,0,1,5.5,30.363a18.979,18.979,0,0,1,0-14.773A18.988,18.988,0,0,1,9.581,9.557,19.477,19.477,0,0,1,15.637,5.5a18.979,18.979,0,0,1,14.773,0A18.97,18.97,0,0,1,40.5,15.59a18.979,18.979,0,0,1,0,14.773,19.477,19.477,0,0,1-4.061,6.056A18.988,18.988,0,0,1,30.41,40.5,18.5,18.5,0,0,1,23,42Zm0-2.85a15.541,15.541,0,0,0,11.447-4.726A15.6,15.6,0,0,0,39.15,23a15.58,15.58,0,0,0-4.7-11.448A15.58,15.58,0,0,0,23,6.85a15.6,15.6,0,0,0-11.424,4.7A15.541,15.541,0,0,0,6.85,23a15.563,15.563,0,0,0,4.726,11.424A15.563,15.563,0,0,0,23,39.15ZM23,23Z" transform="translate(-4 -4)" fill="#174fa3"/>
</svg>
