<svg xmlns="http://www.w3.org/2000/svg" width="36" height="36" viewBox="0 0 36 36">
  <g id="Group_20516" data-name="Group 20516" transform="translate(20179 24076)">
    <g id="Group_20511" data-name="Group 20511" transform="translate(-20179 -24076)">
      <path id="other_admission_FILL0_wght400_GRAD0_opsz48" d="M122.666,247.979A2.673,2.673,0,0,1,120,245.314V218.665A2.673,2.673,0,0,1,122.666,216h26.657a2.673,2.673,0,0,1,2.666,2.665v14.612a6.912,6.912,0,0,0-1.311-.577,12.231,12.231,0,0,0-1.355-.355v-13.68H122.666v26.649h13.729q.178.711.4,1.385a9.155,9.155,0,0,0,.532,1.28Zm0-4.752v0Zm4.443-2.354h9.375q.178-.711.4-1.377a7.145,7.145,0,0,1,.578-1.288H127.109Zm0-7.551h15.284a10.024,10.024,0,0,1,1.2-.511q.578-.2,1.288-.378v-1.777H127.109Zm0-7.551H144.88v-2.665H127.109Zm20.1,25.716a8.38,8.38,0,0,1-8.33-8.306,8.111,8.111,0,0,1,2.443-5.939,8.335,8.335,0,1,1,5.887,14.245Z" transform="translate(-120 -216)" fill="#3dab45"/>
      <path id="how_to_reg_FILL0_wght400_GRAD0_opsz48_1_" data-name="how_to_reg_FILL0_wght400_GRAD0_opsz48 (1)" d="M487.519,622.413,484,618.894l1.048-1.048,2.471,2.471L492.835,615l1.048,1.048-3.3,3.3Z" transform="translate(-462.333 -592.017)" fill="#fff"/>
    </g>
    <rect id="Rectangle_11145" data-name="Rectangle 11145" width="36" height="36" transform="translate(-20179 -24076)" fill="none"/>
  </g>
</svg>
