<svg xmlns="http://www.w3.org/2000/svg" width="36" height="36" viewBox="0 0 36 36">
  <g id="Group_20522" data-name="Group 20522" transform="translate(20214 24264.084)">
    <g id="Group_20514" data-name="Group 20514" transform="translate(-20214 -24264.084)">
      <g id="Group_20513" data-name="Group 20513" transform="translate(0 0)">
        <path id="other_admission_FILL0_wght400_GRAD0_opsz48" d="M122.7,248.29A2.7,2.7,0,0,1,120,245.6V218.691A2.7,2.7,0,0,1,122.7,216h26.966a2.7,2.7,0,0,1,2.7,2.691v14.755a7,7,0,0,0-1.326-.583,12.384,12.384,0,0,0-1.371-.359V218.691H122.7V245.6h13.888q.18.718.406,1.4a9.233,9.233,0,0,0,.538,1.293Zm0-4.8v0Zm4.494-2.377h9.483q.18-.718.4-1.39a7.209,7.209,0,0,1,.584-1.3H127.191Zm0-7.624h15.461a10.155,10.155,0,0,1,1.213-.516q.584-.2,1.3-.381V230.8H127.191Zm0-7.624h17.978v-2.691H127.191Zm20.337,25.966a8.47,8.47,0,0,1-8.427-8.386,8.449,8.449,0,1,1,16.9,0,8.051,8.051,0,0,1-2.494,5.9A8.163,8.163,0,0,1,147.528,251.832Z" transform="translate(-120 -216)" fill="#ec9922"/>
      </g>
      <path id="hourglass_top_FILL0_wght400_GRAD0_opsz48" d="M161.7,184.072h3.578v-1.385a1.852,1.852,0,0,0-.518-1.314,1.741,1.741,0,0,0-2.542,0,1.852,1.852,0,0,0-.518,1.314Zm-1.7.655v-.655h1.047v-1.385a2.6,2.6,0,0,1,.4-1.4,2.261,2.261,0,0,1,1.107-.922,2.252,2.252,0,0,1-1.107-.927,2.623,2.623,0,0,1-.4-1.407v-1.374H160V176h6.981v.654h-1.047v1.374a2.624,2.624,0,0,1-.4,1.407,2.252,2.252,0,0,1-1.107.927,2.261,2.261,0,0,1,1.107.922,2.6,2.6,0,0,1,.4,1.4v1.385h1.047v.655Z" transform="translate(-135.553 -152.941)" fill="#fff"/>
    </g>
    <rect id="Rectangle_11143" data-name="Rectangle 11143" width="35.936" height="35.936" transform="translate(-20214 -24264.02)" fill="none"/>
  </g>
</svg>
