<svg xmlns="http://www.w3.org/2000/svg" width="36" height="36" viewBox="0 0 36 36">
  <g id="Group_20523" data-name="Group 20523" transform="translate(20257 24078.043)">
    <g id="Group_20512" data-name="Group 20512" transform="translate(-20257 -24078)">
      <path id="other_admission_FILL0_wght400_GRAD0_opsz48" d="M122.646,247.736A2.653,2.653,0,0,1,120,245.091V218.645A2.653,2.653,0,0,1,122.646,216H149.1a2.653,2.653,0,0,1,2.646,2.645v14.5a6.858,6.858,0,0,0-1.3-.573,12.133,12.133,0,0,0-1.345-.353V218.645H122.646v26.447H136.27q.176.705.4,1.374a9.081,9.081,0,0,0,.528,1.271Zm0-4.716v0Zm4.409-2.336h9.3q.176-.705.4-1.366a7.088,7.088,0,0,1,.573-1.278H127.055Zm0-7.493h15.168a9.954,9.954,0,0,1,1.19-.507q.573-.2,1.279-.375v-1.763H127.055Zm0-7.493h17.637v-2.645H127.055Zm19.952,25.521a8.317,8.317,0,0,1-8.267-8.243,8.049,8.049,0,0,1,2.425-5.894,8.272,8.272,0,1,1,5.843,14.137Z" transform="translate(-120 -216)" fill="#e95454"/>
      <path id="rule_FILL0_wght400_GRAD0_opsz48" d="M527.231,591.971,526,590.74l3.284-3.254L526,584.231,527.231,583l3.284,3.254L533.769,583,535,584.231l-3.254,3.254L535,590.74l-1.231,1.231-3.254-3.254Z" transform="translate(-503.477 -560.848)" fill="#fff"/>
    </g>
    <rect id="Rectangle_11144" data-name="Rectangle 11144" width="36" height="36" transform="translate(-20257 -24078.043)" fill="none"/>
  </g>
</svg>
