<svg xmlns="http://www.w3.org/2000/svg" width="36" height="36" viewBox="0 0 36 36">
  <g id="Group_20516" data-name="Group 20516" transform="translate(20179 24076)">
    <g id="Group_20511" data-name="Group 20511" transform="translate(-20179 -24076)">
      <path id="other_admission_FILL0_wght400_GRAD0_opsz48" d="M122.666,247.979A2.673,2.673,0,0,1,120,245.314V218.665A2.673,2.673,0,0,1,122.666,216h26.657a2.673,2.673,0,0,1,2.666,2.665v14.612a6.912,6.912,0,0,0-1.311-.577,12.231,12.231,0,0,0-1.355-.355v-13.68H122.666v26.649h13.729q.178.711.4,1.385a9.155,9.155,0,0,0,.532,1.28Zm0-4.752v0Zm4.443-2.354h9.375q.178-.711.4-1.377a7.145,7.145,0,0,1,.578-1.288H127.109Zm0-7.551h15.284a10.024,10.024,0,0,1,1.2-.511q.578-.2,1.288-.378v-1.777H127.109Zm0-7.551H144.88v-2.665H127.109Zm20.1,25.716a8.38,8.38,0,0,1-8.33-8.306,8.111,8.111,0,0,1,2.443-5.939,8.335,8.335,0,1,1,5.887,14.245Z" transform="translate(-120 -216)" fill="#b66dff"/>
      <path id="dialpad_FILL0_wght400_GRAD0_opsz48" d="M160.774,137.549a.776.776,0,1,1,.548-.227A.744.744,0,0,1,160.774,137.549Zm0,2.723a.776.776,0,1,1,.548-.227A.744.744,0,0,1,160.774,140.272Zm0,2.734a.776.776,0,1,1,.548-.227A.744.744,0,0,1,160.774,143.006Zm5.534-5.456a.776.776,0,1,1,.548-.227A.744.744,0,0,1,166.308,137.549Zm-2.767,5.456a.776.776,0,1,1,.548-.227A.744.744,0,0,1,163.541,143.006Zm2.767,0a.776.776,0,1,1,.548-.227A.744.744,0,0,1,166.308,143.006Zm0-2.734a.776.776,0,1,1,.548-.227A.744.744,0,0,1,166.308,140.272Zm-2.767,0a.776.776,0,1,1,.548-.227A.744.744,0,0,1,163.541,140.272Zm0-2.723a.776.776,0,1,1,.548-.227A.744.744,0,0,1,163.541,137.549Z" transform="translate(-136 -112.5)" fill="#fff"/>
    </g>
    <rect id="Rectangle_11145" data-name="Rectangle 11145" width="36" height="36" transform="translate(-20179 -24076)" fill="none"/>
  </g>
</svg>
