<svg xmlns="http://www.w3.org/2000/svg" width="48" height="48" viewBox="0 0 48 48">
  <g id="yellow" transform="translate(-10265 3630)">
    <rect id="icon_placeholder" width="48" height="48" transform="translate(10265 -3630)" fill="#fff"/>
    <g id="Group_20084" data-name="Group 20084" transform="translate(14.8 -127)">
      <path id="hourglass_bottom_FILL0_wght400_GRAD0_opsz48" d="M172.243,189.7a5.881,5.881,0,0,0,4.457-1.933,6.545,6.545,0,0,0,1.817-4.648V178.3h-12.55v4.821a6.545,6.545,0,0,0,1.817,4.648A5.881,5.881,0,0,0,172.243,189.7Zm11.1,16.911H161.148a1.107,1.107,0,0,1-.818-.332,1.12,1.12,0,0,1-.33-.823,1.1,1.1,0,0,1,.33-.816,1.119,1.119,0,0,1,.818-.325h2.525v-4.859a9.107,9.107,0,0,1,1.4-4.917,7.928,7.928,0,0,1,3.883-3.233,7.9,7.9,0,0,1-3.883-3.252,9.2,9.2,0,0,1-1.4-4.936V178.3h-2.525a1.107,1.107,0,0,1-.818-.332,1.121,1.121,0,0,1-.33-.823,1.1,1.1,0,0,1,.33-.816,1.119,1.119,0,0,1,.818-.325h22.191a1.107,1.107,0,0,1,.818.332,1.121,1.121,0,0,1,.33.823,1.1,1.1,0,0,1-.33.816,1.119,1.119,0,0,1-.818.325h-2.525v4.821a9.111,9.111,0,0,1-1.416,4.936,8.023,8.023,0,0,1-3.864,3.252,7.928,7.928,0,0,1,3.883,3.233,9.107,9.107,0,0,1,1.4,4.917v4.859h2.525a1.107,1.107,0,0,1,.818.332,1.121,1.121,0,0,1,.33.823,1.1,1.1,0,0,1-.33.816A1.119,1.119,0,0,1,183.339,206.609Z" transform="translate(10099.2 -3671)" fill="#f2b700"/>
      <g id="Group_20083" data-name="Group 20083" transform="translate(10272.835 -3479.696)">
        <g id="Ellipse_363" data-name="Ellipse 363" fill="#f2b700" stroke="#fff" stroke-width="1">
          <circle cx="8.348" cy="8.348" r="8.348" stroke="none"/>
          <circle cx="8.348" cy="8.348" r="7.848" fill="none"/>
        </g>
        <path id="check_circle_FILL0_wght400_GRAD0_opsz48" d="M88.311,187.942,86.3,185.93a.614.614,0,0,0-.452-.185.7.7,0,0,0-.678.678.585.585,0,0,0,.205.452l2.5,2.5a.6.6,0,0,0,.862,0l4.928-4.928a.581.581,0,0,0,.175-.452.652.652,0,0,0-.2-.452.6.6,0,0,0-.462-.205.66.66,0,0,0-.483.205ZM89.523,186.073Z" transform="translate(-81.159 -178.105)" fill="#fff" stroke="#fff" stroke-width="0.2"/>
      </g>
    </g>
  </g>
</svg>
