<svg id="Layer_1" data-name="Layer 1" xmlns="http://www.w3.org/2000/svg" viewBox="0 0 24 24"><defs><style>.cls-1{fill:#f2b700;}</style></defs><path class="cls-1" d="M11.21,14.31a4.13,4.13,0,0,1,1.67-1.92,3.88,3.88,0,0,0-1.06-.62,4.05,4.05,0,0,0,1.94-1.62,4.6,4.6,0,0,0,.7-2.47V5.27h1.27a.62.62,0,0,0,.41-.16.53.53,0,0,0,.16-.41.56.56,0,0,0-.16-.41.58.58,0,0,0-.41-.17H4.63a.62.62,0,0,0-.41.16.53.53,0,0,0-.16.41.52.52,0,0,0,.16.41.58.58,0,0,0,.41.17H5.89V7.68a4.69,4.69,0,0,0,.7,2.47,4,4,0,0,0,1.95,1.62,4,4,0,0,0-1.95,1.62,4.63,4.63,0,0,0-.7,2.46v2.43H4.63a.53.53,0,0,0-.41.16.52.52,0,0,0-.16.41.55.55,0,0,0,.57.57h8.13A4.15,4.15,0,0,1,11.21,14.31ZM8,10A3.24,3.24,0,0,1,7,7.68V5.27h6.28V7.68A3.28,3.28,0,0,1,12.41,10,3,3,0,0,1,8,10Z"/><path class="cls-1" d="M17.58,12.41a3.89,3.89,0,1,0,2.05,5.11A3.89,3.89,0,0,0,17.58,12.41ZM18,15.06,15.7,17.35h0a.28.28,0,0,1-.4,0l-1.16-1.16A.3.3,0,0,1,14,16a.34.34,0,0,1,.32-.32.27.27,0,0,1,.21.09l.94.93,2-2a.28.28,0,0,1,.22-.1.33.33,0,0,1,.31.31A.26.26,0,0,1,18,15.06Z"/></svg>
