<svg xmlns="http://www.w3.org/2000/svg" width="48" height="48" viewBox="0 0 48 48">
  <g id="Group_19478" data-name="Group 19478" transform="translate(-1616 -172)">
    <rect id="icon_placeholder" width="48" height="48" transform="translate(1616 172)" fill="none" opacity="0"/>
    <path id="volunteer_activism_FILL0_wght400_GRAD0_opsz48" d="M63.081,189.7a1.594,1.594,0,0,1-.491-.076,1,1,0,0,1-.419-.267,64.952,64.952,0,0,1-5.657-5.667,7.958,7.958,0,0,1-2.343-5.038A4.577,4.577,0,0,1,58.832,174a4.579,4.579,0,0,1,2.254.629,7.012,7.012,0,0,1,2,1.7,7.013,7.013,0,0,1,2-1.7A4.579,4.579,0,0,1,67.339,174,4.577,4.577,0,0,1,72,178.648a7.958,7.958,0,0,1-2.343,5.038A65.1,65.1,0,0,1,64,189.352a1.075,1.075,0,0,1-.429.267A1.594,1.594,0,0,1,63.081,189.7Zm0-2.7q2.514-2.286,4.571-4.533t2.057-3.81a2.262,2.262,0,0,0-2.371-2.362,2.879,2.879,0,0,0-1.267.3,3.82,3.82,0,0,0-1.276,1.143l-1.714,2.1-1.714-2.1A3.82,3.82,0,0,0,60.1,176.59a2.879,2.879,0,0,0-1.267-.3,2.262,2.262,0,0,0-2.371,2.362q0,1.562,2.057,3.81T63.086,186.99Zm-3.2,15.886,9.448-2.971q-.229-.3-.579-.781a.988.988,0,0,0-.793-.476H58.9q-.076,0-.686-.057a3.561,3.561,0,0,1-1.181-.324l-2.514-.762a1.235,1.235,0,0,1-.762-1.524,1.171,1.171,0,0,1,.582-.686,1.025,1.025,0,0,1,.9-.038l3.543,1.181q-.076,0,.552-.038t1.8-.038h.349a2.417,2.417,0,0,0-.171-.9,1.108,1.108,0,0,0-.59-.621L51.39,191.3h-3.2v8.152Zm-.5,2.171-11.2-3.2a2.072,2.072,0,0,1-.857,1.6,2.493,2.493,0,0,1-1.429.571H42.286A2.292,2.292,0,0,1,40,201.733V191.3a2.292,2.292,0,0,1,2.286-2.286h9.067a2.2,2.2,0,0,1,.406.038,2.1,2.1,0,0,1,.394.114l9.333,3.5a4.013,4.013,0,0,1,1.733,1.238,3.777,3.777,0,0,1,.7,2.457h4.343a3.5,3.5,0,0,1,2.667,1.143A4.342,4.342,0,0,1,72,200.59a1.438,1.438,0,0,1-.19.743,1.117,1.117,0,0,1-.61.476l-10.514,3.238a2.729,2.729,0,0,1-.651.076A2.649,2.649,0,0,1,59.39,205.048Zm3.7-23.429-20.8,20.114h3.581V191.3H42.286Z" transform="translate(1584 5.438)" fill="#174fa3"/>
  </g>
</svg>
