<svg xmlns="http://www.w3.org/2000/svg" width="48" height="48" viewBox="0 0 48 48">
  <g id="Group_19479" data-name="Group 19479" transform="translate(-1616 -172)">
    <rect id="icon_placeholder" width="48" height="48" transform="translate(1616 172)" fill="none" opacity="0"/>
    <g id="Group_19480" data-name="Group 19480" transform="translate(1230.138 -880.862)">
      <g id="medal_1_" data-name="medal (1)" transform="translate(397.862 1060.862)">
        <path id="Path_20893" data-name="Path 20893" d="M41.267,57.164a.429.429,0,0,1-.392-.257l-3.795-8.6a.429.429,0,0,1,.784-.346l3.385,7.677,1.168-2.859a.429.429,0,0,1,.575-.228l2.7,1.231-3.156-7.141a.429.429,0,1,1,.784-.347l3.611,8.172a.429.429,0,0,1-.57.563l-3.317-1.514L41.663,56.9a.428.428,0,0,1-.391.267Z" transform="translate(-24.94 -25.164)" fill="#ec9922" stroke="#ec9922" stroke-width="1"/>
        <path id="Path_20890" data-name="Path 20890" d="M19.5,57.164h-.006A.429.429,0,0,1,19.1,56.9l-1.38-3.381L14.4,55.03a.429.429,0,0,1-.57-.563L17.444,46.3a.429.429,0,1,1,.784.347l-3.156,7.141,2.7-1.231a.428.428,0,0,1,.575.228l1.168,2.859L22.9,47.962a.429.429,0,1,1,.784.346l-3.794,8.6A.428.428,0,0,1,19.5,57.164Z" transform="translate(-11.653 -25.164)" fill="#ec9922" stroke="#ec9922" stroke-width="1"/>
        <path id="Path_20891" data-name="Path 20891" d="M20.6,26.173a1.717,1.717,0,0,1-.45-.058,3.24,3.24,0,0,1-1.585-1.339,3.469,3.469,0,0,0-.846-.893,3.53,3.53,0,0,0-1.222-.3,3.176,3.176,0,0,1-1.927-.694,3.187,3.187,0,0,1-.695-1.929,3.551,3.551,0,0,0-.3-1.22,3.492,3.492,0,0,0-.893-.846,3.24,3.24,0,0,1-1.34-1.584,3.141,3.141,0,0,1,.361-1.988,3.6,3.6,0,0,0,.359-1.236,3.6,3.6,0,0,0-.359-1.235,3.149,3.149,0,0,1-.361-1.988,3.24,3.24,0,0,1,1.34-1.584,3.485,3.485,0,0,0,.893-.849,3.535,3.535,0,0,0,.3-1.219,3.154,3.154,0,0,1,.695-1.927,3.2,3.2,0,0,1,1.927-.695,3.53,3.53,0,0,0,1.222-.3,3.482,3.482,0,0,0,.846-.893,3.238,3.238,0,0,1,1.584-1.34,3.129,3.129,0,0,1,1.988.361,3.6,3.6,0,0,0,1.236.354,3.6,3.6,0,0,0,1.236-.359,3.149,3.149,0,0,1,1.987-.361A3.239,3.239,0,0,1,28.178,3.4a3.478,3.478,0,0,0,.846.893,3.52,3.52,0,0,0,1.22.3,3.174,3.174,0,0,1,1.927.695,3.187,3.187,0,0,1,.695,1.927,3.548,3.548,0,0,0,.3,1.222,3.478,3.478,0,0,0,.893.846A3.242,3.242,0,0,1,35.4,10.86a3.142,3.142,0,0,1-.361,1.988,3.6,3.6,0,0,0-.359,1.235,3.594,3.594,0,0,0,.359,1.235,3.151,3.151,0,0,1,.361,1.988,3.242,3.242,0,0,1-1.34,1.584,3.478,3.478,0,0,0-.893.846,3.541,3.541,0,0,0-.3,1.219,3.18,3.18,0,0,1-.695,1.929,3.178,3.178,0,0,1-1.927.694,3.529,3.529,0,0,0-1.22.3,3.482,3.482,0,0,0-.846.893,3.24,3.24,0,0,1-1.584,1.34,3.134,3.134,0,0,1-1.988-.361,3.589,3.589,0,0,0-1.236-.354,3.589,3.589,0,0,0-1.236.359,4.173,4.173,0,0,1-1.537.419Zm0-23.234a.8.8,0,0,0-.207.025c-.392.1-.727.541-1.081,1A4.159,4.159,0,0,1,18.186,5.1a4.215,4.215,0,0,1-1.566.416,2.544,2.544,0,0,0-1.389.428A2.538,2.538,0,0,0,14.8,7.333,4.219,4.219,0,0,1,14.388,8.9a4.163,4.163,0,0,1-1.135,1.124c-.462.354-.9.689-1,1.081a2.522,2.522,0,0,0,.322,1.387A4.282,4.282,0,0,1,13,14.084a4.277,4.277,0,0,1-.43,1.593,2.52,2.52,0,0,0-.322,1.387c.105.392.541.727,1,1.081a4.163,4.163,0,0,1,1.135,1.124,4.21,4.21,0,0,1,.415,1.566,2.547,2.547,0,0,0,.428,1.389,2.543,2.543,0,0,0,1.389.427,4.213,4.213,0,0,1,1.565.416A4.141,4.141,0,0,1,19.309,24.2c.354.462.689.9,1.081,1a2.531,2.531,0,0,0,1.386-.322,4.284,4.284,0,0,1,1.594-.428,4.284,4.284,0,0,1,1.594.43,2.512,2.512,0,0,0,1.387.322c.392-.1.727-.541,1.081-1a4.153,4.153,0,0,1,1.123-1.135,4.216,4.216,0,0,1,1.566-.416,2.538,2.538,0,0,0,1.389-.427,2.541,2.541,0,0,0,.428-1.389,4.217,4.217,0,0,1,.415-1.566,4.158,4.158,0,0,1,1.135-1.124c.462-.354.9-.689,1-1.081a2.522,2.522,0,0,0-.322-1.387,4.277,4.277,0,0,1-.43-1.593,4.282,4.282,0,0,1,.43-1.593,2.518,2.518,0,0,0,.322-1.387c-.105-.392-.541-.727-1-1.081A4.163,4.163,0,0,1,32.353,8.9a4.213,4.213,0,0,1-.415-1.566,2.545,2.545,0,0,0-.428-1.389,2.538,2.538,0,0,0-1.389-.427A4.222,4.222,0,0,1,28.555,5.1a4.155,4.155,0,0,1-1.123-1.135c-.354-.462-.689-.9-1.081-1a2.523,2.523,0,0,0-1.386.322,4.293,4.293,0,0,1-1.594.431,4.293,4.293,0,0,1-1.594-.43A3.511,3.511,0,0,0,20.6,2.939Z" transform="translate(-11.285 -1.998)" fill="#ec9922" stroke="#ec9922" stroke-width="1"/>
        <path id="Path_20892" data-name="Path 20892" d="M27.246,25.277a7.313,7.313,0,1,1,7.313-7.313,7.313,7.313,0,0,1-7.313,7.313Zm0-13.769A6.456,6.456,0,1,0,33.7,17.963,6.456,6.456,0,0,0,27.246,11.507Z" transform="translate(-15.16 -5.876)" fill="#ec9922" stroke="#ec9922" stroke-width="1"/>
        <path id="Path_20894" data-name="Path 20894" d="M33.717,25.888a.426.426,0,0,1-.2-.049l-2.145-1.127-2.143,1.127a.429.429,0,0,1-.621-.452L29.019,23l-1.735-1.691a.429.429,0,0,1,.238-.731l2.4-.348,1.071-2.173a.446.446,0,0,1,.768,0l1.071,2.173,2.4.348a.429.429,0,0,1,.238.731L33.73,23l.41,2.388a.428.428,0,0,1-.422.5ZM31.374,23.8a.429.429,0,0,1,.2.049l1.576.83-.3-1.754a.428.428,0,0,1,.123-.379L34.246,21.3l-1.761-.257a.429.429,0,0,1-.323-.235l-.789-1.6-.788,1.6a.429.429,0,0,1-.323.235L28.5,21.3l1.274,1.243a.428.428,0,0,1,.123.379l-.3,1.754,1.576-.828A.429.429,0,0,1,31.374,23.8Z" transform="translate(-19.288 -9.984)" fill="#ec9922" stroke="#ec9922" stroke-width="1"/>
      </g>
    </g>
  </g>
</svg>
