<svg xmlns="http://www.w3.org/2000/svg" width="24" height="24" viewBox="0 0 24 24">
  <g id="Group_19671" data-name="Group 19671" transform="translate(-353 -1028)">
    <rect id="Rectangle_11001" data-name="Rectangle 11001" width="24" height="24" transform="translate(353 1028)" fill="#b66dff" opacity="0"/>
    <path id="volunteer_activism_FILL0_wght400_GRAD0_opsz48" d="M55.869,184.79a1.1,1.1,0,0,1-.338-.052.684.684,0,0,1-.288-.183,44.653,44.653,0,0,1-3.889-3.9,5.471,5.471,0,0,1-1.611-3.464,3.147,3.147,0,0,1,3.2-3.2,3.148,3.148,0,0,1,1.549.432,4.821,4.821,0,0,1,1.375,1.165,4.821,4.821,0,0,1,1.375-1.165A3.148,3.148,0,0,1,58.8,174a3.146,3.146,0,0,1,3.2,3.2,5.471,5.471,0,0,1-1.611,3.464,44.758,44.758,0,0,1-3.888,3.9.74.74,0,0,1-.3.183A1.1,1.1,0,0,1,55.869,184.79Zm0-1.86q1.729-1.571,3.143-3.117a4.333,4.333,0,0,0,1.414-2.619,1.555,1.555,0,0,0-1.63-1.624,1.979,1.979,0,0,0-.871.21,2.626,2.626,0,0,0-.877.786l-1.179,1.44-1.179-1.44a2.626,2.626,0,0,0-.877-.786,1.979,1.979,0,0,0-.871-.21,1.555,1.555,0,0,0-1.63,1.624,4.333,4.333,0,0,0,1.414,2.619Q54.143,181.36,55.871,182.931Zm-2.2,10.921,6.5-2.043q-.157-.21-.4-.537a.68.68,0,0,0-.545-.327H52.99q-.052,0-.471-.039a2.448,2.448,0,0,1-.812-.223l-1.729-.524a.849.849,0,0,1-.524-1.048.8.8,0,0,1,.4-.471.7.7,0,0,1,.621-.026l2.436.812q-.052,0,.38-.026t1.24-.026h.24a1.662,1.662,0,0,0-.118-.621.762.762,0,0,0-.406-.427l-6.417-2.436h-2.2v5.6Zm-.34,1.493-7.7-2.2a1.424,1.424,0,0,1-.589,1.1,1.714,1.714,0,0,1-.982.393H41.571A1.576,1.576,0,0,1,40,193.067V185.89a1.576,1.576,0,0,1,1.571-1.571H47.8a1.513,1.513,0,0,1,.279.026,1.443,1.443,0,0,1,.271.079l6.417,2.41a2.759,2.759,0,0,1,1.192.851,2.6,2.6,0,0,1,.485,1.689h2.986a2.4,2.4,0,0,1,1.833.786A2.985,2.985,0,0,1,62,192.281a.988.988,0,0,1-.131.511.768.768,0,0,1-.419.327l-7.229,2.226a1.876,1.876,0,0,1-.447.052A1.821,1.821,0,0,1,53.331,195.345Zm2.54-16.107-14.3,13.829h2.462V185.89H41.571Z" transform="translate(314 855)" fill="#b66dff"/>
  </g>
</svg>
