<svg xmlns="http://www.w3.org/2000/svg" width="48" height="48" viewBox="0 0 48 48">
  <g id="Group_17039" data-name="Group 17039" transform="translate(-1616 -172)">
    <rect id="icon_placeholder" width="48" height="48" transform="translate(1616 172)" fill="none" opacity="0"/>
    <g id="Group_19472" data-name="Group 19472" transform="translate(1593 -854)">
      <path id="check_circle_FILL0_wght400_GRAD0_opsz48" d="M93.64,195.64l-3.92-3.92a1.2,1.2,0,0,0-.88-.36,1.368,1.368,0,0,0-1.32,1.32,1.139,1.139,0,0,0,.4.88l4.88,4.88a1.16,1.16,0,0,0,1.68,0l9.6-9.6a1.131,1.131,0,0,0,.34-.88,1.27,1.27,0,0,0-.38-.88,1.161,1.161,0,0,0-.9-.4,1.287,1.287,0,0,0-.94.4ZM96,208a16.229,16.229,0,0,1-6.32-1.22,15.486,15.486,0,0,1-8.46-8.46,16.876,16.876,0,0,1,0-12.6,15.616,15.616,0,0,1,3.38-5.08,16.094,16.094,0,0,1,22.76,22.76,15.616,15.616,0,0,1-5.08,3.38A16.125,16.125,0,0,1,96,208ZM96,192Zm0,13.6a13.325,13.325,0,1,0-9.7-3.9A13.168,13.168,0,0,0,96,205.6Z" transform="translate(-49 858)" fill="#3dab45"/>
    </g>
  </g>
</svg>
