<svg id="Layer_1" data-name="Layer 1" xmlns="http://www.w3.org/2000/svg" viewBox="0 0 24 24"><defs><style>.cls-1{fill:none;stroke:#000;stroke-miterlimit:13.33;}</style></defs><path id="path2940" class="cls-1" d="M9.74,7H7.25a1.18,1.18,0,1,1,0-2.35h7.49l2.57,1v8.08H16l-3.36,3.89-.3,1.61a.48.48,0,0,1-.47.4h-.58A1.52,1.52,0,0,1,9.8,18a4.79,4.79,0,0,1,.37-1.83L11,14h-.22"/><g id="g2942"><path id="path2944" class="cls-1" d="M8.77,11.66H6.16a1.18,1.18,0,1,0,0,2.35h4.65"/></g><g id="g2946"><path id="path2948" class="cls-1" d="M8.15,11.66H5.66a1.18,1.18,0,0,1-1.18-1.18h0A1.18,1.18,0,0,1,5.66,9.3H8.15"/></g><g id="g2950"><path id="path2952" class="cls-1" d="M8.85,9.3H6.36A1.18,1.18,0,0,1,6.36,7H8.85"/></g><path id="path2954" class="cls-1" d="M17.31,4.46h3.14V14.6H17.31Z"/></svg>