<svg xmlns="http://www.w3.org/2000/svg" width="48" height="48" viewBox="0 0 48 48">
  <g id="red" transform="translate(-10347 3632)">
    <rect id="icon_placeholder" width="48" height="48" transform="translate(10347 -3632)" fill="#fff"/>
    <path id="running_with_errors_FILL0_wght400_GRAD0_opsz48" d="M93.9,207.8a15.483,15.483,0,0,1-6.2-1.252,15.876,15.876,0,0,1-8.447-8.447,15.981,15.981,0,0,1,0-12.4,15.876,15.876,0,0,1,8.447-8.447,16.005,16.005,0,0,1,12.865.2,16.123,16.123,0,0,1,5.341,4.035l-12,12V178.385a13.519,13.519,0,1,0,6.221,25.361,16.444,16.444,0,0,0,4.87-3.737v3.3A15.746,15.746,0,0,1,93.9,207.8Zm14.661-5.843a1.141,1.141,0,0,1-.848-.343,1.163,1.163,0,0,1-.338-.85V190.152a1.15,1.15,0,0,1,.345-.85,1.164,1.164,0,0,1,.855-.343,1.141,1.141,0,0,1,.848.343,1.163,1.163,0,0,1,.338.85v10.614a1.151,1.151,0,0,1-.345.85A1.164,1.164,0,0,1,108.562,201.958Zm.127,5.565a1.289,1.289,0,1,1,.934-.378A1.271,1.271,0,0,1,108.689,207.523Z" transform="translate(10277 -3799)" fill="#f24b59"/>
  </g>
</svg>