<svg xmlns="http://www.w3.org/2000/svg" width="48" height="48" viewBox="0 0 48 48">
  <g id="Group_19483" data-name="Group 19483" transform="translate(-1616 -172)">
    <rect id="icon_placeholder" width="48" height="48" transform="translate(1616 172)" fill="none" opacity="0"/>
    <g id="Group_19485" data-name="Group 19485" transform="translate(1402 -848)">
      <rect id="Rectangle_10999" data-name="Rectangle 10999" width="32" height="32" transform="translate(222 1028)" fill="#222" opacity="0"/>
      <path id="block_FILL0_wght400_GRAD0_opsz48" d="M94.667,205.333a14.282,14.282,0,0,1-5.72-1.155,14.644,14.644,0,0,1-7.792-7.792,14.741,14.741,0,0,1,0-11.44,14.644,14.644,0,0,1,7.792-7.792,14.741,14.741,0,0,1,11.44,0,14.644,14.644,0,0,1,7.792,7.792,14.741,14.741,0,0,1,0,11.44,14.644,14.644,0,0,1-7.792,7.792A14.282,14.282,0,0,1,94.667,205.333Zm0-2.2a12.441,12.441,0,0,0,11.7-16.75,12.974,12.974,0,0,0-2.163-3.746L86.637,200.2a11.755,11.755,0,0,0,3.721,2.182A12.534,12.534,0,0,0,94.667,203.133Zm-9.5-4.437L102.7,181.17a12.546,12.546,0,0,0-3.746-2.2,12.4,12.4,0,0,0-16.75,11.7,11.771,11.771,0,0,0,.807,4.309A13.564,13.564,0,0,0,85.17,198.7Z" transform="translate(143.333 853.333)" fill="#222" stroke="#222" stroke-width="1"/>
    </g>
  </g>
</svg>
