<svg id="ban-user_2" data-name="ban-user 2" xmlns="http://www.w3.org/2000/svg" xmlns:xlink="http://www.w3.org/1999/xlink" width="32" height="32" viewBox="0 0 32 32">
  <defs>
    <linearGradient id="linear-gradient" y1="0.501" x2="1.001" y2="0.501" gradientUnits="objectBoundingBox">
      <stop offset="0" stop-color="#ff8540"/>
      <stop offset="0.974" stop-color="#ff5c00"/>
    </linearGradient>
  </defs>
  <rect id="ban-user_2-2" data-name="ban-user 2" width="32" height="32" fill="none"/>
  <path id="Vector" d="M6.173,0A3.761,3.761,0,0,1,8.509,6.712c-.475.523-.236.931.186,1.094A4.435,4.435,0,0,1,12.342,12.2c0,1.078.091,1.313-1.078,1.313H.828C-.081,13.513,0,12.907,0,12.2A4.435,4.435,0,0,1,3.651,7.806c.418-.163.658-.565.2-1.082A3.764,3.764,0,0,1,6.173,0Z" transform="translate(9.819 8.451)" fill="url(#linear-gradient)"/>
  <path id="Vector-2" data-name="Vector" d="M27.938,13.967a13.952,13.952,0,0,1-5.224,10.882L19.05,21.186a2.4,2.4,0,0,0,2.142-1.1l1.569,1.571A11.683,11.683,0,0,0,6.276,5.175L9.35,8.249a5.143,5.143,0,0,0-.334,2.9L4.707,6.842A11.677,11.677,0,0,0,19.087,24.459l1.694,1.694a13.962,13.962,0,1,1,7.157-12.186Z" transform="translate(2.021 2)" fill-rule="evenodd" fill="url(#linear-gradient)"/>
</svg>
