<svg id="hourglass_1_1" data-name="hourglass (1) 1" xmlns="http://www.w3.org/2000/svg" xmlns:xlink="http://www.w3.org/1999/xlink" width="32" height="32" viewBox="0 0 32 32">
  <defs>
    <linearGradient id="linear-gradient" y1="0.5" x2="1" y2="0.5" gradientUnits="objectBoundingBox">
      <stop offset="0" stop-color="#ffd363"/>
      <stop offset="1" stop-color="#ffb800"/>
    </linearGradient>
  </defs>
  <rect id="hourglass_1_1-2" data-name="hourglass (1) 1" width="32" height="32" fill="none"/>
  <path id="Vector" d="M17.769,28H3.231A3.26,3.26,0,0,1,0,24.719v-1.7c0-2.817,3.14-5.5,5.432-7.455.311-.265.6-.516.861-.743a1.08,1.08,0,0,0,0-1.651c-.257-.227-.55-.477-.861-.743C3.14,10.474,0,7.794,0,4.977v-1.7A3.26,3.26,0,0,1,3.231,0H17.769A3.26,3.26,0,0,1,21,3.281v1.7c0,2.817-3.14,5.5-5.432,7.455-.311.265-.6.516-.861.743a1.08,1.08,0,0,0,0,1.651c.266.235.573.5.9.772a32.288,32.288,0,0,1,3.4,3.2,1.106,1.106,0,0,1-.092,1.544,1.065,1.065,0,0,1-1.52-.093,30.154,30.154,0,0,0-3.173-2.974c-.333-.283-.647-.55-.928-.8a3.289,3.289,0,0,1,0-4.952c.27-.239.571-.5.889-.767,1.744-1.489,4.664-3.982,4.664-5.781v-1.7a1.087,1.087,0,0,0-1.077-1.094H3.231A1.087,1.087,0,0,0,2.154,3.281v1.7c0,1.8,2.92,4.291,4.664,5.781.318.271.618.528.889.767a3.289,3.289,0,0,1,0,4.952c-.27.239-.571.5-.889.767-1.744,1.489-4.664,3.982-4.664,5.781v1.7a1.087,1.087,0,0,0,1.077,1.094H17.769a1.087,1.087,0,0,0,1.077-1.094,1.077,1.077,0,1,1,2.154,0A3.26,3.26,0,0,1,17.769,28ZM6.089,23.461A.932.932,0,0,1,5.416,21.9l.027-.029c.819-.889,3.9-3.532,3.942-3.566a1.693,1.693,0,0,1,2.231,0c.04.035,3.123,2.677,3.942,3.566l.027.029a.932.932,0,0,1-.673,1.563Zm6.57-16.516a1,1,0,0,1,.632,1.743c-.856.769-1.608,1.425-1.627,1.442a1.662,1.662,0,0,1-2.22,0c-.019-.017-.771-.673-1.627-1.442a1,1,0,0,1,.632-1.743Z" transform="translate(5.5 2)" fill="url(#linear-gradient)"/>
</svg>
