<svg id="check_2_2" data-name="check (2) 2" xmlns="http://www.w3.org/2000/svg" xmlns:xlink="http://www.w3.org/1999/xlink" width="32" height="32" viewBox="0 0 32 32">
  <defs>
    <linearGradient id="linear-gradient" y1="0.5" x2="1" y2="0.5" gradientUnits="objectBoundingBox">
      <stop offset="0" stop-color="#51c73d"/>
      <stop offset="1" stop-color="#008d1f"/>
    </linearGradient>
  </defs>
  <rect id="check_2_2-2" data-name="check (2) 2" width="32" height="32" fill="none"/>
  <path id="Vector" d="M11.456.231A14,14,0,1,1,14,28a14.076,14.076,0,0,1-2.544-.231,1.167,1.167,0,1,1,.422-2.295A11.668,11.668,0,1,0,14,2.333a11.74,11.74,0,0,0-2.123.192A1.167,1.167,0,1,1,11.456.231ZM8.593,2.3a1.167,1.167,0,0,1-.426,1.594A11.732,11.732,0,0,0,4.219,7.637,1.167,1.167,0,0,1,2.265,6.363,14.065,14.065,0,0,1,7,1.874,1.167,1.167,0,0,1,8.593,2.3ZM20.635,9.652a1.167,1.167,0,0,1,.047,1.649l-7.505,7.941a1.868,1.868,0,0,1-2.727,0L7.319,15.93a1.167,1.167,0,1,1,1.7-1.6l2.8,2.96L18.985,9.7a1.167,1.167,0,0,1,1.649-.046ZM1.764,9.947a1.167,1.167,0,0,1,.872,1.4,11.777,11.777,0,0,0,0,5.305,1.167,1.167,0,0,1-2.273.528,14.11,14.11,0,0,1,0-6.362,1.167,1.167,0,0,1,1.4-.872ZM2.6,20.023a1.167,1.167,0,0,1,1.614.34,11.732,11.732,0,0,0,3.948,3.744A1.167,1.167,0,0,1,7,26.126a14.066,14.066,0,0,1-4.734-4.489,1.167,1.167,0,0,1,.34-1.615Z" transform="translate(2 2)" fill-rule="evenodd" fill="url(#linear-gradient)"/>
</svg>
