<svg id="beach-umbrella_1" data-name="beach-umbrella 1" xmlns="http://www.w3.org/2000/svg" xmlns:xlink="http://www.w3.org/1999/xlink" width="32" height="32" viewBox="0 0 32 32">
  <defs>
    <linearGradient id="linear-gradient" x1="1.068" y1="0.598" x2="-0.088" y2="0.619" gradientUnits="objectBoundingBox">
      <stop offset="0" stop-color="#014eff"/>
      <stop offset="1" stop-color="#15cfff"/>
    </linearGradient>
  </defs>
  <rect id="beach-umbrella_1-2" data-name="beach-umbrella 1" width="32" height="32" fill="none"/>
  <path id="Union_3" data-name="Union 3" d="M17436.908,23876.514c-.066-.006-.145-.006-.234-.006h-11.432a.7.7,0,0,1-.115-.012.82.82,0,0,1-.119.012h-11.2c-.762.014-1.266.025-1.535-.4a1.268,1.268,0,0,1,.127-1.217,6.083,6.083,0,0,1,4.572-3.512,5.755,5.755,0,0,1,4.984-3.918,5.3,5.3,0,0,1,1.246.066l-2.307-8.605a4.01,4.01,0,0,0-1.863,1.643.559.559,0,0,1-.084.389.553.553,0,0,1-.461.252.568.568,0,0,1-.3-.09,1.591,1.591,0,0,1-.271-.227,4,4,0,0,0-3.006-.4,4.04,4.04,0,0,0-2.521,2.057.553.553,0,0,1-.486.293.2.2,0,0,1-.061-.006.55.55,0,0,1-.473-.408,10.666,10.666,0,0,1,7.516-13.051l.027-.006a10.634,10.634,0,0,1,7.348.678.552.552,0,0,1-.479.994,9.542,9.542,0,0,0-4.654-.918,10.86,10.86,0,0,1,2.844,3.334,14.227,14.227,0,0,1,1.367,3.2c.049.178.09.348.125.51a5.038,5.038,0,0,1,5.033-1.156,9.5,9.5,0,0,0-1.223-2.135.546.546,0,0,1,.1-.771.552.552,0,0,1,.773.1,10.534,10.534,0,0,1,1.816,3.709.534.534,0,0,1-.211.58.541.541,0,0,1-.617.025,3.967,3.967,0,0,0-5.607,1.322,1.526,1.526,0,0,1-.127.344.552.552,0,0,1-.742.238.548.548,0,0,1-.264-.3,4.038,4.038,0,0,0-2.434-.482l2.484,9.264a5.622,5.622,0,0,1,1.932,1.406,4.255,4.255,0,0,1,.775-.273c-.014-.178-.021-.354-.02-.531a5.951,5.951,0,0,1,1.738-4.158,5.941,5.941,0,1,1,7.295,9.271,6.613,6.613,0,0,1,1.285,1.533l.061.1c.2.336.377.623.186.959a.684.684,0,0,1-.666.311Zm-1.746-3.605a4.851,4.851,0,0,0,2.35-6.291c-.053.168-.115.34-.189.52a11.02,11.02,0,0,1-2.35,3.309,12.4,12.4,0,0,1-2.191,1.762A5.43,5.43,0,0,1,17435.162,23872.908Zm-2.92-1.541a11.371,11.371,0,0,0,2.023-1.629,10.061,10.061,0,0,0,2.133-2.99,2.348,2.348,0,0,0,.244-1.471c-.049-.053-.1-.1-.148-.154s-.1-.1-.156-.148a2.318,2.318,0,0,0-1.467.244,9.8,9.8,0,0,0-2.99,2.133,11.609,11.609,0,0,0-1.637,2.037A4.7,4.7,0,0,1,17432.242,23871.367Zm-2.949-2.336a12.111,12.111,0,0,1,1.881-2.387,10.8,10.8,0,0,1,3.307-2.348c.18-.076.355-.141.523-.193a4.838,4.838,0,0,0-6.766,4.406c0,.131,0,.26.012.391A4.4,4.4,0,0,1,17429.293,23869.031Zm-17.1-8.121a5.05,5.05,0,0,1,4.936-1.516q-.079-.237-.146-.5a14.233,14.233,0,0,1-.408-3.457,10.768,10.768,0,0,1,.793-4.307A9.587,9.587,0,0,0,17412.189,23860.91Zm5.479-5.477a11.183,11.183,0,0,0,.7,4.135,5.046,5.046,0,0,1,6.1-1.637,11.168,11.168,0,0,0-1.459-3.936c-1.18-2.047-2.588-3.35-3.8-3.533C17418.24,23851.225,17417.668,23853.057,17417.668,23855.434Zm9.953-3.283a.555.555,0,0,1,0-.785.549.549,0,0,1,.777,0,.555.555,0,0,1,0,.785.546.546,0,0,1-.389.156A.537.537,0,0,1,17427.621,23852.15Z" transform="translate(-17409.008 -23846.756)" fill="url(#linear-gradient)"/>
</svg>
