<svg id="Component_29_19" data-name="Component 29 – 19" xmlns="http://www.w3.org/2000/svg" width="24" height="24" viewBox="0 0 24 24">
  <g id="Group_19458" data-name="Group 19458" transform="translate(-14331.326 -3055.189)" opacity="0">
    <path id="Path_20896" data-name="Path 20896" d="M14346.981,3069.285l2.962,6.438-2.79-.772-.987,2.7-2.876-6.739-3.219,6.567-1.288-2.532-2.7,1.116,2.7-6.353Z" fill="#ababab"/>
    <path id="Path_20895" data-name="Path 20895" d="M14336.015,3064.216l-.687-2.361,1.589-1.245.3-1.674,1.03-.772,1.073-.215s.815-.815.987-.944.257-.429.386-.515a2.441,2.441,0,0,1,1.116,0,5.548,5.548,0,0,0,1.116.343,5.031,5.031,0,0,0,1.245-.343,2.6,2.6,0,0,1,.943-.3c.3,0,.473.515.645.644s.472.129.687.386a1.571,1.571,0,0,0,1.116.73c.6.043.9.258,1.03.215s.558.429.6.772a2.9,2.9,0,0,0,.3.773c.128.343.042.515.343.9a5.1,5.1,0,0,0,.687.687c.215.215.172.172.3.558a1.888,1.888,0,0,1,0,.858c0,.215-.259.215-.3.558s-.258.472,0,.944.129.6.3.987.43.558.215.944-.558.429-.9.944-.771.558-.644.9a5.482,5.482,0,0,1-.645,2.189c-.129.086-1.2.129-1.459.344a16.394,16.394,0,0,1-1.889,1.288c-.258.086-1.588-.043-1.889,0a8.385,8.385,0,0,1-1.8,0c-.129-.086-1.287.129-1.5-.3s-.815-1.374-1.159-1.331a10.09,10.09,0,0,1-1.631-.215l-1.03-1.974-1.159-1.331Z" fill="#ababab"/>
    <circle id="Ellipse_356" data-name="Ellipse 356" cx="5" cy="5" r="5" transform="translate(14338 3059)" fill="#ababab"/>
  </g>
  <g id="Group_19457" data-name="Group 19457" transform="translate(-412 -1029)">
    <g id="medal_1_" data-name="medal (1)" transform="translate(404.715 1028.002)">
      <path id="Path_20893" data-name="Path 20893" d="M40.141,54.2a.314.314,0,0,1-.288-.189L37.071,47.7a.314.314,0,1,1,.575-.254l2.483,5.63.856-2.1a.314.314,0,0,1,.421-.167l1.98.9-2.315-5.237a.314.314,0,1,1,.575-.254l2.648,5.994a.314.314,0,0,1-.418.413l-2.433-1.11L40.431,54a.314.314,0,0,1-.287.2Z" transform="translate(-17.663 -30.2)" fill="#ababab" stroke="#ababab" stroke-width="0.7"/>
      <path id="Path_20890" data-name="Path 20890" d="M17.977,54.2h0a.314.314,0,0,1-.287-.2l-1.012-2.48-2.433,1.11a.314.314,0,0,1-.418-.413l2.649-5.994a.314.314,0,0,1,.575.254l-2.314,5.237,1.98-.9a.314.314,0,0,1,.421.167l.856,2.1,2.483-5.63a.314.314,0,1,1,.575.254L18.265,54.01A.314.314,0,0,1,17.977,54.2Z" transform="translate(-1.722 -30.2)" fill="#ababab" stroke="#ababab" stroke-width="0.7"/>
      <path id="Path_20891" data-name="Path 20891" d="M17.512,18.164a1.148,1.148,0,0,1-.3-.039,2.167,2.167,0,0,1-1.06-.9,2.32,2.32,0,0,0-.566-.6,2.361,2.361,0,0,0-.817-.2,2.124,2.124,0,0,1-1.289-.464,2.131,2.131,0,0,1-.465-1.29,2.375,2.375,0,0,0-.2-.816,2.335,2.335,0,0,0-.6-.566,2.167,2.167,0,0,1-.9-1.059,2.1,2.1,0,0,1,.241-1.329,2.406,2.406,0,0,0,.24-.826,2.407,2.407,0,0,0-.24-.826,2.106,2.106,0,0,1-.241-1.329,2.167,2.167,0,0,1,.9-1.059,2.331,2.331,0,0,0,.6-.568,2.364,2.364,0,0,0,.2-.815A2.109,2.109,0,0,1,13.48,4.2a2.139,2.139,0,0,1,1.289-.465,2.361,2.361,0,0,0,.817-.2,2.328,2.328,0,0,0,.566-.6,2.165,2.165,0,0,1,1.059-.9,2.092,2.092,0,0,1,1.329.241,2.407,2.407,0,0,0,.827.237,2.407,2.407,0,0,0,.826-.24,2.106,2.106,0,0,1,1.329-.242,2.166,2.166,0,0,1,1.06.9,2.326,2.326,0,0,0,.566.6,2.354,2.354,0,0,0,.816.2,2.122,2.122,0,0,1,1.289.465,2.131,2.131,0,0,1,.465,1.289,2.373,2.373,0,0,0,.2.817,2.326,2.326,0,0,0,.6.566,2.168,2.168,0,0,1,.9,1.059,2.1,2.1,0,0,1-.241,1.329,2.407,2.407,0,0,0-.24.826,2.4,2.4,0,0,0,.24.826,2.107,2.107,0,0,1,.241,1.329,2.168,2.168,0,0,1-.9,1.059,2.326,2.326,0,0,0-.6.566,2.368,2.368,0,0,0-.2.815,2.126,2.126,0,0,1-.465,1.29,2.125,2.125,0,0,1-1.289.464,2.36,2.36,0,0,0-.816.2,2.328,2.328,0,0,0-.566.6,2.167,2.167,0,0,1-1.059.9,2.1,2.1,0,0,1-1.329-.241,2.4,2.4,0,0,0-.827-.237,2.4,2.4,0,0,0-.826.24,2.791,2.791,0,0,1-1.028.28Zm0-15.537a.537.537,0,0,0-.139.017c-.262.07-.486.362-.723.671a2.781,2.781,0,0,1-.751.758,2.819,2.819,0,0,1-1.047.278,1.7,1.7,0,0,0-.929.286,1.7,1.7,0,0,0-.286.929,2.821,2.821,0,0,1-.278,1.047,2.784,2.784,0,0,1-.759.751c-.309.237-.6.461-.671.723a1.686,1.686,0,0,0,.215.927,2.863,2.863,0,0,1,.288,1.065,2.86,2.86,0,0,1-.288,1.065,1.685,1.685,0,0,0-.215.928c.07.262.362.486.671.723a2.784,2.784,0,0,1,.759.751,2.815,2.815,0,0,1,.278,1.047,1.7,1.7,0,0,0,.286.929,1.7,1.7,0,0,0,.929.286,2.817,2.817,0,0,1,1.047.278,2.769,2.769,0,0,1,.751.759c.237.309.461.6.723.671A1.693,1.693,0,0,0,18.3,17.3a2.865,2.865,0,0,1,1.066-.286,2.865,2.865,0,0,1,1.066.287,1.68,1.68,0,0,0,.927.215c.262-.07.486-.362.723-.671a2.777,2.777,0,0,1,.751-.759,2.819,2.819,0,0,1,1.047-.278,1.7,1.7,0,0,0,.929-.286A1.7,1.7,0,0,0,25.1,14.6a2.82,2.82,0,0,1,.278-1.047,2.78,2.78,0,0,1,.759-.752c.309-.237.6-.46.671-.723a1.686,1.686,0,0,0-.215-.927,2.86,2.86,0,0,1-.288-1.065,2.863,2.863,0,0,1,.288-1.065,1.684,1.684,0,0,0,.215-.927c-.07-.262-.362-.486-.671-.723a2.784,2.784,0,0,1-.759-.751A2.817,2.817,0,0,1,25.1,5.567a1.7,1.7,0,0,0-.286-.929,1.7,1.7,0,0,0-.929-.286,2.823,2.823,0,0,1-1.047-.279,2.778,2.778,0,0,1-.751-.759c-.237-.309-.461-.6-.723-.671a1.687,1.687,0,0,0-.927.216,2.871,2.871,0,0,1-1.066.289A2.871,2.871,0,0,1,18.3,2.86,2.348,2.348,0,0,0,17.512,2.627Z" transform="translate(0 0)" fill="#ababab" stroke="#ababab" stroke-width="0.7"/>
      <path id="Path_20892" data-name="Path 20892" d="M25.3,21.378a5.364,5.364,0,1,1,5.363-5.364A5.364,5.364,0,0,1,25.3,21.378Zm0-10.1a4.735,4.735,0,1,0,4.735,4.735A4.735,4.735,0,0,0,25.3,11.279Z" transform="translate(-5.929 -5.933)" fill="#ababab" stroke="#ababab" stroke-width="0.7"/>
      <path id="Path_20894" data-name="Path 20894" d="M31.968,23.742a.312.312,0,0,1-.146-.036l-1.573-.827-1.571.827a.314.314,0,0,1-.456-.331l.3-1.751-1.273-1.24a.314.314,0,0,1,.174-.536l1.758-.255L29.968,18a.327.327,0,0,1,.563,0l.786,1.593,1.758.255a.314.314,0,0,1,.174.536l-1.273,1.24.3,1.751a.314.314,0,0,1-.31.367ZM30.249,22.21a.314.314,0,0,1,.146.036l1.156.608-.22-1.286a.314.314,0,0,1,.091-.278l.934-.911-1.291-.189a.314.314,0,0,1-.237-.172l-.579-1.17-.578,1.17a.314.314,0,0,1-.237.172l-1.291.189.934.911a.314.314,0,0,1,.091.278l-.22,1.286,1.156-.608A.314.314,0,0,1,30.249,22.21Z" transform="translate(-10.882 -10.862)" fill="#ababab" stroke="#ababab" stroke-width="0.5"/>
    </g>
    <rect id="Rectangle_11004" data-name="Rectangle 11004" width="24" height="24" transform="translate(412 1029)" fill="#ababab" opacity="0"/>
  </g>
</svg>
