<svg width="48" height="48" viewBox="0 0 48 48" fill="none" xmlns="http://www.w3.org/2000/svg">
<path d="M26 28.1L28.1 26L23.5 21.4V12.5H20.5V22.6L26 28.1ZM18.15 36.5C18.5167 34.6333 19.4167 33.0833 20.85 31.85C22.2833 30.6167 23.9667 30 25.9 30H34.7C35.4333 28.8333 36 27.5804 36.4 26.2411C36.8 24.9018 37 23.4881 37 22C37 17.8214 35.5447 14.2768 32.634 11.366C29.7232 8.45535 26.1786 7 22 7C17.8214 7 14.2768 8.45535 11.3661 11.366C8.45535 14.2768 7 17.8214 7 22C7 25.5 8.05 28.575 10.15 31.225C12.25 33.875 14.9167 35.6333 18.15 36.5ZM26 46C24.0667 46 22.3667 45.3917 20.9 44.175C19.4333 42.9583 18.5167 41.4333 18.15 39.6C14.0833 38.7333 10.7083 36.6667 8.025 33.4C5.34167 30.1333 4 26.3333 4 22C4 17 5.75 12.75 9.25 9.25C12.75 5.75 17 4 22 4C27 4 31.25 5.75 34.75 9.25C38.25 12.75 40 17 40 22C40 23.4333 39.8417 24.825 39.525 26.175C39.2083 27.525 38.75 28.8 38.15 30C40.35 30 42.2083 30.7833 43.725 32.35C45.2417 33.9167 46 35.8 46 38C46 40.2 45.2167 42.0833 43.65 43.65C42.0833 45.2167 40.2 46 38 46H26ZM26 43H38C39.4 43 40.5833 42.5167 41.55 41.55C42.5167 40.5833 43 39.4 43 38C43 36.6 42.5167 35.4167 41.55 34.45C40.5833 33.4833 39.4 33 38 33H26C24.6 33 23.4167 33.4833 22.45 34.45C21.4833 35.4167 21 36.6 21 38C21 39.4 21.4833 40.5833 22.45 41.55C23.4167 42.5167 24.6 43 26 43ZM25.9913 39.5C25.5638 39.5 25.2083 39.3554 24.925 39.0663C24.6417 38.7771 24.5 38.4187 24.5 37.9913C24.5 37.5638 24.6446 37.2083 24.9337 36.925C25.2229 36.6417 25.5813 36.5 26.0087 36.5C26.4362 36.5 26.7917 36.6446 27.075 36.9337C27.3583 37.2229 27.5 37.5813 27.5 38.0087C27.5 38.4362 27.3554 38.7917 27.0663 39.075C26.7771 39.3583 26.4187 39.5 25.9913 39.5ZM31.9913 39.5C31.5638 39.5 31.2083 39.3554 30.925 39.0663C30.6417 38.7771 30.5 38.4187 30.5 37.9913C30.5 37.5638 30.6446 37.2083 30.9337 36.925C31.2229 36.6417 31.5813 36.5 32.0087 36.5C32.4362 36.5 32.7917 36.6446 33.075 36.9337C33.3583 37.2229 33.5 37.5813 33.5 38.0087C33.5 38.4362 33.3554 38.7917 33.0663 39.075C32.7771 39.3583 32.4187 39.5 31.9913 39.5ZM37.9913 39.5C37.5638 39.5 37.2083 39.3554 36.925 39.0663C36.6417 38.7771 36.5 38.4187 36.5 37.9913C36.5 37.5638 36.6446 37.2083 36.9337 36.925C37.2229 36.6417 37.5813 36.5 38.0087 36.5C38.4362 36.5 38.7917 36.6446 39.075 36.9337C39.3583 37.2229 39.5 37.5813 39.5 38.0087C39.5 38.4362 39.3554 38.7917 39.0663 39.075C38.7771 39.3583 38.4187 39.5 37.9913 39.5Z" fill="#FFAA00"/>
</svg>
