<svg xmlns="http://www.w3.org/2000/svg" width="24" height="24" viewBox="0 0 24 24">
  <g id="Group_19692" data-name="Group 19692" transform="translate(-659 -349)">
    <rect id="Rectangle_11021" data-name="Rectangle 11021" width="24" height="24" transform="translate(659 349)" fill="#ababab" opacity="0"/>
    <path id="info_FILL0_wght500_GRAD0_opsz48" d="M85.1,186.274a.849.849,0,0,0,.629-.254.859.859,0,0,0,.252-.63v-4.8a.884.884,0,1,0-1.768,0v4.8a.87.87,0,0,0,.887.884Zm-.085-8.479a.973.973,0,0,0,.706-.277.92.92,0,0,0,.285-.687,1,1,0,0,0-.285-.729,1.011,1.011,0,0,0-1.416,0,1,1,0,0,0-.282.726.923.923,0,0,0,.285.69A.974.974,0,0,0,85.019,177.795Zm.008,13.988a10.683,10.683,0,0,1-4.281-.863,11.083,11.083,0,0,1-5.861-5.862,11.063,11.063,0,0,1,0-8.569A10.987,10.987,0,0,1,77.246,173a11.279,11.279,0,0,1,3.5-2.352,11.037,11.037,0,0,1,8.572,0,10.991,10.991,0,0,1,5.839,5.841,11.032,11.032,0,0,1,0,8.57,11.226,11.226,0,0,1-2.352,3.493,11.083,11.083,0,0,1-3.491,2.361A10.669,10.669,0,0,1,85.027,191.782Zm.005-1.845a9.134,9.134,0,1,0-6.49-2.676A8.8,8.8,0,0,0,85.032,189.937ZM85.019,180.785Z" transform="translate(585.978 180.218)" fill="#ababab"/>
  </g>
</svg>
