<svg xmlns="http://www.w3.org/2000/svg" width="24" height="24" viewBox="0 0 24 24">
  <g id="Group_19684" data-name="Group 19684" transform="translate(-1176 -451)">
    <rect id="Rectangle_11017" data-name="Rectangle 11017" width="24" height="24" transform="translate(1176 451)" fill="#fff" opacity="0"/>
    <path id="search_FILL0_wght400_GRAD0_opsz48" d="M140.521,237l-6.64-6.64a7.41,7.41,0,0,1-2.351,1.361,8.684,8.684,0,1,1,5.208-5.327,8.531,8.531,0,0,1-1.412,2.521L142,235.521Zm-11.883-6.808a6.286,6.286,0,0,0,4.643-1.933,6.624,6.624,0,0,0,0-9.31,6.286,6.286,0,0,0-4.643-1.933,6.588,6.588,0,1,0,0,13.176Z" transform="translate(1057 237)"/>
  </g>
</svg>
