<svg xmlns="http://www.w3.org/2000/svg" width="24" height="24" viewBox="0 0 24 24">
  <g id="Group_19640" data-name="Group 19640" transform="translate(-558 -362)">
    <rect id="icon_placeholder" width="24" height="24" transform="translate(558 362)" fill="none" opacity="0"/>
    <path id="task_FILL0_wght400_GRAD0_opsz48" d="M167.535,191.043l-2.31-2.31a.784.784,0,0,0-.245-.165.7.7,0,0,0-.273-.055.674.674,0,0,0-.279.062.733.733,0,0,0-.248.186.75.75,0,0,0-.22.54.725.725,0,0,0,.22.533l2.778,2.777a.766.766,0,0,0,.581.247.8.8,0,0,0,.3-.055.838.838,0,0,0,.275-.193l5.2-5.2a.736.736,0,0,0,.22-.537.725.725,0,0,0-.222-.535.761.761,0,0,0-1.071,0ZM161.65,198a1.692,1.692,0,0,1-1.65-1.65v-18.7a1.692,1.692,0,0,1,1.65-1.65h9.24a1.592,1.592,0,0,1,.652.138,1.734,1.734,0,0,1,.53.357l5.033,5.033a1.735,1.735,0,0,1,.357.53,1.592,1.592,0,0,1,.137.652v13.64a1.692,1.692,0,0,1-1.65,1.65Zm9.1-16.06v-4.29h-9.1v18.7h14.3V182.765h-4.372a.81.81,0,0,1-.825-.825Zm-9.1-4.29v0Z" transform="translate(402 187)" fill="#174fa3"/>
  </g>
</svg>
