<svg xmlns="http://www.w3.org/2000/svg" width="38" height="38" viewBox="0 0 38 38">
  <path id="stop_circle_FILL0_wght300_GRAD0_opsz48" d="M16.85,31.15h14.3V16.85H16.85ZM24,43a18.356,18.356,0,0,1-7.4-1.5A19.185,19.185,0,0,1,6.5,31.4,18.356,18.356,0,0,1,5,24a18.533,18.533,0,0,1,1.5-7.425,18.952,18.952,0,0,1,4.075-6.025A19.551,19.551,0,0,1,16.6,6.5,18.356,18.356,0,0,1,24,5a18.533,18.533,0,0,1,7.425,1.5A18.869,18.869,0,0,1,41.5,16.575,18.533,18.533,0,0,1,43,24a18.356,18.356,0,0,1-1.5,7.4,19.551,19.551,0,0,1-4.05,6.025A18.952,18.952,0,0,1,31.425,41.5,18.533,18.533,0,0,1,24,43Zm.05-2.25a16.061,16.061,0,0,0,11.825-4.9,16.243,16.243,0,0,0,4.875-11.9,16.1,16.1,0,0,0-4.875-11.825A16.161,16.161,0,0,0,24,7.25a16.185,16.185,0,0,0-11.85,4.875A16.119,16.119,0,0,0,7.25,24a16.143,16.143,0,0,0,4.9,11.85A16.2,16.2,0,0,0,24.05,40.75ZM24,24Z" transform="translate(-5 -5)" fill="#f24b59"/>
</svg>
