<svg xmlns="http://www.w3.org/2000/svg" width="32" height="32" viewBox="0 0 32 32">
  <g id="blue_leave_management" data-name="blue leave management" transform="translate(136 -191)">
    <rect id="icon_frame" width="32" height="32" transform="translate(-136 191)" fill="none" opacity="0"/>
    <path id="event_FILL0_wght300_GRAD0_opsz48" d="M21.431,24.828A2.7,2.7,0,0,1,19.424,24a2.781,2.781,0,0,1-.816-2.024,2.828,2.828,0,0,1,4.831-1.992A2.781,2.781,0,0,1,24.255,22,2.744,2.744,0,0,1,23.439,24,2.7,2.7,0,0,1,21.431,24.828ZM7,28.75V6.946h4.141V4.75H12.71v2.2h9.976V4.75h1.537v2.2h4.11v21.8Zm1.412-1.412h18.51V14.475H8.412Zm0-14.275h18.51V8.389H8.412Zm0,0v0Z" transform="translate(-137.667 190.25)" fill="#b66dff"/>
  </g>
</svg>
