<svg xmlns="http://www.w3.org/2000/svg" width="32" height="32" viewBox="0 0 32 32">
  <g id="menu_icon_thin" transform="translate(136 -191)">
    <rect id="icon_frame" width="32" height="32" transform="translate(-136 191)" fill="none" opacity="0"/>
    <path id="assignment_add_FILL0_wght300_GRAD0_opsz48" d="M7,24.663V5.28h7.5a2.059,2.059,0,0,1,.584-1.6A2.115,2.115,0,0,1,16.691,3a2.16,2.16,0,0,1,1.625.684,1.951,1.951,0,0,1,.57,1.6h7.5V15.4a5.224,5.224,0,0,0-.641-.242q-.328-.1-.641-.185V6.563H8.283V23.38H16.72q.086.342.171.67a3.136,3.136,0,0,0,.228.613ZM8.283,22.1v0Zm2.993-1.853h5.587q.086-.314.2-.641a4.262,4.262,0,0,1,.285-.641H11.276Zm0-4.618H20.6q.342-.143.627-.242t.656-.214v-.855h-10.6Zm0-4.646H22.107V9.7H11.276Zm5.416-4.874a.949.949,0,0,0,.67-.285.931.931,0,0,0,0-1.368.949.949,0,0,0-.67-.285.887.887,0,0,0-.67.285,1,1,0,0,0,0,1.368A.887.887,0,0,0,16.691,6.107ZM23.789,27a4.89,4.89,0,0,1-4.874-4.874,4.888,4.888,0,0,1,8.337-3.477,4.869,4.869,0,0,1,0,6.912A4.721,4.721,0,0,1,23.789,27Zm-.4-1.368h.884v-3.05h3.05V21.7h-3.05v-3.05H23.39V21.7H20.34v.884h3.05Z" transform="translate(-137.9 192)" fill="#282828"/>
  </g>
</svg>
