<svg xmlns="http://www.w3.org/2000/svg" width="24" height="24" viewBox="0 0 24 24">
  <g id="Password" transform="translate(-3154 -3420)">
    <path id="visibility_FILL0_wght400_GRAD0_opsz48" d="M13,19.75a4.225,4.225,0,0,0,4.25-4.25A4.225,4.225,0,0,0,13,11.25,4.225,4.225,0,0,0,8.75,15.5,4.225,4.225,0,0,0,13,19.75Zm0-1.45a2.811,2.811,0,0,1-1.988-4.787,2.837,2.837,0,0,1,3.975,0A2.8,2.8,0,0,1,13,18.3ZM13,23a11.2,11.2,0,0,1-6.6-2.075A12.641,12.641,0,0,1,2,15.5a12.641,12.641,0,0,1,4.4-5.425A11.2,11.2,0,0,1,13,8a11.2,11.2,0,0,1,6.6,2.075A12.641,12.641,0,0,1,24,15.5a12.641,12.641,0,0,1-4.4,5.425A11.2,11.2,0,0,1,13,23ZM13,15.5Zm0,6a10.053,10.053,0,0,0,5.563-1.638A10.626,10.626,0,0,0,22.425,15.5a10.626,10.626,0,0,0-3.862-4.363,10.267,10.267,0,0,0-11.125,0A10.8,10.8,0,0,0,3.55,15.5a10.8,10.8,0,0,0,3.888,4.362A10.053,10.053,0,0,0,13,21.5Z" transform="translate(3153 3417)" fill="#b66dff"/>
    <rect id="Rectangle_10303" data-name="Rectangle 10303" width="24" height="24" transform="translate(3154 3420)" fill="#fff" opacity="0"/>
  </g>
</svg>
