<svg xmlns="http://www.w3.org/2000/svg" width="20" height="20" viewBox="0 0 20 20">
  <path id="info_FILL0_wght400_GRAD0_opsz48_2_" data-name="info_FILL0_wght400_GRAD0_opsz48 (2)" d="M13.325,19h1.5V13h-1.5ZM14,11.15a.821.821,0,0,0,.587-.225.757.757,0,0,0,.238-.575.84.84,0,0,0-.238-.6.815.815,0,0,0-1.175,0,.84.84,0,0,0-.238.6.757.757,0,0,0,.238.575A.821.821,0,0,0,14,11.15ZM14,24a9.676,9.676,0,0,1-3.875-.788,10.075,10.075,0,0,1-5.338-5.337,9.989,9.989,0,0,1,0-7.775,9.994,9.994,0,0,1,2.15-3.175,10.251,10.251,0,0,1,3.188-2.137,9.989,9.989,0,0,1,7.775,0A9.984,9.984,0,0,1,23.212,10.1a9.989,9.989,0,0,1,0,7.775,10.251,10.251,0,0,1-2.138,3.188,9.994,9.994,0,0,1-3.175,2.15A9.738,9.738,0,0,1,14,24Zm.025-1.5a8.15,8.15,0,0,0,6-2.487A8.242,8.242,0,0,0,22.5,13.975a8.171,8.171,0,0,0-2.475-6A8.2,8.2,0,0,0,14,5.5,8.212,8.212,0,0,0,7.988,7.975,8.179,8.179,0,0,0,5.5,14a8.191,8.191,0,0,0,2.488,6.012A8.22,8.22,0,0,0,14.025,22.5ZM14,14Z" transform="translate(-4 -4)" fill="#f24b59"/>
</svg>
